{
.appVersion = "1158";
DisplayStrings = (
ABCDEFGHIJKLMNOPQRSTUVWXYZ
);
classes = (
{
automatic = 1;
code = "A Aacute Acircumflex Agrave Atilde B C Ccedilla D E Eacute Ecircumflex Egrave F G H I Iacute Icircumflex Igrave J K L M N Ntilde O Oacute Ocircumflex Odieresis P Q R S T U Uacute Udieresis V W X Y Z";
name = Uppercase;
}
);
date = "2017-07-08 18:27:59 +0000";
familyName = "TCC Untitled";
featurePrefixes = (
{
automatic = 1;
code = "languagesystem DFLT dflt;\012";
name = Languagesystems;
}
);
features = (
{
automatic = 1;
code = "feature lnum;\012feature onum;\012feature c2sc;\012feature smcp;\012feature case;\012";
name = aalt;
},
{
automatic = 1;
code = "lookup ccmp_Other_1 {\012	@CombiningTopAccents = [acutecomb circumflexcomb dieresiscomb dotaccentcomb gravecomb ringcomb tildecomb];\012	@CombiningNonTopAccents = [cedillacomb slashlongcomb strokeshortcomb];\012	sub [i j]' @CombiningTopAccents by [idotless jdotless];\012	sub [i j]' @CombiningNonTopAccents @CombiningTopAccents by [idotless jdotless];\012	@Markscomb = [gravecomb acutecomb tildecomb];\012	@MarkscombCase = [gravecomb.case acutecomb.case tildecomb.case];\012	sub @Markscomb @Markscomb' by @MarkscombCase;\012	sub @Uppercase @Markscomb' by @MarkscombCase;\012} ccmp_Other_1;\012\012lookup ccmp_Other_2 {\012	sub @Markscomb' @MarkscombCase by @MarkscombCase;\012	sub @MarkscombCase @Markscomb' by @MarkscombCase;\012} ccmp_Other_2;\012";
name = ccmp;
},
{
automatic = 1;
code = "sub zero.osf by zero;\012sub one.osf by one;\012sub two.osf by two;\012sub three.osf by three;\012sub four.osf by four;\012sub five.osf by five;\012sub six.osf by six;\012sub seven.osf by seven;\012sub eight.osf by eight;\012sub nine.osf by nine;\012";
name = lnum;
},
{
automatic = 1;

glyphs = (
{
glyphname = A;
lastChange = "2018-10-23 12:37:16 +0000";
layers = (
{
anchors = (
{
name = bottom;
position = "{285, 0}";
},
{
name = top;
position = "{284, 685}";
}
);
layerId = "44A3F285-AC1C-4A7F-B2BD-0C498DBF5AFB";
paths = (
{
closed = 1;
nodes = (
"113 0 LINE",
"284 601 LINE",
"451 0 LINE",
"550 0 LINE",
"333 685 LINE",
"235 685 LINE",
"20 0 LINE"
);
},
{
closed = 1;
nodes = (
"405 201 LINE",
"385 272 LINE",
"182 272 LINE",
"161 201 LINE"
);
}
);
width = 570;
},
{
anchors = (
{
name = bottom;
position = "{317, 0}";
},
{
name = top;
position = "{317, 692}";
}
);
layerId = "2F5B831B-86AF-41A9-958D-3871EE4B7007";
paths = (
{
closed = 1;
nodes = (
"205 0 LINE",
"317 539 LINE",
"424 0 LINE",
"644 0 LINE",
"429 692 LINE",
"202 692 LINE",
"10 0 LINE"
);
},
{
closed = 1;
nodes = (
"437 155 LINE",
"417 295 LINE",
"214 295 LINE",
"193 155 LINE"
);
}
);
width = 654;
}
);
unicode = 0041;
},
{
glyphname = B;
lastChange = "2018-10-23 12:37:46 +0000";
layers = (
{
layerId = "44A3F285-AC1C-4A7F-B2BD-0C498DBF5AFB";
paths = (
{
closed = 1;
nodes = (
"278 0 LINE SMOOTH",
"442 0 OFFCURVE",
"498 101 OFFCURVE",
"498 201 CURVE SMOOTH",
"498 307 OFFCURVE",
"428 359 OFFCURVE",
"372 374 CURVE",
"428 404 OFFCURVE",
"458 464 OFFCURVE",
"458 524 CURVE SMOOTH",
"458 606 OFFCURVE",
"399 685 OFFCURVE",
"272 685 CURVE SMOOTH",
"119 685 LINE",
"119 617 LINE",
"254 617 LINE SMOOTH",
"333 617 OFFCURVE",
"372 576 OFFCURVE",
"372 516 CURVE SMOOTH",
"372 455 OFFCURVE",
"333 402 OFFCURVE",
"254 402 CURVE SMOOTH",
"130 402 LINE",
"130 330 LINE",
"263 330 LINE SMOOTH",
"370 330 OFFCURVE",
"404 262 OFFCURVE",
"404 201 CURVE SMOOTH",
"404 140 OFFCURVE",
"370 69 OFFCURVE",
"263 69 CURVE SMOOTH",
"149 69 LINE",
"149 0 LINE"
);
},
{
closed = 1;
nodes = (
"176 0 LINE",
"176 685 LINE",
"90 685 LINE",
"90 0 LINE"
);
}
);
width = 538;
},
{
layerId = "2F5B831B-86AF-41A9-958D-3871EE4B7007";
paths = (
{
closed = 1;
nodes = (
"346 0 LINE SMOOTH",
"476 0 OFFCURVE",
"564 94 OFFCURVE",
"564 213 CURVE SMOOTH",
"564 306 OFFCURVE",
"482 364 OFFCURVE",
"443 375 CURVE",
"479 392 OFFCURVE",
"531 442 OFFCURVE",
"531 516 CURVE SMOOTH",
"531 603 OFFCURVE",
"452 692 OFFCURVE",
"327 692 CURVE SMOOTH",
"175 692 LINE",
"175 565 LINE",
"271 565 LINE SMOOTH",
"310 565 OFFCURVE",
"334 538 OFFCURVE",
"334 493 CURVE SMOOTH",
"334 448 OFFCURVE",
"310 419 OFFCURVE",
"271 419 CURVE SMOOTH",
"175 419 LINE",
"175 293 LINE",
"271 293 LINE SMOOTH",
"310 293 OFFCURVE",
"348 275 OFFCURVE",
"348 213 CURVE SMOOTH",
"348 151 OFFCURVE",
"310 127 OFFCURVE",
"271 127 CURVE SMOOTH",
"175 127 LINE",
"175 0 LINE"
);
},
{
closed = 1;
nodes = (
"256 0 LINE",
"256 692 LINE",
"56 692 LINE",
"56 0 LINE"
);
}
);
width = 585;
}
);
leftMetricsKey = H;
unicode = 0042;
},
{
glyphname = C;
lastChange = "2018-10-23 12:39:24 +0000";
layers = (
{
anchors = (
{
name = bottom;
position = "{266, 0}";
}
);
layerId = "44A3F285-AC1C-4A7F-B2BD-0C498DBF5AFB";
paths = (
{
closed = 1;
nodes = (
"347 -10 OFFCURVE",
"402 12 OFFCURVE",
"448 52 CURVE",
"396 111 LINE",
"364 81 OFFCURVE",
"325 62 OFFCURVE",
"279 62 CURVE SMOOTH",
"166 62 OFFCURVE",
"132 172 OFFCURVE",
"132 343 CURVE SMOOTH",
"132 516 OFFCURVE",
"168 625 OFFCURVE",
"284 625 CURVE SMOOTH",
"331 625 OFFCURVE",
"360 607 OFFCURVE",
"396 574 CURVE",
"448 633 LINE",
"407 668 OFFCURVE",
"367 697 OFFCURVE",
"279 697 CURVE SMOOTH",
"103 697 OFFCURVE",
"40 563 OFFCURVE",
"40 343 CURVE SMOOTH",
"40 123 OFFCURVE",
"99 -10 OFFCURVE",
"275 -10 CURVE SMOOTH"
);
}
);
width = 473;
},
{
anchors = (
{
name = bottom;
position = "{342, 0}";
}
);
layerId = "2F5B831B-86AF-41A9-958D-3871EE4B7007";
paths = (
{
closed = 1;
nodes = (
"444 -18 OFFCURVE",
"516 6 OFFCURVE",
"562 36 CURVE",
"515 162 LINE",
"467 135 OFFCURVE",
"414 128 OFFCURVE",
"388 128 CURVE SMOOTH",
"308 128 OFFCURVE",
"250 178 OFFCURVE",
"250 346 CURVE SMOOTH",
"250 515 OFFCURVE",
"308 564 OFFCURVE",
"388 564 CURVE SMOOTH",
"419 564 OFFCURVE",
"464 555 OFFCURVE",
"505 523 CURVE",
"562 649 LINE",
"517 682 OFFCURVE",
"441 710 OFFCURVE",
"354 710 CURVE SMOOTH",
"156 710 OFFCURVE",
"42 586 OFFCURVE",
"42 345 CURVE SMOOTH",
"42 103 OFFCURVE",
"156 -18 OFFCURVE",
"354 -18 CURVE SMOOTH"
);
}
);
width = 582;
}
);
leftMetricsKey = O;
unicode = 0043;
},
{
glyphname = D;
lastChange = "2018-10-23 12:39:08 +0000";
layers = (
{
layerId = "44A3F285-AC1C-4A7F-B2BD-0C498DBF5AFB";
paths = (
{
closed = 1;
nodes = (
"273 0 LINE SMOOTH",
"449 0 OFFCURVE",
"542 108 OFFCURVE",
"542 343 CURVE SMOOTH",
"542 579 OFFCURVE",
"449 685 OFFCURVE",
"273 685 CURVE SMOOTH",
"131 685 LINE",
"131 616 LINE",
"260 616 LINE",
"391 616 OFFCURVE",
"447 527 OFFCURVE",
"447 343 CURVE SMOOTH",
"447 161 OFFCURVE",
"391 69 OFFCURVE",
"260 69 CURVE SMOOTH",
"146 69 LINE",
"146 0 LINE"
);
},
{
closed = 1;
nodes = (
"176 0 LINE",
"176 685 LINE",
"90 685 LINE",
"90 0 LINE"
);
}
);
width = 582;
},
{
layerId = "2F5B831B-86AF-41A9-958D-3871EE4B7007";
paths = (
{
closed = 1;
nodes = (
"285 0 LINE SMOOTH",
"461 0 OFFCURVE",
"597 103 OFFCURVE",
"597 347 CURVE SMOOTH",
"597 586 OFFCURVE",
"461 692 OFFCURVE",
"285 692 CURVE SMOOTH",
"148 692 LINE",
"148 552 LINE",
"257 552 LINE SMOOTH",
"343 552 OFFCURVE",
"389 517 OFFCURVE",
"389 347 CURVE SMOOTH",
"389 178 OFFCURVE",
"343 140 OFFCURVE",
"257 140 CURVE SMOOTH",
"163 140 LINE",
"163 0 LINE"
);
},
{
closed = 1;
nodes = (
"256 0 LINE",
"256 692 LINE",
"56 692 LINE",
"56 0 LINE"
);
}
);
width = 639;
}
);
leftMetricsKey = H;
rightMetricsKey = O;
unicode = 0044;
},
{
glyphname = E;
lastChange = "2018-10-23 12:39:52 +0000";
layers = (
{
anchors = (
{
name = top;
position = "{274, 685}";
}
);
layerId = "44A3F285-AC1C-4A7F-B2BD-0C498DBF5AFB";
paths = (
{
closed = 1;
nodes = (
"176 0 LINE",
"176 685 LINE",
"90 685 LINE",
"90 0 LINE"
);
},
{
closed = 1;
nodes = (
"451 0 LINE",
"451 73 LINE",
"121 73 LINE",
"121 0 LINE"
);
},
{
closed = 1;
nodes = (
"431 325 LINE",
"431 399 LINE",
"121 399 LINE",
"121 325 LINE"
);
},
{
closed = 1;
nodes = (
"451 612 LINE",
"451 685 LINE",
"121 685 LINE",
"121 612 LINE"
);
}
);
width = 481;
},
{
anchors = (
{
name = top;
position = "{292, 692}";
}
);
layerId = "2F5B831B-86AF-41A9-958D-3871EE4B7007";
paths = (
{
closed = 1;
nodes = (
"256 0 LINE",
"256 692 LINE",
"56 692 LINE",
"56 0 LINE"
);
},
{
closed = 1;
nodes = (
"515 0 LINE",
"515 160 LINE",
"163 160 LINE",
"163 0 LINE"
);
},
{
closed = 1;
nodes = (
"485 278 LINE",
"485 438 LINE",
"163 438 LINE",
"163 278 LINE"
);
},
{
closed = 1;
nodes = (
"515 532 LINE",
"515 692 LINE",
"163 692 LINE",
"163 532 LINE"
);
}
);
width = 563;
}
);
leftMetricsKey = H;
unicode = 0045;
},
{
glyphname = F;
lastChange = "2018-10-23 12:40:06 +0000";
layers = (
{
layerId = "44A3F285-AC1C-4A7F-B2BD-0C498DBF5AFB";
paths = (
{
closed = 1;
nodes = (
"176 0 LINE",
"176 685 LINE",
"90 685 LINE",
"90 0 LINE"
);
},
{
closed = 1;
nodes = (
"425 320 LINE",
"425 394 LINE",
"121 394 LINE",
"121 320 LINE"
);
},
{
closed = 1;
nodes = (
"443 612 LINE",
"443 685 LINE",
"121 685 LINE",
"121 612 LINE"
);
}
);
width = 473;
},
{
layerId = "2F5B831B-86AF-41A9-958D-3871EE4B7007";
paths = (
{
closed = 1;
nodes = (
"256 0 LINE",
"256 692 LINE",
"56 692 LINE",
"56 0 LINE"
);
},
{
closed = 1;
nodes = (
"485 268 LINE",
"485 428 LINE",
"163 428 LINE",
"163 268 LINE"
);
},
{
closed = 1;
nodes = (
"515 532 LINE",
"515 692 LINE",
"163 692 LINE",
"163 532 LINE"
);
}
);
width = 545;
}
);
leftMetricsKey = H;
unicode = 0046;
},
{
glyphname = G;
lastChange = "2018-10-23 12:40:52 +0000";
layers = (
{
layerId = "44A3F285-AC1C-4A7F-B2BD-0C498DBF5AFB";
paths = (
{
closed = 1;
nodes = (
"378 -10 OFFCURVE",
"455 15 OFFCURVE",
"509 53 CURVE",
"509 392 LINE",
"294 392 LINE",
"294 320 LINE",
"422 320 LINE",
"422 90 LINE",
"393 72 OFFCURVE",
"352 59 OFFCURVE",
"309 59 CURVE SMOOTH",
"189 59 OFFCURVE",
"138 161 OFFCURVE",
"138 343 CURVE SMOOTH",
"138 527 OFFCURVE",
"193 628 OFFCURVE",
"332 628 CURVE SMOOTH",
"382 628 OFFCURVE",
"416 614 OFFCURVE",
"462 583 CURVE",
"494 639 LINE",
"449 671 OFFCURVE",
"395 697 OFFCURVE",
"319 697 CURVE SMOOTH",
"135 697 OFFCURVE",
"40 579 OFFCURVE",
"40 343 CURVE SMOOTH",
"40 108 OFFCURVE",
"131 -10 OFFCURVE",
"300 -10 CURVE SMOOTH"
);
}
);
width = 569;
},
{
layerId = "2F5B831B-86AF-41A9-958D-3871EE4B7007";
paths = (
{
closed = 1;
nodes = (
"457 -18 OFFCURVE",
"552 9 OFFCURVE",
"622 45 CURVE",
"622 421 LINE",
"351 421 LINE",
"351 281 LINE",
"432 281 LINE",
"432 142 LINE",
"405 127 OFFCURVE",
"381 125 OFFCURVE",
"368 125 CURVE SMOOTH",
"301 125 OFFCURVE",
"260 178 OFFCURVE",
"260 345 CURVE SMOOTH",
"260 515 OFFCURVE",
"317 568 OFFCURVE",
"405 568 CURVE SMOOTH",
"463 568 OFFCURVE",
"511 545 OFFCURVE",
"554 513 CURVE",
"596 640 LINE",
"550 673 OFFCURVE",
"485 710 OFFCURVE",
"380 710 CURVE SMOOTH",
"177 710 OFFCURVE",
"42 588 OFFCURVE",
"42 345 CURVE SMOOTH",
"42 104 OFFCURVE",
"193 -18 OFFCURVE",
"371 -18 CURVE SMOOTH"
);
}
);
width = 657;
}
);
leftMetricsKey = O;
unicode = 0047;
},
{
glyphname = H;
lastChange = "2018-04-19 10:52:48 +0000";
layers = (
{
layerId = "44A3F285-AC1C-4A7F-B2BD-0C498DBF5AFB";
paths = (
{
closed = 1;
nodes = (
"527 0 LINE",
"527 685 LINE",
"441 685 LINE",
"441 0 LINE"
);
},
{
closed = 1;
nodes = (
"176 0 LINE",
"176 685 LINE",
"90 685 LINE",
"90 0 LINE"
);
},
{
closed = 1;
nodes = (
"470 326 LINE",
"470 400 LINE",
"148 400 LINE",
"148 326 LINE"
);
}
);
width = 617;
},
{
layerId = "2F5B831B-86AF-41A9-958D-3871EE4B7007";
paths = (
{
closed = 1;
nodes = (
"591 0 LINE",
"591 692 LINE",
"391 692 LINE",
"391 0 LINE"
);
},
{
closed = 1;
nodes = (
"256 0 LINE",
"256 692 LINE",
"56 692 LINE",
"56 0 LINE"
);
},
{
closed = 1;
nodes = (
"480 287 LINE",
"480 447 LINE",
"158 447 LINE",
"158 287 LINE"
);
}
);
width = 647;
}
);
unicode = 0048;
},
{
glyphname = I;
lastChange = "2018-04-19 10:55:25 +0000";
layers = (
{
anchors = (
{
name = top;
position = "{133, 685}";
}
);
layerId = "44A3F285-AC1C-4A7F-B2BD-0C498DBF5AFB";
paths = (
{
closed = 1;
nodes = (
"176 0 LINE",
"176 685 LINE",
"90 685 LINE",
"90 0 LINE"
);
}
);
width = 266;
},
{
anchors = (
{
name = top;
position = "{157, 692}";
}
);
layerId = "2F5B831B-86AF-41A9-958D-3871EE4B7007";
paths = (
{
closed = 1;
nodes = (
"256 0 LINE",
"256 692 LINE",
"56 692 LINE",
"56 0 LINE"
);
}
);
width = 312;
}
);
leftMetricsKey = H;
rightMetricsKey = H;
unicode = 0049;
},
{
glyphname = J;
lastChange = "2018-10-23 12:41:14 +0000";
layers = (
{
layerId = "44A3F285-AC1C-4A7F-B2BD-0C498DBF5AFB";
paths = (
{
closed = 1;
nodes = (
"117 -87 OFFCURVE",
"194 -23 OFFCURVE",
"194 106 CURVE SMOOTH",
"194 685 LINE",
"108 685 LINE",
"108 95 LINE SMOOTH",
"108 21 OFFCURVE",
"59 -19 OFFCURVE",
"-15 -27 CURVE",
"-9 -95 LINE"
);
}
);
width = 284;
},
{
layerId = "2F5B831B-86AF-41A9-958D-3871EE4B7007";
paths = (
{
closed = 1;
nodes = (
"152 -148 OFFCURVE",
"245 -68 OFFCURVE",
"245 88 CURVE SMOOTH",
"245 692 LINE",
"55 692 LINE",
"55 66 LINE SMOOTH",
"55 17 OFFCURVE",
"33 -21 OFFCURVE",
"-20 -31 CURVE",
"-12 -160 LINE"
);
}
);
width = 301;
}
);
rightMetricsKey = H;
unicode = 004A;
},
{
glyphname = K;
lastChange = "2018-10-23 12:42:22 +0000";
layers = (
{
layerId = "44A3F285-AC1C-4A7F-B2BD-0C498DBF5AFB";
paths = (
{
closed = 1;
nodes = (
"532 0 LINE",
"263 367 LINE",
"500 685 LINE",
"405 685 LINE",
"175 373 LINE",
"175 355 LINE",
"425 0 LINE"
);
},
{
closed = 1;
nodes = (
"176 0 LINE",
"176 685 LINE",
"90 685 LINE",
"90 0 LINE"
);
}
);
width = 527;
},
{
layerId = "2F5B831B-86AF-41A9-958D-3871EE4B7007";
paths = (
{
closed = 1;
nodes = (
"638 0 LINE",
"405 385 LINE",
"609 692 LINE",
"409 692 LINE",
"242 396 LINE",
"242 364 LINE",
"408 0 LINE"
);
},
{
closed = 1;
nodes = (
"246 0 LINE",
"246 692 LINE",
"56 692 LINE",
"56 0 LINE"
);
}
);
width = 628;
}
);
leftMetricsKey = H;
unicode = 004B;
},
{
glyphname = L;
lastChange = "2018-10-23 12:43:01 +0000";
layers = (
{
layerId = "44A3F285-AC1C-4A7F-B2BD-0C498DBF5AFB";
paths = (
{
closed = 1;
nodes = (
"176 0 LINE",
"176 685 LINE",
"90 685 LINE",
"90 0 LINE"
);
},
{
closed = 1;
nodes = (
"441 0 LINE",
"441 74 LINE",
"157 74 LINE",
"157 0 LINE"
);
}
);
width = 461;
},
{
layerId = "2F5B831B-86AF-41A9-958D-3871EE4B7007";
paths = (
{
closed = 1;
nodes = (
"256 0 LINE",
"256 692 LINE",
"56 692 LINE",
"56 0 LINE"
);
},
{
closed = 1;
nodes = (
"495 0 LINE",
"495 160 LINE",
"163 160 LINE",
"163 0 LINE"
);
}
);
width = 510;
}
);
leftMetricsKey = H;
unicode = 004C;
},
{
glyphname = M;
lastChange = "2018-10-17 13:21:08 +0000";
layers = (
{
layerId = "44A3F285-AC1C-4A7F-B2BD-0C498DBF5AFB";
paths = (
{
closed = 1;
nodes = (
"140 0 LINE",
"169 600 LINE",
"319 0 LINE",
"418 0 LINE",
"575 600 LINE",
"613 0 LINE",
"707 0 LINE",
"650 685 LINE",
"516 685 LINE",
"375 113 LINE",
"238 685 LINE",
"100 685 LINE",
"52 0 LINE"
);
}
);
width = 761;
},
{
layerId = "2F5B831B-86AF-41A9-958D-3871EE4B7007";
paths = (
{
closed = 1;
nodes = (
"189 0 LINE",
"209 505 LINE",
"280 38 LINE",
"511 38 LINE",
"580 505 LINE",
"611 0 LINE",
"818 0 LINE",
"726 692 LINE",
"471 692 LINE",
"405 215 LINE",
"328 692 LINE",
"69 692 LINE",
"5 0 LINE"
);
}
);
width = 823;
}
);
unicode = 004D;
},
{
glyphname = N;
lastChange = "2018-09-14 16:03:32 +0000";
layers = (
{
anchors = (
{
name = top;
position = "{333, 685}";
}
);
layerId = "44A3F285-AC1C-4A7F-B2BD-0C498DBF5AFB";
paths = (
{
closed = 1;
nodes = (
"176 0 LINE",
"176 409 LINE SMOOTH",
"176 499 OFFCURVE",
"172 545 OFFCURVE",
"168 585 CURVE",
"429 0 LINE",
"554 0 LINE",
"554 685 LINE",
"468 685 LINE",
"468 301 LINE SMOOTH",
"468 211 OFFCURVE",
"472 140 OFFCURVE",
"476 100 CURVE",
"210 685 LINE",
"90 685 LINE",
"90 0 LINE"
);
}
);
width = 644;
},
{
anchors = (
{
name = top;
position = "{353, 692}";
}
);
layerId = "2F5B831B-86AF-41A9-958D-3871EE4B7007";
paths = (
{
closed = 1;
nodes = (
"234 0 LINE",
"234 353 LINE SMOOTH",
"234 444 OFFCURVE",
"229 491 OFFCURVE",
"221 541 CURVE",
"355 0 LINE",
"630 0 LINE",
"630 692 LINE",
"452 692 LINE",
"452 364 LINE SMOOTH",
"452 273 OFFCURVE",
"457 211 OFFCURVE",
"465 161 CURVE",
"326 692 LINE",
"56 692 LINE",
"56 0 LINE"
);
}
);
width = 686;
}
);
leftMetricsKey = H;
rightMetricsKey = H;
unicode = 004E;
},
{
glyphname = O;
lastChange = "2018-10-23 12:39:03 +0000";
layers = (
{
anchors = (
{
name = top;
position = "{279, 685}";
}
);
layerId = "44A3F285-AC1C-4A7F-B2BD-0C498DBF5AFB";
paths = (
{
closed = 1;
nodes = (
"455 -12 OFFCURVE",
"528 123 OFFCURVE",
"528 343 CURVE SMOOTH",
"528 563 OFFCURVE",
"455 697 OFFCURVE",
"279 697 CURVE SMOOTH",
"103 697 OFFCURVE",
"40 563 OFFCURVE",
"40 343 CURVE SMOOTH",
"40 123 OFFCURVE",
"103 -12 OFFCURVE",
"279 -12 CURVE SMOOTH"
);
},
{
closed = 1;
nodes = (
"166 62 OFFCURVE",
"132 171 OFFCURVE",
"132 343 CURVE SMOOTH",
"132 515 OFFCURVE",
"166 625 OFFCURVE",
"279 625 CURVE SMOOTH",
"392 625 OFFCURVE",
"436 515 OFFCURVE",
"436 343 CURVE SMOOTH",
"436 171 OFFCURVE",
"392 62 OFFCURVE",
"279 62 CURVE SMOOTH"
);
}
);
width = 568;
},
{
anchors = (
{
name = top;
position = "{323, 692}";
}
);
layerId = "2F5B831B-86AF-41A9-958D-3871EE4B7007";
paths = (
{
closed = 1;
nodes = (
"531 -18 OFFCURVE",
"616 113 OFFCURVE",
"616 343 CURVE SMOOTH",
"616 573 OFFCURVE",
"531 710 OFFCURVE",
"323 710 CURVE SMOOTH",
"116 710 OFFCURVE",
"42 573 OFFCURVE",
"42 343 CURVE SMOOTH",
"42 113 OFFCURVE",
"116 -18 OFFCURVE",
"323 -18 CURVE SMOOTH"
);
},
{
closed = 1;
nodes = (
"259 123 OFFCURVE",
"251 203 OFFCURVE",
"251 343 CURVE SMOOTH",
"251 483 OFFCURVE",
"259 570 OFFCURVE",
"326 570 CURVE SMOOTH",
"393 570 OFFCURVE",
"407 483 OFFCURVE",
"407 343 CURVE SMOOTH",
"407 203 OFFCURVE",
"393 123 OFFCURVE",
"326 123 CURVE SMOOTH"
);
}
);
width = 658;
}
);
unicode = 004F;
},
{
glyphname = P;
lastChange = "2018-10-23 12:43:51 +0000";
layers = (
{
layerId = "44A3F285-AC1C-4A7F-B2BD-0C498DBF5AFB";
paths = (
{
closed = 1;
nodes = (
"274 287 LINE SMOOTH",
"403 287 OFFCURVE",
"472 370 OFFCURVE",
"472 489 CURVE SMOOTH",
"472 604 OFFCURVE",
"405 685 OFFCURVE",
"274 685 CURVE SMOOTH",
"123 685 LINE",
"123 617 LINE",
"255 617 LINE SMOOTH",
"351 617 OFFCURVE",
"376 549 OFFCURVE",
"376 489 CURVE SMOOTH",
"376 429 OFFCURVE",
"351 357 OFFCURVE",
"255 357 CURVE SMOOTH",
"123 357 LINE",
"123 287 LINE"
);
},
{
closed = 1;
nodes = (
"176 0 LINE",
"176 685 LINE",
"90 685 LINE",
"90 0 LINE"
);
}
);
width = 512;
},
{
layerId = "2F5B831B-86AF-41A9-958D-3871EE4B7007";
paths = (
{
closed = 1;
nodes = (
"342 254 LINE SMOOTH",
"471 254 OFFCURVE",
"550 357 OFFCURVE",
"550 476 CURVE SMOOTH",
"550 591 OFFCURVE",
"473 692 OFFCURVE",
"342 692 CURVE SMOOTH",
"141 692 LINE",
"141 552 LINE",
"274 552 LINE SMOOTH",
"314 552 OFFCURVE",
"339 520 OFFCURVE",
"339 476 CURVE SMOOTH",
"339 432 OFFCURVE",
"314 392 OFFCURVE",
"274 392 CURVE SMOOTH",
"141 392 LINE",
"141 254 LINE"
);
},
{
closed = 1;
nodes = (
"256 0 LINE",
"256 692 LINE",
"56 692 LINE",
"56 0 LINE"
);
}
);
width = 565;
}
);
leftMetricsKey = H;
unicode = 0050;
},
{
glyphname = Q;
lastChange = "2018-10-23 12:45:09 +0000";
layers = (
{
layerId = "44A3F285-AC1C-4A7F-B2BD-0C498DBF5AFB";
paths = (
{
closed = 1;
nodes = (
"601 -59 LINE",
"568 -48 OFFCURVE",
"533 -34 OFFCURVE",
"497 -16 CURVE SMOOTH",
"460 3 OFFCURVE",
"416 16 OFFCURVE",
"400 20 CURVE",
"285 -10 LINE",
"349 -10 OFFCURVE",
"372 -25 OFFCURVE",
"446 -77 CURVE SMOOTH",
"487 -106 OFFCURVE",
"523 -131 OFFCURVE",
"567 -153 CURVE"
);
},
{
closed = 1;
nodes = (
"402 20 LINE",
"490 70 OFFCURVE",
"528 184 OFFCURVE",
"528 343 CURVE SMOOTH",
"528 563 OFFCURVE",
"455 697 OFFCURVE",
"279 697 CURVE SMOOTH",
"103 697 OFFCURVE",
"40 563 OFFCURVE",
"40 343 CURVE SMOOTH",
"40 123 OFFCURVE",
"101 -10 OFFCURVE",
"286 -10 CURVE"
);
},
{
closed = 1;
nodes = (
"166 62 OFFCURVE",
"132 172 OFFCURVE",
"132 343 CURVE SMOOTH",
"132 516 OFFCURVE",
"166 625 OFFCURVE",
"279 625 CURVE SMOOTH",
"392 625 OFFCURVE",
"436 516 OFFCURVE",
"436 343 CURVE SMOOTH",
"436 172 OFFCURVE",
"392 62 OFFCURVE",
"279 62 CURVE SMOOTH"
);
}
);
width = 566;
},
{
layerId = "2F5B831B-86AF-41A9-958D-3871EE4B7007";
paths = (
{
closed = 1;
nodes = (
"692 -19 LINE",
"655 -8 OFFCURVE",
"632 -1 OFFCURVE",
"596 13 CURVE SMOOTH",
"558 28 OFFCURVE",
"542 33 OFFCURVE",
"527 34 CURVE",
"346 -18 LINE",
"414 -18 OFFCURVE",
"438 -36 OFFCURVE",
"505 -90 CURVE SMOOTH",
"560 -134 OFFCURVE",
"591 -157 OFFCURVE",
"644 -180 CURVE"
);
},
{
closed = 1;
nodes = (
"524 31 LINE",
"608 85 OFFCURVE",
"655 192 OFFCURVE",
"655 345 CURVE SMOOTH",
"655 586 OFFCURVE",
"547 710 OFFCURVE",
"344 710 CURVE SMOOTH",
"141 710 OFFCURVE",
"42 586 OFFCURVE",
"42 345 CURVE SMOOTH",
"42 106 OFFCURVE",
"142 -18 OFFCURVE",
"348 -18 CURVE"
);
},
{
closed = 1;
nodes = (
"277 121 OFFCURVE",
"257 188 OFFCURVE",
"257 343 CURVE SMOOTH",
"257 500 OFFCURVE",
"277 570 OFFCURVE",
"345 570 CURVE SMOOTH",
"411 570 OFFCURVE",
"437 500 OFFCURVE",
"437 343 CURVE SMOOTH",
"437 188 OFFCURVE",
"411 121 OFFCURVE",
"345 121 CURVE SMOOTH"
);
}
);
width = 692;
}
);
leftMetricsKey = O;
unicode = 0051;
},
{
glyphname = R;
lastChange = "2018-10-23 01:20:54 +0000";
layers = (
{
layerId = "44A3F285-AC1C-4A7F-B2BD-0C498DBF5AFB";
paths = (
{
closed = 1;
nodes = (
"304 306 LINE",
"385 316 OFFCURVE",
"473 381 OFFCURVE",
"473 500 CURVE SMOOTH",
"473 612 OFFCURVE",
"402 685 OFFCURVE",
"274 685 CURVE SMOOTH",
"147 685 LINE",
"147 617 LINE",
"255 617 LINE SMOOTH",
"348 617 OFFCURVE",
"377 557 OFFCURVE",
"377 500 CURVE SMOOTH",
"377 440 OFFCURVE",
"348 373 OFFCURVE",
"255 373 CURVE SMOOTH",
"147 373 LINE",
"147 306 LINE"
);
},
{
closed = 1;
nodes = (
"176 0 LINE",
"176 685 LINE",
"90 685 LINE",
"90 0 LINE"
);
},
{
closed = 1;
nodes = (
"513 0 LINE",
"513 5 LINE",
"305 321 LINE",
"218 316 LINE",
"407 0 LINE"
);
}
);
width = 539;
},
{
layerId = "2F5B831B-86AF-41A9-958D-3871EE4B7007";
paths = (
{
closed = 1;
nodes = (
"342 262 LINE SMOOTH",
"471 262 OFFCURVE",
"550 358 OFFCURVE",
"550 477 CURVE SMOOTH",
"550 592 OFFCURVE",
"473 692 OFFCURVE",
"342 692 CURVE SMOOTH",
"141 692 LINE",
"141 552 LINE",
"274 552 LINE SMOOTH",
"314 552 OFFCURVE",
"339 521 OFFCURVE",
"339 477 CURVE SMOOTH",
"339 433 OFFCURVE",
"314 394 OFFCURVE",
"274 394 CURVE SMOOTH",
"141 394 LINE",
"141 262 LINE"
);
},
{
closed = 1;
nodes = (
"256 0 LINE",
"256 692 LINE",
"56 692 LINE",
"56 0 LINE"
);
},
{
closed = 1;
nodes = (
"604 0 LINE",
"604 5 LINE",
"422 294 LINE",
"245 294 LINE",
"377 0 LINE"
);
}
);
width = 589;
}
);
leftMetricsKey = H;
unicode = 0052;
},
{
glyphname = S;
lastChange = "2018-10-23 12:45:59 +0000";
layers = (
{
annotations = (
{
position = "{106.069, 597.031}";
type = Minus;
}
);
layerId = "44A3F285-AC1C-4A7F-B2BD-0C498DBF5AFB";
paths = (
{
closed = 1;
nodes = (
"377 -12 OFFCURVE",
"453 76 OFFCURVE",
"453 188 CURVE SMOOTH",
"453 288 OFFCURVE",
"391 336 OFFCURVE",
"282 391 CURVE SMOOTH",
"175 445 OFFCURVE",
"144 476 OFFCURVE",
"144 528 CURVE SMOOTH",
"144 585 OFFCURVE",
"181 627 OFFCURVE",
"258 627 CURVE SMOOTH",
"302 627 OFFCURVE",
"348 613 OFFCURVE",
"390 587 CURVE",
"417 652 LINE",
"368 678 OFFCURVE",
"320 697 OFFCURVE",
"254 697 CURVE SMOOTH",
"128 697 OFFCURVE",
"53 629 OFFCURVE",
"53 528 CURVE SMOOTH",
"53 462 OFFCURVE",
"84 396 OFFCURVE",
"214 330 CURVE SMOOTH",
"318 277 OFFCURVE",
"361 249 OFFCURVE",
"361 186 CURVE SMOOTH",
"361 127 OFFCURVE",
"325 63 OFFCURVE",
"230 63 CURVE SMOOTH",
"171 63 OFFCURVE",
"119 87 OFFCURVE",
"72 130 CURVE",
"35 63 LINE",
"88 16 OFFCURVE",
"157 -12 OFFCURVE",
"236 -12 CURVE SMOOTH"
);
}
);
width = 488;
},
{
layerId = "2F5B831B-86AF-41A9-958D-3871EE4B7007";
paths = (
{
closed = 1;
nodes = (
"392 -18 OFFCURVE",
"525 48 OFFCURVE",
"525 194 CURVE SMOOTH",
"525 310 OFFCURVE",
"426 368 OFFCURVE",
"325 419 CURVE SMOOTH",
"232 466 OFFCURVE",
"225 484 OFFCURVE",
"225 507 CURVE SMOOTH",
"225 542 OFFCURVE",
"249 559 OFFCURVE",
"299 559 CURVE SMOOTH",
"343 559 OFFCURVE",
"378 547 OFFCURVE",
"425 520 CURVE",
"478 663 LINE",
"423 689 OFFCURVE",
"368 710 OFFCURVE",
"257 710 CURVE SMOOTH",
"126 710 OFFCURVE",
"22 636 OFFCURVE",
"22 507 CURVE SMOOTH",
"22 417 OFFCURVE",
"74 352 OFFCURVE",
"188 297 CURVE SMOOTH",
"286 250 OFFCURVE",
"316 234 OFFCURVE",
"316 196 CURVE SMOOTH",
"316 155 OFFCURVE",
"281 142 OFFCURVE",
"233 142 CURVE SMOOTH",
"156 142 OFFCURVE",
"95 177 OFFCURVE",
"53 211 CURVE",
"-15 69 LINE",
"53 16 OFFCURVE",
"138 -18 OFFCURVE",
"252 -18 CURVE SMOOTH"
);
}
);
width = 525;
}
);
unicode = 0053;
},
{
glyphname = T;
lastChange = "2018-10-23 12:45:54 +0000";
layers = (
{
layerId = "44A3F285-AC1C-4A7F-B2BD-0C498DBF5AFB";
paths = (
{
closed = 1;
nodes = (
"288 0 LINE",
"288 685 LINE",
"202 685 LINE",
"202 0 LINE"
);
},
{
closed = 1;
nodes = (
"470 612 LINE",
"470 685 LINE",
"20 685 LINE",
"20 612 LINE"
);
}
);
width = 490;
},
{
layerId = "2F5B831B-86AF-41A9-958D-3871EE4B7007";
paths = (
{
closed = 1;
nodes = (
"351 0 LINE",
"351 692 LINE",
"151 692 LINE",
"151 0 LINE"
);
},
{
closed = 1;
nodes = (
"490 549 LINE",
"490 692 LINE",
"12 692 LINE",
"12 549 LINE"
);
}
);
width = 502;
}
);
unicode = 0054;
},
{
glyphname = U;
lastChange = "2018-04-19 10:55:25 +0000";
layers = (
{
anchors = (
{
name = top;
position = "{306, 685}";
}
);
layerId = "44A3F285-AC1C-4A7F-B2BD-0C498DBF5AFB";
paths = (
{
closed = 1;
nodes = (
"470 -12 OFFCURVE",
"524 83 OFFCURVE",
"524 247 CURVE SMOOTH",
"524 685 LINE",
"439 685 LINE",
"439 262 LINE SMOOTH",
"439 135 OFFCURVE",
"403 62 OFFCURVE",
"305 62 CURVE SMOOTH",
"207 62 OFFCURVE",
"173 135 OFFCURVE",
"173 257 CURVE SMOOTH",
"173 685 LINE",
"87 685 LINE",
"87 247 LINE SMOOTH",
"87 83 OFFCURVE",
"145 -12 OFFCURVE",
"306 -12 CURVE SMOOTH"
);
}
);
width = 611;
},
{
anchors = (
{
name = top;
position = "{294, 692}";
}
);
layerId = "2F5B831B-86AF-41A9-958D-3871EE4B7007";
paths = (
{
closed = 1;
nodes = (
"475 -12 OFFCURVE",
"561 73 OFFCURVE",
"561 247 CURVE SMOOTH",
"561 692 LINE",
"361 692 LINE",
"361 321 LINE SMOOTH",
"361 194 OFFCURVE",
"359 142 OFFCURVE",
"293 142 CURVE SMOOTH",
"227 142 OFFCURVE",
"225 194 OFFCURVE",
"225 321 CURVE SMOOTH",
"225 692 LINE",
"24 692 LINE",
"24 247 LINE SMOOTH",
"24 73 OFFCURVE",
"116 -12 OFFCURVE",
"294 -12 CURVE SMOOTH"
);
}
);
width = 600;
}
);
unicode = 0055;
},
{
glyphname = V;
lastChange = "2018-10-23 12:46:35 +0000";
layers = (
{
layerId = "44A3F285-AC1C-4A7F-B2BD-0C498DBF5AFB";
paths = (
{
closed = 1;
nodes = (
"317 0 LINE",
"523 685 LINE",
"430 685 LINE",
"270 101 LINE",
"117 685 LINE",
"18 685 LINE",
"219 0 LINE"
);
}
);
width = 541;
},
{
layerId = "2F5B831B-86AF-41A9-958D-3871EE4B7007";
paths = (
{
closed = 1;
nodes = (
"436 0 LINE",
"627 692 LINE",
"431 692 LINE",
"324 154 LINE",
"226 692 LINE",
"8 692 LINE",
"208 0 LINE"
);
}
);
width = 635;
}
);
unicode = 0056;
},
{
glyphname = W;
lastChange = "2018-10-23 12:46:47 +0000";
layers = (
{
layerId = "44A3F285-AC1C-4A7F-B2BD-0C498DBF5AFB";
paths = (
{
closed = 1;
nodes = (
"265 0 LINE",
"393 579 LINE",
"517 0 LINE",
"629 0 LINE",
"771 685 LINE",
"678 685 LINE",
"578 99 LINE",
"453 685 LINE",
"344 685 LINE",
"216 98 LINE",
"119 685 LINE",
"20 685 LINE",
"159 0 LINE"
);
}
);
width = 789;
},
{
layerId = "2F5B831B-86AF-41A9-958D-3871EE4B7007";
paths = (
{
closed = 1;
nodes = (
"381 0 LINE",
"440 512 LINE",
"500 0 LINE",
"758 0 LINE",
"868 692 LINE",
"672 692 LINE",
"623 188 LINE",
"569 692 LINE",
"331 692 LINE",
"270 188 LINE",
"222 692 LINE",
"8 692 LINE",
"123 0 LINE"
);
}
);
width = 876;
}
);
unicode = 0057;
},
{
glyphname = X;
lastChange = "2018-10-23 12:47:07 +0000";
layers = (
{
annotations = (
{
position = "{237.531, 332.563}";
type = Plus;
},
{
position = "{236.682, 417.202}";
type = Plus;
},
{
position = "{306.864, 423.012}";
type = Plus;
},
{
position = "{301.145, 335.123}";
type = Plus;
}
);
layerId = "44A3F285-AC1C-4A7F-B2BD-0C498DBF5AFB";
paths = (
{
closed = 1;
nodes = (
"530 0 LINE",
"329 358 LINE",
"280 423 LINE",
"137 685 LINE",
"36 685 LINE",
"228 358 LINE",
"279 292 LINE",
"429 0 LINE"
);
},
{
closed = 1;
nodes = (
"122 0 LINE",
"279 292 LINE",
"329 358 LINE",
"519 685 LINE",
"422 685 LINE",
"280 423 LINE",
"228 358 LINE",
"25 0 LINE"
);
}
);
width = 555;
},
{
layerId = "2F5B831B-86AF-41A9-958D-3871EE4B7007";
paths = (
{
closed = 1;
nodes = (
"607 0 LINE",
"418 372 LINE",
"306 487 LINE",
"234 692 LINE",
"16 692 LINE",
"190 372 LINE",
"304 237 LINE",
"388 0 LINE"
);
},
{
closed = 1;
nodes = (
"205 0 LINE",
"304 237 LINE",
"418 372 LINE",
"597 692 LINE",
"400 692 LINE",
"306 487 LINE",
"190 372 LINE",
"8 0 LINE"
);
}
);
width = 615;
}
);
unicode = 0058;
},
{
glyphname = Y;
lastChange = "2018-10-23 12:47:17 +0000";
layers = (
{
layerId = "44A3F285-AC1C-4A7F-B2BD-0C498DBF5AFB";
paths = (
{
closed = 1;
nodes = (
"302 0 LINE",
"302 312 LINE",
"501 685 LINE",
"408 685 LINE",
"262 384 LINE",
"116 685 LINE",
"17 685 LINE",
"216 312 LINE",
"216 0 LINE"
);
}
);
width = 518;
},
{
layerId = "2F5B831B-86AF-41A9-958D-3871EE4B7007";
paths = (
{
closed = 1;
nodes = (
"401 0 LINE",
"401 286 LINE",
"595 692 LINE",
"399 692 LINE",
"306 435 LINE",
"218 692 LINE",
"0 692 LINE",
"201 286 LINE",
"201 0 LINE"
);
}
);
width = 595;
}
);
unicode = 0059;
},
{
glyphname = Z;
lastChange = "2018-04-19 10:52:48 +0000";
layers = (
{
layerId = "44A3F285-AC1C-4A7F-B2BD-0C498DBF5AFB";
paths = (
{
closed = 1;
nodes = (
"491 0 LINE",
"478 76 LINE",
"139 76 LINE",
"481 628 LINE",
"481 685 LINE",
"58 685 LINE",
"58 610 LINE",
"372 610 LINE",
"27 58 LINE",
"27 0 LINE"
);
}
);
width = 523;
},
{
layerId = "2F5B831B-86AF-41A9-958D-3871EE4B7007";
paths = (
{
closed = 1;
nodes = (
"507 0 LINE",
"493 150 LINE",
"226 150 LINE",
"491 559 LINE",
"491 692 LINE",
"27 692 LINE",
"27 541 LINE",
"274 541 LINE",
"5 132 LINE",
"5 0 LINE"
);
}
);
width = 512;
}
);
unicode = 005A;
},
{
export = 0;
glyphname = Q.alt;
lastChange = "2018-10-23 12:39:08 +0000";
layers = (
{
layerId = "44A3F285-AC1C-4A7F-B2BD-0C498DBF5AFB";
paths = (
{
closed = 1;
nodes = (
"455 -12 OFFCURVE",
"528 123 OFFCURVE",
"528 343 CURVE SMOOTH",
"528 563 OFFCURVE",
"455 697 OFFCURVE",
"279 697 CURVE SMOOTH",
"103 697 OFFCURVE",
"40 563 OFFCURVE",
"40 343 CURVE SMOOTH",
"40 123 OFFCURVE",
"103 -12 OFFCURVE",
"279 -12 CURVE SMOOTH"
);
},
{
closed = 1;
nodes = (
"166 62 OFFCURVE",
"132 171 OFFCURVE",
"132 343 CURVE SMOOTH",
"132 515 OFFCURVE",
"166 625 OFFCURVE",
"279 625 CURVE SMOOTH",
"392 625 OFFCURVE",
"436 515 OFFCURVE",
"436 343 CURVE SMOOTH",
"436 171 OFFCURVE",
"392 62 OFFCURVE",
"279 62 CURVE SMOOTH"
);
},
{
closed = 1;
nodes = (
"455 -63 LINE",
"511 -21 LINE",
"327 217 LINE",
"271 175 LINE"
);
}
);
width = 568;
},
{
layerId = "2F5B831B-86AF-41A9-958D-3871EE4B7007";
paths = (
{
closed = 1;
nodes = (
"692 -19 LINE",
"655 -8 OFFCURVE",
"632 -1 OFFCURVE",
"596 13 CURVE SMOOTH",
"558 28 OFFCURVE",
"542 33 OFFCURVE",
"527 34 CURVE",
"346 -18 LINE",
"414 -18 OFFCURVE",
"438 -36 OFFCURVE",
"505 -90 CURVE SMOOTH",
"560 -134 OFFCURVE",
"591 -157 OFFCURVE",
"644 -180 CURVE"
);
},
{
closed = 1;
nodes = (
"524 31 LINE",
"608 85 OFFCURVE",
"655 192 OFFCURVE",
"655 345 CURVE SMOOTH",
"655 586 OFFCURVE",
"547 710 OFFCURVE",
"344 710 CURVE SMOOTH",
"141 710 OFFCURVE",
"42 586 OFFCURVE",
"42 345 CURVE SMOOTH",
"42 106 OFFCURVE",
"142 -18 OFFCURVE",
"348 -18 CURVE"
);
},
{
closed = 1;
nodes = (
"277 121 OFFCURVE",
"257 188 OFFCURVE",
"257 343 CURVE SMOOTH",
"257 500 OFFCURVE",
"277 570 OFFCURVE",
"345 570 CURVE SMOOTH",
"411 570 OFFCURVE",
"437 500 OFFCURVE",
"437 343 CURVE SMOOTH",
"437 188 OFFCURVE",
"411 121 OFFCURVE",
"345 121 CURVE SMOOTH"
);
}
);
width = 692;
}
);
leftMetricsKey = O;
rightMetricsKey = O;
},
{
glyphname = a;
lastChange = "2018-09-17 21:02:20 +0000";
layers = (
{
anchors = (
{
name = top;
position = "{225, 500}";
}
);
annotations = (
{
position = "{160.562, 36.944}";
type = Minus;
}
);
backgroundImage = {
crop = "{{0, 0}, {579, 721}}";
imagePath = "../../../UFSC/PCC/Esboços/a.jpg";
transform = "{0.92957, 0, 0, 0.92957, -18, -93}";
};
layerId = "44A3F285-AC1C-4A7F-B2BD-0C498DBF5AFB";
paths = (
{
closed = 1;
nodes = (
"431 -12 OFFCURVE",
"452 -6 OFFCURVE",
"472 5 CURVE",
"461 66 LINE",
"451 61 OFFCURVE",
"441 58 OFFCURVE",
"429 58 CURVE SMOOTH",
"408 58 OFFCURVE",
"400 67 OFFCURVE",
"400 91 CURVE SMOOTH",
"400 351 LINE",
"400 453 OFFCURVE",
"340 512 OFFCURVE",
"222 512 CURVE",
"164 512 OFFCURVE",
"121 498 OFFCURVE",
"70 469 CURVE",
"97 413 LINE",
"138 437 OFFCURVE",
"172 445 OFFCURVE",
"206 445 CURVE SMOOTH",
"276 445 OFFCURVE",
"314 410 OFFCURVE",
"314 359 CURVE",
"314 147 LINE",
"318 99 LINE",
"318 35 OFFCURVE",
"336 -12 OFFCURVE",
"406 -12 CURVE SMOOTH"
);
},
{
closed = 1;
nodes = (
"274 -12 OFFCURVE",
"349 51 OFFCURVE",
"349 175 CURVE",
"314 203 LINE",
"314 103 OFFCURVE",
"268 59 OFFCURVE",
"211 59 CURVE SMOOTH",
"161 59 OFFCURVE",
"139 92 OFFCURVE",
"139 136 CURVE SMOOTH",
"139 195 OFFCURVE",
"180 231 OFFCURVE",
"273 247 CURVE SMOOTH",
"319 255 LINE",
"319 312 LINE",
"229 297 LINE SMOOTH",
"130 280 OFFCURVE",
"47 237 OFFCURVE",
"47 136 CURVE SMOOTH",
"47 51 OFFCURVE",
"107 -12 OFFCURVE",
"191 -12 CURVE SMOOTH"
);
}
);
width = 499;
},
{
anchors = (
{
name = top;
position = "{236, 506}";
}
);
annotations = (
{
position = "{123.65, 103.185}";
type = Minus;
},
{
position = "{123.65, 74.853}";
type = Minus;
}
);
layerId = "2F5B831B-86AF-41A9-958D-3871EE4B7007";
paths = (
{
closed = 1;
nodes = (
"449 -18 OFFCURVE",
"481 -9 OFFCURVE",
"514 6 CURVE",
"494 104 LINE",
"487 99 OFFCURVE",
"482 97 OFFCURVE",
"476 97 CURVE SMOOTH",
"465 97 OFFCURVE",
"458 103 OFFCURVE",
"458 117 CURVE SMOOTH",
"458 329 LINE SMOOTH",
"458 466 OFFCURVE",
"364 524 OFFCURVE",
"224 524 CURVE",
"144 524 OFFCURVE",
"86 504 OFFCURVE",
"31 470 CURVE",
"80 358 LINE",
"109 379 OFFCURVE",
"149 399 OFFCURVE",
"197 399 CURVE SMOOTH",
"248 399 OFFCURVE",
"276 377 OFFCURVE",
"276 330 CURVE SMOOTH",
"276 146 LINE",
"292 96 LINE",
"292 16 OFFCURVE",
"339 -18 OFFCURVE",
"411 -18 CURVE SMOOTH"
);
},
{
closed = 1;
nodes = (
"239 -18 OFFCURVE",
"307 32 OFFCURVE",
"307 154 CURVE",
"276 212 LINE",
"276 168 OFFCURVE",
"247 135 OFFCURVE",
"214 135 CURVE SMOOTH",
"191 135 OFFCURVE",
"170 151 OFFCURVE",
"170 178 CURVE SMOOTH",
"170 206 OFFCURVE",
"192 227 OFFCURVE",
"230 233 CURVE SMOOTH",
"285 242 LINE",
"285 343 LINE",
"180 326 LINE SMOOTH",
"76 309 OFFCURVE",
"8 247 OFFCURVE",
"8 147 CURVE SMOOTH",
"8 58 OFFCURVE",
"63 -18 OFFCURVE",
"160 -18 CURVE SMOOTH"
);
}
);
width = 514;
},
{
anchors = (
{
name = bottom;
position = "{252, 0}";
},
{
name = ogonek;
position = "{414, 0}";
},
{
name = top;
position = "{225, 486}";
}
);
annotations = (
{
position = "{160.562, 36.944}";
type = Minus;
}
);
associatedMasterId = "44A3F285-AC1C-4A7F-B2BD-0C498DBF5AFB";
layerId = "213C8436-5351-40B9-B936-9C9946CFA96B";
name = "Mar 19 18, 23:48";
paths = (
{
closed = 1;
nodes = (
"431 -12 OFFCURVE",
"452 -6 OFFCURVE",
"472 5 CURVE",
"461 66 LINE",
"451 61 OFFCURVE",
"441 58 OFFCURVE",
"429 58 CURVE SMOOTH",
"408 58 OFFCURVE",
"400 67 OFFCURVE",
"400 91 CURVE SMOOTH",
"400 351 LINE",
"400 453 OFFCURVE",
"340 512 OFFCURVE",
"222 512 CURVE",
"164 512 OFFCURVE",
"121 498 OFFCURVE",
"70 469 CURVE",
"97 413 LINE",
"138 437 OFFCURVE",
"172 445 OFFCURVE",
"206 445 CURVE SMOOTH",
"276 445 OFFCURVE",
"310 410 OFFCURVE",
"310 359 CURVE",
"310 147 LINE",
"314 99 LINE",
"314 35 OFFCURVE",
"335 -12 OFFCURVE",
"406 -12 CURVE SMOOTH"
);
},
{
closed = 1;
nodes = (
"274 -12 OFFCURVE",
"345 51 OFFCURVE",
"345 175 CURVE",
"310 203 LINE",
"310 103 OFFCURVE",
"268 59 OFFCURVE",
"211 59 CURVE SMOOTH",
"161 59 OFFCURVE",
"139 92 OFFCURVE",
"139 136 CURVE SMOOTH",
"139 195 OFFCURVE",
"180 231 OFFCURVE",
"273 247 CURVE SMOOTH",
"319 255 LINE",
"319 312 LINE",
"229 297 LINE SMOOTH",
"130 280 OFFCURVE",
"47 237 OFFCURVE",
"47 136 CURVE SMOOTH",
"47 51 OFFCURVE",
"107 -12 OFFCURVE",
"191 -12 CURVE SMOOTH"
);
}
);
width = 499;
}
);
unicode = 0061;
},
{
glyphname = b;
lastChange = "2018-04-19 10:52:48 +0000";
layers = (
{
layerId = "44A3F285-AC1C-4A7F-B2BD-0C498DBF5AFB";
paths = (
{
closed = 1;
nodes = (
"403 -10 OFFCURVE",
"484 77 OFFCURVE",
"484 251 CURVE SMOOTH",
"484 425 OFFCURVE",
"408 512 OFFCURVE",
"294 512 CURVE SMOOTH",
"179 512 OFFCURVE",
"137 399 OFFCURVE",
"137 292 CURVE",
"173 257 LINE",
"173 380 OFFCURVE",
"207 446 OFFCURVE",
"281 446 CURVE SMOOTH",
"361 446 OFFCURVE",
"390 369 OFFCURVE",
"390 251 CURVE SMOOTH",
"390 134 OFFCURVE",
"361 56 OFFCURVE",
"284 56 CURVE SMOOTH",
"207 56 OFFCURVE",
"173 133 OFFCURVE",
"173 262 CURVE",
"137 220 LINE",
"137 109 OFFCURVE",
"177 -10 OFFCURVE",
"296 -10 CURVE SMOOTH"
);
},
{
closed = 1;
nodes = (
"164 0 LINE",
"169 30 OFFCURVE",
"170 57 OFFCURVE",
"170 89 CURVE",
"173 108 LINE",
"173 736 LINE",
"87 724 LINE",
"87 90 LINE",
"87 60 OFFCURVE",
"85 31 OFFCURVE",
"80 0 CURVE"
);
}
);
width = 532;
},
{
layerId = "2F5B831B-86AF-41A9-958D-3871EE4B7007";
paths = (
{
closed = 1;
nodes = (
"477 -18 OFFCURVE",
"552 77 OFFCURVE",
"552 251 CURVE SMOOTH",
"552 425 OFFCURVE",
"482 524 OFFCURVE",
"368 524 CURVE SMOOTH",
"244 524 OFFCURVE",
"211 402 OFFCURVE",
"211 292 CURVE",
"247 257 LINE",
"247 337 OFFCURVE",
"268 356 OFFCURVE",
"297 356 CURVE SMOOTH",
"321 356 OFFCURVE",
"349 331 OFFCURVE",
"349 251 CURVE SMOOTH",
"349 171 OFFCURVE",
"321 146 OFFCURVE",
"297 146 CURVE SMOOTH",
"268 146 OFFCURVE",
"247 165 OFFCURVE",
"247 245 CURVE",
"211 210 LINE",
"211 100 OFFCURVE",
"254 -18 OFFCURVE",
"373 -18 CURVE SMOOTH"
);
},
{
closed = 1;
nodes = (
"237 0 LINE",
"242 30 OFFCURVE",
"243 57 OFFCURVE",
"243 89 CURVE",
"247 107 LINE",
"247 734 LINE",
"57 722 LINE",
"57 90 LINE",
"57 60 OFFCURVE",
"55 31 OFFCURVE",
"50 0 CURVE"
);
}
);
width = 582;
}
);
leftMetricsKey = n;
rightMetricsKey = o;
unicode = 0062;
},
{
glyphname = c;
lastChange = "2018-04-19 10:55:25 +0000";
layers = (
{
anchors = (
{
name = bottom;
position = "{236, 0}";
}
);
background = {
paths = (
{
closed = 0;
nodes = (
"369 24 LINE"
);
},
{
closed = 0;
nodes = (
"318 77 LINE"
);
}
);
};
layerId = "44A3F285-AC1C-4A7F-B2BD-0C498DBF5AFB";
paths = (
{
closed = 1;
nodes = (
"303 -10 OFFCURVE",
"353 7 OFFCURVE",
"386 31 CURVE",
"358 87 LINE",
"323 65 OFFCURVE",
"309 57 OFFCURVE",
"257 57 CURVE SMOOTH",
"181 57 OFFCURVE",
"140 124 OFFCURVE",
"140 251 CURVE SMOOTH",
"140 379 OFFCURVE",
"181 445 OFFCURVE",
"257 445 CURVE SMOOTH",
"303 445 OFFCURVE",
"324 436 OFFCURVE",
"358 413 CURVE",
"386 469 LINE",
"353 492 OFFCURVE",
"306 512 OFFCURVE",
"257 512 CURVE SMOOTH",
"129 512 OFFCURVE",
"48 425 OFFCURVE",
"48 251 CURVE SMOOTH",
"48 77 OFFCURVE",
"129 -10 OFFCURVE",
"257 -10 CURVE SMOOTH"
);
}
);
width = 423;
},
{
anchors = (
{
name = bottom;
position = "{270, 0}";
}
);
layerId = "2F5B831B-86AF-41A9-958D-3871EE4B7007";
paths = (
{
closed = 1;
nodes = (
"350 -18 OFFCURVE",
"404 6 OFFCURVE",
"450 33 CURVE",
"405 140 LINE",
"376 117 OFFCURVE",
"347 111 OFFCURVE",
"324 111 CURVE SMOOTH",
"264 111 OFFCURVE",
"232 152 OFFCURVE",
"232 252 CURVE SMOOTH",
"232 365 OFFCURVE",
"264 401 OFFCURVE",
"320 401 CURVE SMOOTH",
"345 401 OFFCURVE",
"373 394 OFFCURVE",
"399 371 CURVE",
"444 472 LINE",
"403 498 OFFCURVE",
"351 524 OFFCURVE",
"281 524 CURVE SMOOTH",
"145 524 OFFCURVE",
"30 448 OFFCURVE",
"30 252 CURVE SMOOTH",
"30 57 OFFCURVE",
"145 -18 OFFCURVE",
"281 -18 CURVE SMOOTH"
);
}
);
width = 458;
}
);
leftMetricsKey = o;
unicode = 0063;
},
{
glyphname = d;
lastChange = "2018-04-19 10:52:48 +0000";
layers = (
{
layerId = "44A3F285-AC1C-4A7F-B2BD-0C498DBF5AFB";
paths = (
{
closed = 1;
nodes = (
"357 -10 OFFCURVE",
"399 104 OFFCURVE",
"399 210 CURVE",
"363 245 LINE",
"363 122 OFFCURVE",
"329 56 OFFCURVE",
"255 56 CURVE SMOOTH",
"175 56 OFFCURVE",
"144 134 OFFCURVE",
"144 251 CURVE SMOOTH",
"144 369 OFFCURVE",
"175 446 OFFCURVE",
"255 446 CURVE SMOOTH",
"329 446 OFFCURVE",
"363 380 OFFCURVE",
"363 257 CURVE",
"399 292 LINE",
"399 399 OFFCURVE",
"357 512 OFFCURVE",
"242 512 CURVE SMOOTH",
"128 512 OFFCURVE",
"52 425 OFFCURVE",
"52 251 CURVE SMOOTH",
"52 77 OFFCURVE",
"128 -10 OFFCURVE",
"232 -10 CURVE SMOOTH"
);
},
{
closed = 1;
nodes = (
"456 0 LINE",
"451 31 OFFCURVE",
"449 60 OFFCURVE",
"449 90 CURVE",
"449 736 LINE",
"363 724 LINE",
"363 107 LINE",
"367 89 LINE",
"367 57 OFFCURVE",
"368 30 OFFCURVE",
"373 0 CURVE"
);
}
);
width = 536;
},
{
layerId = "2F5B831B-86AF-41A9-958D-3871EE4B7007";
paths = (
{
closed = 1;
nodes = (
"331 -18 OFFCURVE",
"367 100 OFFCURVE",
"367 210 CURVE",
"333 250 LINE",
"333 170 OFFCURVE",
"303 147 OFFCURVE",
"279 147 CURVE SMOOTH",
"250 147 OFFCURVE",
"230 173 OFFCURVE",
"230 253 CURVE SMOOTH",
"230 333 OFFCURVE",
"250 359 OFFCURVE",
"279 359 CURVE SMOOTH",
"303 359 OFFCURVE",
"333 336 OFFCURVE",
"333 256 CURVE",
"367 296 LINE",
"367 407 OFFCURVE",
"336 524 OFFCURVE",
"212 524 CURVE SMOOTH",
"107 524 OFFCURVE",
"27 434 OFFCURVE",
"27 253 CURVE SMOOTH",
"27 72 OFFCURVE",
"107 -18 OFFCURVE",
"212 -18 CURVE SMOOTH"
);
},
{
closed = 1;
nodes = (
"530 0 LINE",
"525 31 OFFCURVE",
"523 60 OFFCURVE",
"523 90 CURVE",
"523 734 LINE",
"333 722 LINE",
"333 107 LINE",
"337 89 LINE",
"337 57 OFFCURVE",
"338 30 OFFCURVE",
"343 0 CURVE"
);
}
);
width = 565;
}
);
unicode = 0064;
},
{
glyphname = e;
lastChange = "2018-04-19 10:55:25 +0000";
layers = (
{
anchors = (
{
name = top;
position = "{253, 500}";
}
);
layerId = "44A3F285-AC1C-4A7F-B2BD-0C498DBF5AFB";
paths = (
{
closed = 1;
nodes = (
"329 -10 OFFCURVE",
"397 7 OFFCURVE",
"430 31 CURVE",
"403 88 LINE",
"369 70 OFFCURVE",
"320 58 OFFCURVE",
"281 58 CURVE SMOOTH",
"191 58 OFFCURVE",
"140 124 OFFCURVE",
"139 251 CURVE",
"139 268 LINE SMOOTH",
"139 384 OFFCURVE",
"175 445 OFFCURVE",
"250 445 CURVE SMOOTH",
"331 445 OFFCURVE",
"352 376 OFFCURVE",
"352 290 CURVE",
"125 290 LINE",
"125 230 LINE",
"434 230 LINE",
"435 246 OFFCURVE",
"436 259 OFFCURVE",
"436 280 CURVE SMOOTH",
"436 446 OFFCURVE",
"368 512 OFFCURVE",
"254 512 CURVE SMOOTH",
"123 512 OFFCURVE",
"48 425 OFFCURVE",
"48 251 CURVE SMOOTH",
"48 77 OFFCURVE",
"145 -10 OFFCURVE",
"272 -10 CURVE SMOOTH"
);
}
);
width = 493;
},
{
anchors = (
{
name = top;
position = "{273, 506}";
}
);
layerId = "2F5B831B-86AF-41A9-958D-3871EE4B7007";
paths = (
{
closed = 1;
nodes = (
"365 -18 OFFCURVE",
"435 3 OFFCURVE",
"485 34 CURVE",
"443 144 LINE",
"407 123 OFFCURVE",
"374 110 OFFCURVE",
"326 110 CURVE SMOOTH",
"247 110 OFFCURVE",
"222 145 OFFCURVE",
"222 243 CURVE SMOOTH",
"222 278 LINE SMOOTH",
"223 375 OFFCURVE",
"234 403 OFFCURVE",
"268 403 CURVE SMOOTH",
"305 403 OFFCURVE",
"312 366 OFFCURVE",
"312 313 CURVE",
"132 313 LINE",
"132 202 LINE",
"496 202 LINE",
"497 219 OFFCURVE",
"498 232 OFFCURVE",
"498 250 CURVE SMOOTH",
"498 439 OFFCURVE",
"406 524 OFFCURVE",
"277 524 CURVE SMOOTH",
"131 524 OFFCURVE",
"30 439 OFFCURVE",
"30 253 CURVE SMOOTH",
"30 62 OFFCURVE",
"143 -18 OFFCURVE",
"291 -18 CURVE SMOOTH"
);
}
);
width = 514;
}
);
leftMetricsKey = o;
unicode = 0065;
},
{
glyphname = f;
lastChange = "2018-04-19 10:52:48 +0000";
layers = (
{
layerId = "44A3F285-AC1C-4A7F-B2BD-0C498DBF5AFB";
paths = (
{
closed = 1;
nodes = (
"199 0 LINE",
"199 462 LINE",
"198 482 LINE",
"198 556 LINE",
"198 627 OFFCURVE",
"210 672 OFFCURVE",
"273 672 CURVE SMOOTH",
"301 672 OFFCURVE",
"328 663 OFFCURVE",
"358 641 CURVE",
"384 694 LINE",
"351 720 OFFCURVE",
"319 736 OFFCURVE",
"267 736 CURVE SMOOTH",
"147 736 OFFCURVE",
"113 651 OFFCURVE",
"113 551 CURVE",
"113 0 LINE"
);
},
{
closed = 1;
nodes = (
"329 439 LINE",
"329 500 LINE",
"32 500 LINE",
"32 439 LINE"
);
}
);
width = 350;
},
{
layerId = "2F5B831B-86AF-41A9-958D-3871EE4B7007";
paths = (
{
closed = 1;
nodes = (
"254 0 LINE",
"254 413 LINE",
"252 441 LINE",
"252 528 LINE SMOOTH",
"252 579 OFFCURVE",
"266 603 OFFCURVE",
"306 603 CURVE SMOOTH",
"326 603 OFFCURVE",
"346 597 OFFCURVE",
"365 581 CURVE",
"404 694 LINE",
"371 717 OFFCURVE",
"320 736 OFFCURVE",
"259 736 CURVE SMOOTH",
"127 736 OFFCURVE",
"64 649 OFFCURVE",
"64 521 CURVE SMOOTH",
"64 0 LINE"
);
},
{
closed = 1;
nodes = (
"352 396 LINE",
"352 506 LINE",
"15 506 LINE",
"15 396 LINE"
);
}
);
width = 364;
}
);
unicode = 0066;
},
{
glyphname = g;
lastChange = "2018-09-14 01:57:32 +0000";
layers = (
{
annotations = (
{
position = "{228.207, -178.689}";
type = Plus;
},
{
position = "{421.051, -45.984}";
type = Plus;
},
{
position = "{234.897, 54.516}";
type = Plus;
}
);
layerId = "44A3F285-AC1C-4A7F-B2BD-0C498DBF5AFB";
paths = (
{
closed = 1;
nodes = (
"406 -216 OFFCURVE",
"468 -124 OFFCURVE",
"468 -36 CURVE SMOOTH",
"468 47 OFFCURVE",
"415 98 OFFCURVE",
"313 98 CURVE SMOOTH",
"219 98 LINE SMOOTH",
"178 98 OFFCURVE",
"159 116 OFFCURVE",
"159 136 CURVE SMOOTH",
"159 158 OFFCURVE",
"182 173 OFFCURVE",
"234 173 CURVE",
"167 200 LINE",
"116 193 OFFCURVE",
"79 167 OFFCURVE",
"79 121 CURVE SMOOTH",
"79 69 OFFCURVE",
"124 30 OFFCURVE",
"191 30 CURVE SMOOTH",
"293 30 LINE SMOOTH",
"359 30 OFFCURVE",
"386 0 OFFCURVE",
"386 -45 CURVE SMOOTH",
"386 -99 OFFCURVE",
"346 -152 OFFCURVE",
"251 -152 CURVE SMOOTH",
"162 -152 OFFCURVE",
"125 -108 OFFCURVE",
"125 -56 CURVE SMOOTH",
"125 -10 OFFCURVE",
"154 30 OFFCURVE",
"214 30 CURVE",
"140 50 LINE",
"98 42 OFFCURVE",
"42 2 OFFCURVE",
"42 -64 CURVE SMOOTH",
"42 -140 OFFCURVE",
"100 -216 OFFCURVE",
"245 -216 CURVE SMOOTH"
);
},
{
closed = 1;
nodes = (
"349 172 OFFCURVE",
"432 226 OFFCURVE",
"432 342 CURVE SMOOTH",
"432 395 OFFCURVE",
"412 428 OFFCURVE",
"383 457 CURVE",
"341 490 LINE",
"318 502 OFFCURVE",
"292 512 OFFCURVE",
"254 512 CURVE SMOOTH",
"159 512 OFFCURVE",
"74 465 OFFCURVE",
"74 345 CURVE SMOOTH",
"74 226 OFFCURVE",
"159 172 OFFCURVE",
"254 172 CURVE SMOOTH"
);
},
{
closed = 1;
nodes = (
"199 229 OFFCURVE",
"162 267 OFFCURVE",
"162 342 CURVE SMOOTH",
"162 416 OFFCURVE",
"199 457 OFFCURVE",
"254 457 CURVE SMOOTH",
"309 457 OFFCURVE",
"345 416 OFFCURVE",
"345 342 CURVE SMOOTH",
"345 267 OFFCURVE",
"309 229 OFFCURVE",
"254 229 CURVE SMOOTH"
);
},
{
closed = 1;
nodes = (
"412 455 OFFCURVE",
"477 470 OFFCURVE",
"508 485 CURVE",
"477 558 LINE",
"439 535 OFFCURVE",
"387 507 OFFCURVE",
"339 490 CURVE",
"375 452 LINE"
);
}
);
width = 511;
},
{
layerId = "2F5B831B-86AF-41A9-958D-3871EE4B7007";
paths = (
{
closed = 1;
nodes = (
"429 -228 OFFCURVE",
"490 -130 OFFCURVE",
"490 -23 CURVE SMOOTH",
"490 57 OFFCURVE",
"433 137 OFFCURVE",
"328 137 CURVE SMOOTH",
"222 137 LINE SMOOTH",
"192 137 OFFCURVE",
"181 142 OFFCURVE",
"181 154 CURVE SMOOTH",
"181 168 OFFCURVE",
"194 174 OFFCURVE",
"222 174 CURVE",
"99 213 LINE",
"53 190 OFFCURVE",
"25 154 OFFCURVE",
"25 102 CURVE SMOOTH",
"25 21 OFFCURVE",
"90 -14 OFFCURVE",
"177 -14 CURVE SMOOTH",
"271 -14 LINE SMOOTH",
"304 -14 OFFCURVE",
"319 -25 OFFCURVE",
"319 -43 CURVE SMOOTH",
"319 -67 OFFCURVE",
"293 -83 OFFCURVE",
"236 -83 CURVE SMOOTH",
"174 -83 OFFCURVE",
"152 -67 OFFCURVE",
"152 -44 CURVE SMOOTH",
"152 -28 OFFCURVE",
"162 -18 OFFCURVE",
"180 -13 CURVE",
"62 24 LINE",
"40 11 OFFCURVE",
"0 -23 OFFCURVE",
"0 -86 CURVE SMOOTH",
"0 -181 OFFCURVE",
"86 -228 OFFCURVE",
"235 -228 CURVE SMOOTH"
);
},
{
closed = 1;
nodes = (
"367 173 OFFCURVE",
"444 227 OFFCURVE",
"444 346 CURVE SMOOTH",
"444 409 OFFCURVE",
"416 442 OFFCURVE",
"384 462 CURVE",
"330 505 LINE",
"310 515 OFFCURVE",
"282 524 OFFCURVE",
"240 524 CURVE SMOOTH",
"126 524 OFFCURVE",
"38 474 OFFCURVE",
"38 350 CURVE SMOOTH",
"38 225 OFFCURVE",
"126 173 OFFCURVE",
"247 173 CURVE SMOOTH"
);
},
{
closed = 1;
nodes = (
"220 277 OFFCURVE",
"210 302 OFFCURVE",
"210 353 CURVE SMOOTH",
"210 400 OFFCURVE",
"220 426 OFFCURVE",
"246 426 CURVE SMOOTH",
"273 426 OFFCURVE",
"282 400 OFFCURVE",
"282 353 CURVE SMOOTH",
"282 302 OFFCURVE",
"273 277 OFFCURVE",
"246 277 CURVE SMOOTH"
);
},
{
closed = 1;
nodes = (
"419 459 OFFCURVE",
"468 471 OFFCURVE",
"502 482 CURVE",
"460 583 LINE",
"415 549 OFFCURVE",
"381 525 OFFCURVE",
"317 506 CURVE",
"373 455 LINE"
);
}
);
width = 490;
}
);
unicode = 0067;
},
{
glyphname = h;
lastChange = "2018-04-19 10:52:48 +0000";
layers = (
{
layerId = "44A3F285-AC1C-4A7F-B2BD-0C498DBF5AFB";
paths = (
{
closed = 1;
nodes = (
"457 0 LINE",
"457 339 LINE",
"457 449 OFFCURVE",
"402 512 OFFCURVE",
"304 512 CURVE",
"205 512 OFFCURVE",
"133 432 OFFCURVE",
"133 297 CURVE",
"170 273 LINE",
"171 388 OFFCURVE",
"214 442 OFFCURVE",
"287 442 CURVE",
"343 442 OFFCURVE",
"371 409 OFFCURVE",
"371 335 CURVE",
"371 0 LINE"
);
},
{
closed = 1;
nodes = (
"170 0 LINE",
"170 379 LINE",
"169 393 LINE",
"169 647 LINE",
"169 679 OFFCURVE",
"168 708 OFFCURVE",
"165 736 CURVE",
"80 724 LINE",
"83 698 OFFCURVE",
"84 676 OFFCURVE",
"84 646 CURVE",
"84 0 LINE"
);
}
);
width = 532;
},
{
layerId = "2F5B831B-86AF-41A9-958D-3871EE4B7007";
paths = (
{
closed = 1;
nodes = (
"519 0 LINE",
"519 347 LINE SMOOTH",
"519 460 OFFCURVE",
"448 524 OFFCURVE",
"358 524 CURVE",
"262 524 OFFCURVE",
"212 460 OFFCURVE",
"212 300 CURVE",
"244 285 LINE",
"244 371 OFFCURVE",
"254 394 OFFCURVE",
"285 394 CURVE",
"317 394 OFFCURVE",
"329 370 OFFCURVE",
"329 297 CURVE SMOOTH",
"329 0 LINE"
);
},
{
closed = 1;
nodes = (
"244 0 LINE",
"244 399 LINE",
"237 416 LINE",
"237 640 LINE",
"237 673 OFFCURVE",
"236 704 OFFCURVE",
"233 734 CURVE",
"50 720 LINE",
"53 694 OFFCURVE",
"54 670 OFFCURVE",
"54 639 CURVE",
"54 0 LINE"
);
}
);
width = 564;
}
);
leftMetricsKey = n;
rightMetricsKey = n;
unicode = 0068;
},
{
glyphname = idotless;
lastChange = "2018-04-19 10:55:25 +0000";
layers = (
{
anchors = (
{
name = top;
position = "{122, 500}";
}
);
layerId = "44A3F285-AC1C-4A7F-B2BD-0C498DBF5AFB";
paths = (
{
closed = 1;
nodes = (
"166 0 LINE",
"166 500 LINE",
"80 500 LINE",
"80 0 LINE"
);
}
);
width = 246;
},
{
anchors = (
{
name = top;
position = "{144, 506}";
}
);
layerId = "2F5B831B-86AF-41A9-958D-3871EE4B7007";
paths = (
{
closed = 1;
nodes = (
"240 0 LINE",
"240 506 LINE",
"50 506 LINE",
"50 0 LINE"
);
}
);
width = 290;
}
);
leftMetricsKey = n;
rightMetricsKey = "=|n";
unicode = 0131;
},
{
glyphname = jdotless;
lastChange = "2018-04-19 10:55:25 +0000";
layers = (
{
anchors = (
{
name = top;
position = "{125, 500}";
}
);
layerId = "44A3F285-AC1C-4A7F-B2BD-0C498DBF5AFB";
paths = (
{
closed = 1;
nodes = (
"131 -216 OFFCURVE",
"166 -143 OFFCURVE",
"166 -31 CURVE",
"166 500 LINE",
"80 500 LINE",
"80 -36 LINE",
"80 -107 OFFCURVE",
"74 -149 OFFCURVE",
"5 -149 CURVE",
"11 -216 LINE"
);
}
);
width = 246;
},
{
anchors = (
{
name = top;
position = "{143, 506}";
}
);
layerId = "2F5B831B-86AF-41A9-958D-3871EE4B7007";
paths = (
{
closed = 1;
nodes = (
"140 -205 OFFCURVE",
"238 -131 OFFCURVE",
"238 15 CURVE SMOOTH",
"238 506 LINE",
"48 506 LINE",
"48 20 LINE SMOOTH",
"48 -35 OFFCURVE",
"29 -72 OFFCURVE",
"-15 -77 CURVE",
"-1 -210 LINE"
);
}
);
width = 283;
}
);
unicode = 0237;
},
{
glyphname = k;
lastChange = "2018-09-17 21:05:56 +0000";
layers = (
{
backgroundImage = {
crop = "{{0, 0}, {492, 896}}";
imagePath = "../../../UFSC/PCC/Esboços/k.jpg";
transform = "{0.97525, 0.01702, -0.01702, 0.97525, 18.663, -95.121}";
};
layerId = "44A3F285-AC1C-4A7F-B2BD-0C498DBF5AFB";
paths = (
{
closed = 1;
nodes = (
"465 0 LINE",
"256 287 LINE",
"440 500 LINE",
"339 500 LINE",
"168 291 LINE",
"168 283 LINE",
"359 0 LINE"
);
},
{
closed = 1;
nodes = (
"169 0 LINE",
"169 647 LINE",
"169 679 OFFCURVE",
"168 708 OFFCURVE",
"165 736 CURVE",
"80 724 LINE",
"83 698 OFFCURVE",
"84 676 OFFCURVE",
"84 646 CURVE",
"84 0 LINE"
);
}
);
width = 475;
},
{
layerId = "2F5B831B-86AF-41A9-958D-3871EE4B7007";
paths = (
{
closed = 1;
nodes = (
"572 0 LINE",
"406 297 LINE",
"544 506 LINE",
"366 506 LINE",
"243 292 LINE",
"243 277 LINE",
"352 0 LINE"
);
},
{
closed = 1;
nodes = (
"244 0 LINE",
"244 645 LINE",
"244 677 OFFCURVE",
"243 706 OFFCURVE",
"240 734 CURVE",
"50 722 LINE",
"53 696 OFFCURVE",
"54 674 OFFCURVE",
"54 644 CURVE",
"54 0 LINE"
);
}
);
width = 565;
}
);
leftMetricsKey = n;
unicode = 006B;
},
{
glyphname = l;
lastChange = "2018-07-27 15:30:18 +0000";
layers = (
{
annotations = (
{
position = "{213.292, 29.671}";
type = Minus;
}
);
layerId = "44A3F285-AC1C-4A7F-B2BD-0C498DBF5AFB";
paths = (
{
closed = 1;
nodes = (
"217 -11 OFFCURVE",
"236 -3 OFFCURVE",
"258 8 CURVE",
"245 71 LINE",
"233 63 OFFCURVE",
"219 57 OFFCURVE",
"204 57 CURVE SMOOTH",
"185 57 OFFCURVE",
"169 67 OFFCURVE",
"169 99 CURVE SMOOTH",
"169 647 LINE SMOOTH",
"169 679 OFFCURVE",
"167 708 OFFCURVE",
"163 736 CURVE",
"80 724 LINE",
"83 698 OFFCURVE",
"84 676 OFFCURVE",
"84 646 CURVE SMOOTH",
"84 104 LINE SMOOTH",
"84 27 OFFCURVE",
"123 -11 OFFCURVE",
"186 -11 CURVE SMOOTH"
);
}
);
width = 293;
},
{
layerId = "2F5B831B-86AF-41A9-958D-3871EE4B7007";
paths = (
{
closed = 1;
nodes = (
"243 -11 OFFCURVE",
"284 -5 OFFCURVE",
"317 8 CURVE",
"307 144 LINE",
"291 137 OFFCURVE",
"282 135 OFFCURVE",
"273 135 CURVE SMOOTH",
"253 135 OFFCURVE",
"244 145 OFFCURVE",
"244 176 CURVE SMOOTH",
"244 645 LINE SMOOTH",
"244 677 OFFCURVE",
"242 706 OFFCURVE",
"238 734 CURVE",
"50 722 LINE",
"53 696 OFFCURVE",
"54 674 OFFCURVE",
"54 644 CURVE SMOOTH",
"54 153 LINE SMOOTH",
"54 17 OFFCURVE",
"133 -11 OFFCURVE",
"208 -11 CURVE SMOOTH"
);
}
);
width = 322;
}
);
leftMetricsKey = n;
unicode = 006C;
},
{
glyphname = m;
lastChange = "2018-10-23 02:06:29 +0000";
layers = (
{
layerId = "44A3F285-AC1C-4A7F-B2BD-0C498DBF5AFB";
paths = (
{
closed = 1;
nodes = (
"712 0 LINE",
"712 339 LINE SMOOTH",
"712 448 OFFCURVE",
"656 512 OFFCURVE",
"566 512 CURVE SMOOTH",
"468 512 OFFCURVE",
"405 434 OFFCURVE",
"405 299 CURVE",
"441 270 LINE",
"441 386 OFFCURVE",
"475 444 OFFCURVE",
"543 444 CURVE SMOOTH",
"595 444 OFFCURVE",
"626 410 OFFCURVE",
"626 335 CURVE SMOOTH",
"626 0 LINE"
);
},
{
closed = 1;
nodes = (
"170 0 LINE",
"170 390 LINE",
"163 408 LINE",
"163 441 OFFCURVE",
"162 471 OFFCURVE",
"159 500 CURVE",
"80 487 LINE",
"83 461 OFFCURVE",
"84 438 OFFCURVE",
"84 407 CURVE",
"84 0 LINE"
);
},
{
closed = 1;
nodes = (
"441 0 LINE",
"441 339 LINE SMOOTH",
"441 448 OFFCURVE",
"383 512 OFFCURVE",
"294 512 CURVE SMOOTH",
"187 512 OFFCURVE",
"136 413 OFFCURVE",
"136 293 CURVE",
"170 264 LINE",
"170 382 OFFCURVE",
"202 444 OFFCURVE",
"268 444 CURVE SMOOTH",
"324 444 OFFCURVE",
"355 410 OFFCURVE",
"355 335 CURVE SMOOTH",
"355 0 LINE"
);
}
);
width = 787;
},
{
layerId = "2F5B831B-86AF-41A9-958D-3871EE4B7007";
paths = (
{
closed = 1;
nodes = (
"773 0 LINE",
"773 347 LINE SMOOTH",
"773 459 OFFCURVE",
"709 524 OFFCURVE",
"619 524 CURVE SMOOTH",
"517 524 OFFCURVE",
"471 441 OFFCURVE",
"471 269 CURVE",
"506 259 LINE",
"506 340 OFFCURVE",
"516 374 OFFCURVE",
"544 374 CURVE SMOOTH",
"572 374 OFFCURVE",
"583 339 OFFCURVE",
"583 293 CURVE SMOOTH",
"583 0 LINE"
);
},
{
closed = 1;
nodes = (
"244 0 LINE",
"244 399 LINE",
"237 418 LINE",
"237 451 OFFCURVE",
"236 482 OFFCURVE",
"233 512 CURVE",
"50 498 LINE",
"53 472 OFFCURVE",
"54 448 OFFCURVE",
"54 417 CURVE",
"54 0 LINE"
);
},
{
closed = 1;
nodes = (
"506 0 LINE",
"506 347 LINE",
"506 459 OFFCURVE",
"450 524 OFFCURVE",
"359 524 CURVE SMOOTH",
"254 524 OFFCURVE",
"212 441 OFFCURVE",
"212 269 CURVE",
"244 259 LINE",
"244 339 OFFCURVE",
"256 374 OFFCURVE",
"284 374 CURVE SMOOTH",
"312 374 OFFCURVE",
"321 339 OFFCURVE",
"321 293 CURVE SMOOTH",
"321 0 LINE"
);
}
);
width = 818;
}
);
leftMetricsKey = n;
rightMetricsKey = n;
unicode = 006D;
},
{
glyphname = n;
lastChange = "2018-10-21 12:42:03 +0000";
layers = (
{
anchors = (
{
name = top;
position = "{269, 500}";
}
);
layerId = "44A3F285-AC1C-4A7F-B2BD-0C498DBF5AFB";
paths = (
{
closed = 1;
nodes = (
"455 0 LINE",
"455 339 LINE SMOOTH",
"455 449 OFFCURVE",
"400 512 OFFCURVE",
"301 512 CURVE",
"194 512 OFFCURVE",
"138 432 OFFCURVE",
"138 283 CURVE",
"170 259 LINE",
"170 388 OFFCURVE",
"214 446 OFFCURVE",
"282 446 CURVE SMOOTH",
"335 446 OFFCURVE",
"369 409 OFFCURVE",
"369 335 CURVE SMOOTH",
"369 0 LINE"
);
},
{
closed = 1;
nodes = (
"170 0 LINE",
"170 390 LINE",
"163 408 LINE",
"163 441 OFFCURVE",
"162 471 OFFCURVE",
"159 500 CURVE",
"80 487 LINE",
"83 461 OFFCURVE",
"84 438 OFFCURVE",
"84 407 CURVE",
"84 0 LINE"
);
}
);
width = 530;
},
{
anchors = (
{
name = top;
position = "{300, 506}";
}
);
layerId = "2F5B831B-86AF-41A9-958D-3871EE4B7007";
paths = (
{
closed = 1;
nodes = (
"519 0 LINE",
"519 347 LINE SMOOTH",
"519 460 OFFCURVE",
"448 524 OFFCURVE",
"358 524 CURVE",
"262 524 OFFCURVE",
"212 460 OFFCURVE",
"212 300 CURVE",
"244 285 LINE",
"244 371 OFFCURVE",
"254 394 OFFCURVE",
"285 394 CURVE",
"317 394 OFFCURVE",
"329 370 OFFCURVE",
"329 297 CURVE SMOOTH",
"329 0 LINE"
);
},
{
closed = 1;
nodes = (
"244 0 LINE",
"244 399 LINE",
"237 418 LINE",
"237 451 OFFCURVE",
"236 482 OFFCURVE",
"233 512 CURVE",
"50 498 LINE",
"53 472 OFFCURVE",
"54 448 OFFCURVE",
"54 417 CURVE",
"54 0 LINE"
);
}
);
width = 564;
}
);
unicode = 006E;
},
{
glyphname = o;
lastChange = "2018-04-19 10:55:25 +0000";
layers = (
{
anchors = (
{
name = top;
position = "{260, 500}";
}
);
layerId = "44A3F285-AC1C-4A7F-B2BD-0C498DBF5AFB";
paths = (
{
closed = 1;
nodes = (
"386 -10 OFFCURVE",
"468 77 OFFCURVE",
"468 251 CURVE SMOOTH",
"468 425 OFFCURVE",
"386 512 OFFCURVE",
"259 512 CURVE SMOOTH",
"131 512 OFFCURVE",
"48 425 OFFCURVE",
"48 251 CURVE SMOOTH",
"48 77 OFFCURVE",
"131 -10 OFFCURVE",
"259 -10 CURVE SMOOTH"
);
},
{
closed = 1;
nodes = (
"179 55 OFFCURVE",
"140 124 OFFCURVE",
"140 251 CURVE SMOOTH",
"140 379 OFFCURVE",
"179 447 OFFCURVE",
"259 447 CURVE SMOOTH",
"338 447 OFFCURVE",
"376 379 OFFCURVE",
"376 251 CURVE SMOOTH",
"376 124 OFFCURVE",
"338 55 OFFCURVE",
"259 55 CURVE SMOOTH"
);
}
);
width = 516;
},
{
anchors = (
{
name = top;
position = "{281, 506}";
}
);
layerId = "2F5B831B-86AF-41A9-958D-3871EE4B7007";
paths = (
{
closed = 1;
nodes = (
"442 -18 OFFCURVE",
"530 72 OFFCURVE",
"530 253 CURVE SMOOTH",
"530 434 OFFCURVE",
"442 524 OFFCURVE",
"281 524 CURVE SMOOTH",
"119 524 OFFCURVE",
"30 434 OFFCURVE",
"30 253 CURVE SMOOTH",
"30 72 OFFCURVE",
"119 -18 OFFCURVE",
"281 -18 CURVE SMOOTH"
);
},
{
closed = 1;
nodes = (
"247 101 OFFCURVE",
"232 141 OFFCURVE",
"232 253 CURVE SMOOTH",
"232 366 OFFCURVE",
"247 405 OFFCURVE",
"280 405 CURVE SMOOTH",
"312 405 OFFCURVE",
"328 366 OFFCURVE",
"328 253 CURVE SMOOTH",
"328 141 OFFCURVE",
"312 101 OFFCURVE",
"280 101 CURVE SMOOTH"
);
}
);
width = 560;
}
);
unicode = 006F;
},
{
glyphname = p;
lastChange = "2018-10-23 02:06:29 +0000";
layers = (
{
layerId = "44A3F285-AC1C-4A7F-B2BD-0C498DBF5AFB";
paths = (
{
closed = 1;
nodes = (
"409 -12 OFFCURVE",
"481 76 OFFCURVE",
"481 250 CURVE SMOOTH",
"481 424 OFFCURVE",
"409 512 OFFCURVE",
"300 512 CURVE SMOOTH",
"173 512 OFFCURVE",
"136 378 OFFCURVE",
"136 291 CURVE",
"170 256 LINE",
"170 380 OFFCURVE",
"212 446 OFFCURVE",
"284 446 CURVE SMOOTH",
"365 446 OFFCURVE",
"389 368 OFFCURVE",
"389 250 CURVE SMOOTH",
"389 131 OFFCURVE",
"359 54 OFFCURVE",
"284 54 CURVE SMOOTH",
"212 54 OFFCURVE",
"170 123 OFFCURVE",
"170 244 CURVE",
"136 209 LINE",
"136 101 OFFCURVE",
"180 -12 OFFCURVE",
"300 -12 CURVE SMOOTH"
);
},
{
closed = 1;
nodes = (
"170 -204 LINE",
"170 411 LINE",
"170 443 OFFCURVE",
"168 472 OFFCURVE",
"164 500 CURVE",
"80 488 LINE",
"83 462 OFFCURVE",
"84 440 OFFCURVE",
"84 410 CURVE",
"84 -204 LINE"
);
}
);
width = 529;
},
{
layerId = "2F5B831B-86AF-41A9-958D-3871EE4B7007";
paths = (
{
closed = 1;
nodes = (
"480 -18 OFFCURVE",
"554 78 OFFCURVE",
"554 256 CURVE SMOOTH",
"554 434 OFFCURVE",
"480 524 OFFCURVE",
"369 524 CURVE SMOOTH",
"239 524 OFFCURVE",
"202 397 OFFCURVE",
"202 288 CURVE",
"244 262 LINE",
"244 348 OFFCURVE",
"264 377 OFFCURVE",
"296 377 CURVE SMOOTH",
"328 377 OFFCURVE",
"352 336 OFFCURVE",
"352 256 CURVE SMOOTH",
"352 174 OFFCURVE",
"328 126 OFFCURVE",
"296 126 CURVE SMOOTH",
"264 126 OFFCURVE",
"244 166 OFFCURVE",
"244 250 CURVE",
"202 214 LINE",
"202 84 OFFCURVE",
"246 -18 OFFCURVE",
"369 -18 CURVE SMOOTH"
);
},
{
closed = 1;
nodes = (
"244 -208 LINE",
"244 421 LINE",
"244 453 OFFCURVE",
"242 483 OFFCURVE",
"238 512 CURVE",
"50 499 LINE",
"53 473 OFFCURVE",
"54 450 OFFCURVE",
"54 420 CURVE",
"54 -208 LINE"
);
}
);
width = 584;
}
);
leftMetricsKey = n;
rightMetricsKey = o;
unicode = 0070;
},
{
glyphname = q;
lastChange = "2018-04-19 10:52:48 +0000";
layers = (
{
layerId = "44A3F285-AC1C-4A7F-B2BD-0C498DBF5AFB";
paths = (
{
closed = 1;
nodes = (
"447 -204 LINE",
"447 500 LINE",
"361 500 LINE",
"361 -216 LINE"
);
},
{
closed = 1;
nodes = (
"355 -12 OFFCURVE",
"397 96 OFFCURVE",
"397 209 CURVE",
"361 244 LINE",
"361 120 OFFCURVE",
"326 54 OFFCURVE",
"252 54 CURVE SMOOTH",
"171 54 OFFCURVE",
"140 131 OFFCURVE",
"140 250 CURVE SMOOTH",
"140 368 OFFCURVE",
"171 446 OFFCURVE",
"252 446 CURVE SMOOTH",
"326 446 OFFCURVE",
"361 380 OFFCURVE",
"361 256 CURVE",
"397 291 LINE",
"397 403 OFFCURVE",
"355 512 OFFCURVE",
"233 512 CURVE SMOOTH",
"125 512 OFFCURVE",
"48 424 OFFCURVE",
"48 250 CURVE SMOOTH",
"48 76 OFFCURVE",
"125 -12 OFFCURVE",
"238 -12 CURVE SMOOTH"
);
}
);
width = 522;
},
{
layerId = "2F5B831B-86AF-41A9-958D-3871EE4B7007";
paths = (
{
closed = 1;
nodes = (
"530 -208 LINE",
"530 506 LINE",
"340 506 LINE",
"340 -226 LINE"
);
},
{
closed = 1;
nodes = (
"338 -18 OFFCURVE",
"382 84 OFFCURVE",
"382 214 CURVE",
"340 250 LINE",
"340 166 OFFCURVE",
"320 126 OFFCURVE",
"288 126 CURVE SMOOTH",
"256 126 OFFCURVE",
"232 174 OFFCURVE",
"232 256 CURVE SMOOTH",
"232 336 OFFCURVE",
"256 377 OFFCURVE",
"288 377 CURVE SMOOTH",
"320 377 OFFCURVE",
"340 348 OFFCURVE",
"340 262 CURVE",
"382 288 LINE",
"382 397 OFFCURVE",
"345 524 OFFCURVE",
"215 524 CURVE SMOOTH",
"104 524 OFFCURVE",
"30 434 OFFCURVE",
"30 256 CURVE SMOOTH",
"30 78 OFFCURVE",
"104 -18 OFFCURVE",
"215 -18 CURVE SMOOTH"
);
}
);
width = 575;
}
);
leftMetricsKey = o;
rightMetricsKey = n;
unicode = 0071;
},
{
glyphname = r;
lastChange = "2018-09-30 16:40:54 +0000";
layers = (
{
layerId = "44A3F285-AC1C-4A7F-B2BD-0C498DBF5AFB";
paths = (
{
closed = 1;
nodes = (
"170 0 LINE",
"170 390 LINE",
"164 408 LINE",
"164 441 OFFCURVE",
"163 471 OFFCURVE",
"160 500 CURVE",
"80 487 LINE",
"83 461 OFFCURVE",
"84 438 OFFCURVE",
"84 407 CURVE",
"84 0 LINE"
);
},
{
closed = 1;
nodes = (
"170 382 OFFCURVE",
"202 431 OFFCURVE",
"271 431 CURVE SMOOTH",
"296 431 OFFCURVE",
"312 422 OFFCURVE",
"326 414 CURVE",
"341 500 LINE",
"321 508 OFFCURVE",
"301 512 OFFCURVE",
"281 512 CURVE SMOOTH",
"192 512 OFFCURVE",
"143 430 OFFCURVE",
"143 276 CURVE",
"170 274 LINE"
);
}
);
width = 361;
},
{
layerId = "2F5B831B-86AF-41A9-958D-3871EE4B7007";
paths = (
{
closed = 1;
nodes = (
"244 0 LINE",
"244 402 LINE",
"238 420 LINE",
"238 453 OFFCURVE",
"237 483 OFFCURVE",
"234 512 CURVE",
"50 499 LINE",
"53 473 OFFCURVE",
"54 450 OFFCURVE",
"54 419 CURVE",
"54 0 LINE"
);
},
{
closed = 1;
nodes = (
"244 366 OFFCURVE",
"305 376 OFFCURVE",
"336 376 CURVE SMOOTH",
"362 376 OFFCURVE",
"383 369 OFFCURVE",
"403 352 CURVE",
"426 506 LINE",
"406 518 OFFCURVE",
"382 524 OFFCURVE",
"356 524 CURVE SMOOTH",
"265 524 OFFCURVE",
"213 452 OFFCURVE",
"213 305 CURVE",
"244 258 LINE"
);
}
);
width = 434;
}
);
leftMetricsKey = n;
unicode = 0072;
},
{
glyphname = s;
lastChange = "2018-04-19 11:39:16 +0000";
layers = (
{
annotations = (
{
position = "{96.194, 388.868}";
type = Minus;
},
{
position = "{223.293, 250.971}";
type = Plus;
},
{
position = "{348.696, 144.552}";
type = Plus;
}
);
layerId = "44A3F285-AC1C-4A7F-B2BD-0C498DBF5AFB";
paths = (
{
closed = 1;
nodes = (
"318 -12 OFFCURVE",
"385 49 OFFCURVE",
"385 136 CURVE SMOOTH",
"385 213 OFFCURVE",
"338 255 OFFCURVE",
"251 288 CURVE SMOOTH",
"166 320 OFFCURVE",
"131 338 OFFCURVE",
"131 387 CURVE SMOOTH",
"131 428 OFFCURVE",
"167 448 OFFCURVE",
"221 448 CURVE SMOOTH",
"266 448 OFFCURVE",
"295 435 OFFCURVE",
"330 413 CURVE",
"358 469 LINE",
"324 490 OFFCURVE",
"281 512 OFFCURVE",
"214 512 CURVE SMOOTH",
"116 512 OFFCURVE",
"49 460 OFFCURVE",
"49 378 CURVE SMOOTH",
"49 313 OFFCURVE",
"89 269 OFFCURVE",
"192 229 CURVE SMOOTH",
"274 197 OFFCURVE",
"303 177 OFFCURVE",
"303 133 CURVE SMOOTH",
"303 82 OFFCURVE",
"264 55 OFFCURVE",
"209 55 CURVE SMOOTH",
"164 55 OFFCURVE",
"112 74 OFFCURVE",
"68 117 CURVE",
"32 59 LINE",
"87 5 OFFCURVE",
"152 -12 OFFCURVE",
"210 -12 CURVE SMOOTH"
);
}
);
width = 427;
},
{
layerId = "2F5B831B-86AF-41A9-958D-3871EE4B7007";
paths = (
{
closed = 1;
nodes = (
"352 -18 OFFCURVE",
"443 60 OFFCURVE",
"443 157 CURVE SMOOTH",
"443 219 OFFCURVE",
"409 274 OFFCURVE",
"316 312 CURVE SMOOTH",
"245 341 OFFCURVE",
"222 353 OFFCURVE",
"222 375 CURVE SMOOTH",
"222 395 OFFCURVE",
"241 401 OFFCURVE",
"268 401 CURVE SMOOTH",
"311 401 OFFCURVE",
"344 386 OFFCURVE",
"371 368 CURVE",
"413 480 LINE",
"364 504 OFFCURVE",
"312 524 OFFCURVE",
"231 524 CURVE SMOOTH",
"117 524 OFFCURVE",
"26 474 OFFCURVE",
"26 370 CURVE SMOOTH",
"26 302 OFFCURVE",
"59 255 OFFCURVE",
"147 217 CURVE SMOOTH",
"233 180 OFFCURVE",
"244 170 OFFCURVE",
"244 153 CURVE SMOOTH",
"244 129 OFFCURVE",
"222 122 OFFCURVE",
"189 122 CURVE SMOOTH",
"135 122 OFFCURVE",
"95 144 OFFCURVE",
"58 175 CURVE",
"-1 60 LINE",
"69 2 OFFCURVE",
"144 -18 OFFCURVE",
"214 -18 CURVE SMOOTH"
);
}
);
width = 454;
}
);
unicode = 0073;
},
{
glyphname = t;
lastChange = "2018-04-19 10:52:48 +0000";
layers = (
{
layerId = "44A3F285-AC1C-4A7F-B2BD-0C498DBF5AFB";
paths = (
{
closed = 1;
nodes = (
"271 -12 OFFCURVE",
"308 4 OFFCURVE",
"341 30 CURVE",
"314 88 LINE",
"284 66 OFFCURVE",
"264 57 OFFCURVE",
"240 57 CURVE SMOOTH",
"188 57 OFFCURVE",
"180 96 OFFCURVE",
"180 149 CURVE SMOOTH",
"180 457 LINE",
"176 493 LINE",
"176 536 LINE",
"176 568 OFFCURVE",
"174 597 OFFCURVE",
"170 625 CURVE",
"94 613 LINE",
"97 587 OFFCURVE",
"98 565 OFFCURVE",
"98 535 CURVE",
"98 496 LINE",
"94 457 LINE",
"94 156 LINE SMOOTH",
"94 66 OFFCURVE",
"115 -12 OFFCURVE",
"223 -12 CURVE SMOOTH"
);
},
{
closed = 1;
nodes = (
"304 439 LINE",
"304 500 LINE",
"32 500 LINE",
"32 439 LINE"
);
}
);
width = 366;
},
{
layerId = "2F5B831B-86AF-41A9-958D-3871EE4B7007";
paths = (
{
closed = 1;
nodes = (
"287 -12 OFFCURVE",
"328 3 OFFCURVE",
"364 28 CURVE",
"333 152 LINE",
"317 139 OFFCURVE",
"302 133 OFFCURVE",
"285 133 CURVE SMOOTH",
"272 133 OFFCURVE",
"257 137 OFFCURVE",
"257 165 CURVE SMOOTH",
"257 457 LINE",
"253 475 LINE",
"253 534 LINE",
"253 566 OFFCURVE",
"251 595 OFFCURVE",
"247 623 CURVE",
"67 611 LINE",
"70 585 OFFCURVE",
"71 563 OFFCURVE",
"71 533 CURVE",
"71 480 LINE",
"67 460 LINE",
"67 155 LINE SMOOTH",
"67 31 OFFCURVE",
"124 -12 OFFCURVE",
"225 -12 CURVE SMOOTH"
);
},
{
closed = 1;
nodes = (
"362 396 LINE",
"362 506 LINE",
"10 506 LINE",
"10 396 LINE"
);
}
);
width = 376;
}
);
unicode = 0074;
},
{
glyphname = u;
lastChange = "2018-04-19 10:55:25 +0000";
layers = (
{
anchors = (
{
name = top;
position = "{263, 500}";
}
);
layerId = "44A3F285-AC1C-4A7F-B2BD-0C498DBF5AFB";
paths = (
{
closed = 1;
nodes = (
"337 -12 OFFCURVE",
"393 68 OFFCURVE",
"393 219 CURVE",
"358 247 LINE",
"358 113 OFFCURVE",
"314 56 OFFCURVE",
"249 56 CURVE SMOOTH",
"198 56 OFFCURVE",
"166 91 OFFCURVE",
"166 165 CURVE SMOOTH",
"166 500 LINE",
"80 500 LINE",
"80 161 LINE SMOOTH",
"80 53 OFFCURVE",
"134 -12 OFFCURVE",
"231 -12 CURVE SMOOTH"
);
},
{
closed = 1;
nodes = (
"451 0 LINE",
"446 32 OFFCURVE",
"444 62 OFFCURVE",
"444 93 CURVE",
"444 500 LINE",
"358 500 LINE",
"358 110 LINE",
"362 92 LINE",
"362 59 OFFCURVE",
"363 31 OFFCURVE",
"368 0 CURVE"
);
}
);
width = 531;
},
{
anchors = (
{
name = top;
position = "{257, 506}";
}
);
annotations = (
{
position = "{275.047, 71.532}";
type = Plus;
}
);
layerId = "2F5B831B-86AF-41A9-958D-3871EE4B7007";
paths = (
{
closed = 1;
nodes = (
"277 -18 OFFCURVE",
"324 44 OFFCURVE",
"324 190 CURVE",
"291 205 LINE",
"291 119 OFFCURVE",
"276 101 OFFCURVE",
"256 101 CURVE",
"236 101 OFFCURVE",
"222 118 OFFCURVE",
"222 175 CURVE",
"222 506 LINE",
"32 506 LINE",
"32 163 LINE",
"32 54 OFFCURVE",
"84 -18 OFFCURVE",
"185 -18 CURVE"
);
},
{
closed = 1;
nodes = (
"488 0 LINE",
"483 33 OFFCURVE",
"481 63 OFFCURVE",
"481 94 CURVE",
"481 506 LINE",
"291 506 LINE",
"291 111 LINE",
"295 93 LINE",
"295 60 OFFCURVE",
"296 32 OFFCURVE",
"301 0 CURVE"
);
}
);
width = 516;
}
);
unicode = 0075;
},
{
glyphname = v;
lastChange = "2018-09-18 16:21:17 +0000";
layers = (
{
layerId = "44A3F285-AC1C-4A7F-B2BD-0C498DBF5AFB";
paths = (
{
closed = 1;
nodes = (
"272 0 LINE",
"429 500 LINE",
"341 500 LINE",
"222 72 LINE",
"108 500 LINE",
"18 500 LINE",
"167 0 LINE"
);
}
);
width = 447;
},
{
layerId = "2F5B831B-86AF-41A9-958D-3871EE4B7007";
paths = (
{
closed = 1;
nodes = (
"358 0 LINE",
"504 506 LINE",
"324 506 LINE",
"247 129 LINE",
"182 506 LINE",
"-12 506 LINE",
"126 0 LINE"
);
}
);
width = 492;
}
);
unicode = 0076;
},
{
glyphname = w;
lastChange = "2018-04-19 10:55:25 +0000";
layers = (
{
anchors = (
{
name = bottom;
position = "{347, 0}";
},
{
name = top;
position = "{359, 500}";
}
);
layerId = "44A3F285-AC1C-4A7F-B2BD-0C498DBF5AFB";
paths = (
{
closed = 1;
nodes = (
"263 0 LINE",
"357 425 LINE",
"451 0 LINE",
"565 0 LINE",
"680 500 LINE",
"595 500 LINE",
"509 72 LINE",
"415 500 LINE",
"305 500 LINE",
"211 74 LINE",
"124 500 LINE",
"32 500 LINE",
"153 0 LINE"
);
}
);
width = 712;
},
{
layerId = "2F5B831B-86AF-41A9-958D-3871EE4B7007";
width = 600;
}
);
unicode = 0077;
},
{
glyphname = x;
lastChange = "2018-04-19 10:52:48 +0000";
layers = (
{
layerId = "44A3F285-AC1C-4A7F-B2BD-0C498DBF5AFB";
paths = (
{
closed = 1;
nodes = (
"117 0 LINE",
"234 206 LINE",
"283 263 LINE",
"437 500 LINE",
"340 500 LINE",
"236 318 LINE",
"187 263 LINE",
"20 0 LINE"
);
},
{
closed = 1;
nodes = (
"450 0 LINE",
"283 263 LINE",
"236 318 LINE",
"135 500 LINE",
"35 500 LINE",
"187 263 LINE",
"234 206 LINE",
"350 0 LINE"
);
}
);
width = 470;
},
{
layerId = "2F5B831B-86AF-41A9-958D-3871EE4B7007";
paths = (
{
closed = 1;
nodes = (
"195 0 LINE",
"255 149 LINE",
"361 260 LINE",
"503 506 LINE",
"315 506 LINE",
"261 368 LINE",
"153 260 LINE",
"5 0 LINE"
);
},
{
closed = 1;
nodes = (
"524 0 LINE",
"361 260 LINE",
"261 368 LINE",
"211 506 LINE",
"11 506 LINE",
"153 260 LINE",
"255 149 LINE",
"321 0 LINE"
);
}
);
width = 529;
}
);
unicode = 0078;
},
{
glyphname = y;
lastChange = "2018-04-19 10:52:48 +0000";
layers = (
{
layerId = "44A3F285-AC1C-4A7F-B2BD-0C498DBF5AFB";
paths = (
{
closed = 1;
nodes = (
"187 -202 OFFCURVE",
"230 -115 OFFCURVE",
"271 0 CURVE SMOOTH",
"449 500 LINE",
"360 500 LINE",
"230 100 LINE",
"102 500 LINE",
"10 500 LINE",
"188 -6 LINE",
"156 -94 OFFCURVE",
"129 -126 OFFCURVE",
"37 -133 CURVE",
"49 -211 LINE"
);
}
);
width = 464;
},
{
layerId = "2F5B831B-86AF-41A9-958D-3871EE4B7007";
paths = (
{
closed = 1;
nodes = (
"216 -206 OFFCURVE",
"272 -152 OFFCURVE",
"334 0 CURVE SMOOTH",
"541 506 LINE",
"355 506 LINE",
"253 177 LINE",
"169 506 LINE",
"-25 506 LINE",
"166 -4 LINE",
"130 -74 OFFCURVE",
"56 -79 OFFCURVE",
"0 -83 CURVE",
"39 -226 LINE"
);
}
);
width = 600;
}
);
unicode = 0079;
},
{
glyphname = z;
lastChange = "2018-04-19 10:52:48 +0000";
layers = (
{
layerId = "44A3F285-AC1C-4A7F-B2BD-0C498DBF5AFB";
paths = (
{
closed = 1;
nodes = (
"411 0 LINE",
"401 69 LINE",
"136 69 LINE",
"401 438 LINE",
"401 500 LINE",
"58 500 LINE",
"58 430 LINE",
"304 430 LINE",
"38 62 LINE",
"38 0 LINE"
);
}
);
width = 449;
},
{
layerId = "2F5B831B-86AF-41A9-958D-3871EE4B7007";
paths = (
{
closed = 1;
nodes = (
"442 0 LINE",
"432 122 LINE",
"228 122 LINE",
"434 395 LINE",
"434 506 LINE",
"38 506 LINE",
"38 386 LINE",
"222 386 LINE",
"15 114 LINE",
"15 0 LINE"
);
}
);
width = 452;
}
);
unicode = 007A;
},
{
color = 0;
glyphname = s.002;
lastChange = "2018-04-19 10:52:48 +0000";
layers = (
{
annotations = (
{
position = "{96.194, 388.868}";
type = Minus;
}
);
layerId = "44A3F285-AC1C-4A7F-B2BD-0C498DBF5AFB";
paths = (
{
closed = 1;
nodes = (
"330 -12 OFFCURVE",
"396 49 OFFCURVE",
"396 136 CURVE SMOOTH",
"396 213 OFFCURVE",
"344 254 OFFCURVE",
"256 289 CURVE SMOOTH",
"181 319 OFFCURVE",
"146 339 OFFCURVE",
"146 384 CURVE SMOOTH",
"146 426 OFFCURVE",
"176 447 OFFCURVE",
"232 447 CURVE SMOOTH",
"275 447 OFFCURVE",
"306 436 OFFCURVE",
"340 413 CURVE",
"368 469 LINE",
"335 492 OFFCURVE",
"291 512 OFFCURVE",
"228 512 CURVE SMOOTH",
"130 512 OFFCURVE",
"62 464 OFFCURVE",
"62 381 CURVE SMOOTH",
"62 317 OFFCURVE",
"101 271 OFFCURVE",
"202 229 CURVE SMOOTH",
"284 195 OFFCURVE",
"310 178 OFFCURVE",
"310 134 CURVE SMOOTH",
"310 83 OFFCURVE",
"275 56 OFFCURVE",
"220 56 CURVE SMOOTH",
"175 56 OFFCURVE",
"122 74 OFFCURVE",
"79 116 CURVE",
"43 59 LINE",
"95 6 OFFCURVE",
"164 -12 OFFCURVE",
"223 -12 CURVE SMOOTH"
);
}
);
width = 448;
},
{
layerId = "2F5B831B-86AF-41A9-958D-3871EE4B7007";
paths = (
{
closed = 1;
nodes = (
"352 -18 OFFCURVE",
"443 60 OFFCURVE",
"443 157 CURVE SMOOTH",
"443 219 OFFCURVE",
"409 274 OFFCURVE",
"316 312 CURVE SMOOTH",
"245 341 OFFCURVE",
"222 353 OFFCURVE",
"222 375 CURVE SMOOTH",
"222 395 OFFCURVE",
"241 401 OFFCURVE",
"268 401 CURVE SMOOTH",
"311 401 OFFCURVE",
"344 386 OFFCURVE",
"371 368 CURVE",
"413 480 LINE",
"364 504 OFFCURVE",
"312 524 OFFCURVE",
"231 524 CURVE SMOOTH",
"117 524 OFFCURVE",
"26 474 OFFCURVE",
"26 370 CURVE SMOOTH",
"26 302 OFFCURVE",
"59 255 OFFCURVE",
"147 217 CURVE SMOOTH",
"233 180 OFFCURVE",
"244 170 OFFCURVE",
"244 153 CURVE SMOOTH",
"244 129 OFFCURVE",
"222 122 OFFCURVE",
"189 122 CURVE SMOOTH",
"135 122 OFFCURVE",
"95 144 OFFCURVE",
"58 175 CURVE",
"-1 60 LINE",
"69 2 OFFCURVE",
"144 -18 OFFCURVE",
"214 -18 CURVE SMOOTH"
);
}
);
width = 454;
}
);
},
{
glyphname = a.sc;
lastChange = "2018-10-23 01:53:41 +0000";
layers = (
{
anchors = (
{
name = bottom;
position = "{275, 0}";
},
{
name = top;
position = "{274, 549}";
}
);
layerId = "44A3F285-AC1C-4A7F-B2BD-0C498DBF5AFB";
paths = (
{
closed = 1;
nodes = (
"124 0 LINE",
"274 471 LINE",
"420 0 LINE",
"518 0 LINE",
"323 549 LINE",
"225 549 LINE",
"33 0 LINE"
);
},
{
closed = 1;
nodes = (
"383 154 LINE",
"365 221 LINE",
"182 221 LINE",
"163 154 LINE"
);
}
);
userData = {
RMXScaler = {
adjustSpace = 10;
height = 80;
width = 90;
};
};
width = 551;
},
{
anchors = (
{
name = bottom;
position = "{317, 0}";
},
{
name = top;
position = "{317, 692}";
}
);
layerId = "2F5B831B-86AF-41A9-958D-3871EE4B7007";
paths = (
{
closed = 1;
nodes = (
"205 0 LINE",
"317 539 LINE",
"424 0 LINE",
"644 0 LINE",
"429 692 LINE",
"202 692 LINE",
"10 0 LINE"
);
},
{
closed = 1;
nodes = (
"437 155 LINE",
"417 295 LINE",
"214 295 LINE",
"193 155 LINE"
);
}
);
width = 654;
}
);
userData = {
RMXScaler = {
source = A;
};
};
},
{
glyphname = b.sc;
lastChange = "2018-10-23 01:53:41 +0000";
layers = (
{
layerId = "44A3F285-AC1C-4A7F-B2BD-0C498DBF5AFB";
paths = (
{
closed = 1;
nodes = (
"265 0 LINE SMOOTH",
"410 0 OFFCURVE",
"463 80 OFFCURVE",
"463 163 CURVE SMOOTH",
"463 245 OFFCURVE",
"399 288 OFFCURVE",
"350 299 CURVE",
"401 323 OFFCURVE",
"427 370 OFFCURVE",
"427 418 CURVE SMOOTH",
"427 484 OFFCURVE",
"373 549 OFFCURVE",
"259 549 CURVE SMOOTH",
"121 549 LINE",
"121 486 LINE",
"239 486 LINE SMOOTH",
"307 486 OFFCURVE",
"341 455 OFFCURVE",
"341 409 CURVE SMOOTH",
"341 363 OFFCURVE",
"307 324 OFFCURVE",
"239 324 CURVE SMOOTH",
"130 324 LINE",
"130 258 LINE",
"247 258 LINE SMOOTH",
"338 258 OFFCURVE",
"369 211 OFFCURVE",
"369 163 CURVE SMOOTH",
"369 114 OFFCURVE",
"338 64 OFFCURVE",
"247 64 CURVE SMOOTH",
"146 64 LINE",
"146 0 LINE"
);
},
{
closed = 1;
nodes = (
"174 0 LINE",
"174 549 LINE",
"88 549 LINE",
"88 0 LINE"
);
}
);
userData = {
RMXScaler = {
adjustSpace = 10;
height = 80;
width = 90;
};
};
width = 522;
},
{
layerId = "2F5B831B-86AF-41A9-958D-3871EE4B7007";
paths = (
{
closed = 1;
nodes = (
"346 0 LINE SMOOTH",
"476 0 OFFCURVE",
"564 94 OFFCURVE",
"564 213 CURVE SMOOTH",
"564 306 OFFCURVE",
"482 364 OFFCURVE",
"443 375 CURVE",
"479 392 OFFCURVE",
"531 442 OFFCURVE",
"531 516 CURVE SMOOTH",
"531 603 OFFCURVE",
"452 692 OFFCURVE",
"327 692 CURVE SMOOTH",
"175 692 LINE",
"175 565 LINE",
"271 565 LINE SMOOTH",
"310 565 OFFCURVE",
"334 538 OFFCURVE",
"334 493 CURVE SMOOTH",
"334 448 OFFCURVE",
"310 419 OFFCURVE",
"271 419 CURVE SMOOTH",
"175 419 LINE",
"175 293 LINE",
"271 293 LINE SMOOTH",
"310 293 OFFCURVE",
"348 275 OFFCURVE",
"348 213 CURVE SMOOTH",
"348 151 OFFCURVE",
"310 127 OFFCURVE",
"271 127 CURVE SMOOTH",
"175 127 LINE",
"175 0 LINE"
);
},
{
closed = 1;
nodes = (
"256 0 LINE",
"256 692 LINE",
"56 692 LINE",
"56 0 LINE"
);
}
);
width = 585;
}
);
leftMetricsKey = h.sc;
userData = {
RMXScaler = {
source = B;
};
};
},
{
glyphname = c.sc;
lastChange = "2018-10-23 01:53:41 +0000";
layers = (
{
anchors = (
{
name = bottom;
position = "{272, 0}";
}
);
layerId = "44A3F285-AC1C-4A7F-B2BD-0C498DBF5AFB";
paths = (
{
closed = 1;
nodes = (
"348 -9 OFFCURVE",
"397 9 OFFCURVE",
"439 39 CURVE",
"392 96 LINE",
"362 73 OFFCURVE",
"326 60 OFFCURVE",
"286 60 CURVE SMOOTH",
"187 60 OFFCURVE",
"155 139 OFFCURVE",
"155 275 CURVE SMOOTH",
"155 413 OFFCURVE",
"189 491 OFFCURVE",
"290 491 CURVE SMOOTH",
"330 491 OFFCURVE",
"359 478 OFFCURVE",
"391 452 CURVE",
"439 509 LINE",
"400 538 OFFCURVE",
"360 560 OFFCURVE",
"284 560 CURVE SMOOTH",
"124 560 OFFCURVE",
"63 454 OFFCURVE",
"63 275 CURVE SMOOTH",
"63 96 OFFCURVE",
"120 -9 OFFCURVE",
"280 -9 CURVE SMOOTH"
);
}
);
userData = {
RMXScaler = {
adjustSpace = 10;
height = 80;
width = 90;
};
};
width = 483;
},
{
anchors = (
{
name = bottom;
position = "{342, 0}";
}
);
layerId = "2F5B831B-86AF-41A9-958D-3871EE4B7007";
paths = (
{
closed = 1;
nodes = (
"444 -18 OFFCURVE",
"516 6 OFFCURVE",
"562 36 CURVE",
"515 162 LINE",
"467 135 OFFCURVE",
"414 128 OFFCURVE",
"388 128 CURVE SMOOTH",
"308 128 OFFCURVE",
"250 178 OFFCURVE",
"250 346 CURVE SMOOTH",
"250 515 OFFCURVE",
"308 564 OFFCURVE",
"388 564 CURVE SMOOTH",
"419 564 OFFCURVE",
"464 555 OFFCURVE",
"505 523 CURVE",
"562 649 LINE",
"517 682 OFFCURVE",
"441 710 OFFCURVE",
"354 710 CURVE SMOOTH",
"156 710 OFFCURVE",
"42 586 OFFCURVE",
"42 345 CURVE SMOOTH",
"42 103 OFFCURVE",
"156 -18 OFFCURVE",
"354 -18 CURVE SMOOTH"
);
}
);
width = 582;
}
);
leftMetricsKey = o.sc;
userData = {
RMXScaler = {
source = C;
};
};
},
{
glyphname = d.sc;
lastChange = "2018-10-23 01:53:41 +0000";
layers = (
{
layerId = "44A3F285-AC1C-4A7F-B2BD-0C498DBF5AFB";
paths = (
{
closed = 1;
nodes = (
"256 0 LINE SMOOTH",
"414 0 OFFCURVE",
"502 86 OFFCURVE",
"502 275 CURVE SMOOTH",
"502 464 OFFCURVE",
"414 549 OFFCURVE",
"256 549 CURVE SMOOTH",
"129 549 LINE",
"129 483 LINE",
"243 483 LINE",
"358 483 OFFCURVE",
"407 419 OFFCURVE",
"407 275 CURVE SMOOTH",
"407 117 OFFCURVE",
"346 66 OFFCURVE",
"243 66 CURVE SMOOTH",
"142 66 LINE",
"142 0 LINE"
);
},
{
closed = 1;
nodes = (
"174 0 LINE",
"174 549 LINE",
"88 549 LINE",
"88 0 LINE"
);
}
);
userData = {
RMXScaler = {
adjustSpace = 10;
height = 80;
width = 90;
};
};
width = 565;
},
{
layerId = "2F5B831B-86AF-41A9-958D-3871EE4B7007";
paths = (
{
closed = 1;
nodes = (
"285 0 LINE SMOOTH",
"461 0 OFFCURVE",
"597 103 OFFCURVE",
"597 347 CURVE SMOOTH",
"597 586 OFFCURVE",
"461 692 OFFCURVE",
"285 692 CURVE SMOOTH",
"148 692 LINE",
"148 552 LINE",
"257 552 LINE SMOOTH",
"343 552 OFFCURVE",
"389 517 OFFCURVE",
"389 347 CURVE SMOOTH",
"389 178 OFFCURVE",
"343 140 OFFCURVE",
"257 140 CURVE SMOOTH",
"163 140 LINE",
"163 0 LINE"
);
},
{
closed = 1;
nodes = (
"256 0 LINE",
"256 692 LINE",
"56 692 LINE",
"56 0 LINE"
);
}
);
width = 639;
}
);
leftMetricsKey = h.sc;
rightMetricsKey = o.sc;
userData = {
RMXScaler = {
source = D;
};
};
},
{
glyphname = e.sc;
lastChange = "2018-10-23 01:53:41 +0000";
layers = (
{
anchors = (
{
name = top;
position = "{258, 549}";
}
);
layerId = "44A3F285-AC1C-4A7F-B2BD-0C498DBF5AFB";
paths = (
{
closed = 1;
nodes = (
"174 0 LINE",
"174 549 LINE",
"88 549 LINE",
"88 0 LINE"
);
},
{
closed = 1;
nodes = (
"420 0 LINE",
"420 72 LINE",
"122 72 LINE",
"122 0 LINE"
);
},
{
closed = 1;
nodes = (
"402 253 LINE",
"402 325 LINE",
"122 325 LINE",
"122 253 LINE"
);
},
{
closed = 1;
nodes = (
"420 478 LINE",
"420 549 LINE",
"122 549 LINE",
"122 478 LINE"
);
}
);
userData = {
RMXScaler = {
adjustSpace = 10;
height = 80;
width = 90;
};
};
width = 489;
},
{
anchors = (
{
name = top;
position = "{292, 692}";
}
);
layerId = "2F5B831B-86AF-41A9-958D-3871EE4B7007";
paths = (
{
closed = 1;
nodes = (
"256 0 LINE",
"256 692 LINE",
"56 692 LINE",
"56 0 LINE"
);
},
{
closed = 1;
nodes = (
"515 0 LINE",
"515 160 LINE",
"163 160 LINE",
"163 0 LINE"
);
},
{
closed = 1;
nodes = (
"485 278 LINE",
"485 438 LINE",
"163 438 LINE",
"163 278 LINE"
);
},
{
closed = 1;
nodes = (
"515 532 LINE",
"515 692 LINE",
"163 692 LINE",
"163 532 LINE"
);
}
);
width = 563;
}
);
leftMetricsKey = h.sc;
userData = {
RMXScaler = {
source = E;
};
};
},
{
glyphname = f.sc;
lastChange = "2018-10-23 01:53:41 +0000";
layers = (
{
layerId = "44A3F285-AC1C-4A7F-B2BD-0C498DBF5AFB";
paths = (
{
closed = 1;
nodes = (
"174 0 LINE",
"174 549 LINE",
"88 549 LINE",
"88 0 LINE"
);
},
{
closed = 1;
nodes = (
"397 248 LINE",
"397 320 LINE",
"122 320 LINE",
"122 248 LINE"
);
},
{
closed = 1;
nodes = (
"414 478 LINE",
"414 549 LINE",
"122 549 LINE",
"122 478 LINE"
);
}
);
userData = {
RMXScaler = {
adjustSpace = 10;
height = 80;
width = 90;
};
};
width = 473;
},
{
layerId = "2F5B831B-86AF-41A9-958D-3871EE4B7007";
paths = (
{
closed = 1;
nodes = (
"256 0 LINE",
"256 692 LINE",
"56 692 LINE",
"56 0 LINE"
);
},
{
closed = 1;
nodes = (
"485 268 LINE",
"485 428 LINE",
"163 428 LINE",
"163 268 LINE"
);
},
{
closed = 1;
nodes = (
"515 532 LINE",
"515 692 LINE",
"163 692 LINE",
"163 532 LINE"
);
}
);
width = 545;
}
);
leftMetricsKey = h.sc;
userData = {
RMXScaler = {
source = F;
};
};
},
{
glyphname = g.sc;
lastChange = "2018-10-23 01:53:41 +0000";
layers = (
{
layerId = "44A3F285-AC1C-4A7F-B2BD-0C498DBF5AFB";
paths = (
{
closed = 1;
nodes = (
"372 -9 OFFCURVE",
"444 11 OFFCURVE",
"493 41 CURVE",
"493 318 LINE",
"296 318 LINE",
"296 250 LINE",
"407 250 LINE",
"407 80 LINE",
"380 65 OFFCURVE",
"343 57 OFFCURVE",
"309 57 CURVE SMOOTH",
"206 57 OFFCURVE",
"160 131 OFFCURVE",
"160 275 CURVE SMOOTH",
"160 419 OFFCURVE",
"210 493 OFFCURVE",
"331 493 CURVE SMOOTH",
"374 493 OFFCURVE",
"407 482 OFFCURVE",
"450 456 CURVE",
"479 511 LINE",
"439 537 OFFCURVE",
"388 560 OFFCURVE",
"319 560 CURVE SMOOTH",
"152 560 OFFCURVE",
"63 465 OFFCURVE",
"63 275 CURVE SMOOTH",
"63 86 OFFCURVE",
"150 -9 OFFCURVE",
"302 -9 CURVE SMOOTH"
);
}
);
userData = {
RMXScaler = {
adjustSpace = 10;
height = 80;
width = 90;
};
};
width = 580;
},
{
layerId = "2F5B831B-86AF-41A9-958D-3871EE4B7007";
paths = (
{
closed = 1;
nodes = (
"457 -18 OFFCURVE",
"552 9 OFFCURVE",
"622 45 CURVE",
"622 421 LINE",
"351 421 LINE",
"351 281 LINE",
"432 281 LINE",
"432 142 LINE",
"405 127 OFFCURVE",
"381 125 OFFCURVE",
"368 125 CURVE SMOOTH",
"301 125 OFFCURVE",
"260 178 OFFCURVE",
"260 345 CURVE SMOOTH",
"260 515 OFFCURVE",
"317 568 OFFCURVE",
"405 568 CURVE SMOOTH",
"463 568 OFFCURVE",
"511 545 OFFCURVE",
"554 513 CURVE",
"596 640 LINE",
"550 673 OFFCURVE",
"485 710 OFFCURVE",
"380 710 CURVE SMOOTH",
"177 710 OFFCURVE",
"42 588 OFFCURVE",
"42 345 CURVE SMOOTH",
"42 104 OFFCURVE",
"193 -18 OFFCURVE",
"371 -18 CURVE SMOOTH"
);
}
);
width = 657;
}
);
leftMetricsKey = o.sc;
userData = {
RMXScaler = {
source = G;
};
};
},
{
glyphname = h.sc;
lastChange = "2018-10-23 01:53:41 +0000";
layers = (
{
layerId = "44A3F285-AC1C-4A7F-B2BD-0C498DBF5AFB";
paths = (
{
closed = 1;
nodes = (
"489 0 LINE",
"489 549 LINE",
"403 549 LINE",
"403 0 LINE"
);
},
{
closed = 1;
nodes = (
"174 0 LINE",
"174 549 LINE",
"88 549 LINE",
"88 0 LINE"
);
},
{
closed = 1;
nodes = (
"433 255 LINE",
"433 327 LINE",
"144 327 LINE",
"144 255 LINE"
);
}
);
userData = {
RMXScaler = {
adjustSpace = 10;
height = 80;
width = 90;
};
};
width = 577;
},
{
layerId = "2F5B831B-86AF-41A9-958D-3871EE4B7007";
paths = (
{
closed = 1;
nodes = (
"591 0 LINE",
"591 692 LINE",
"391 692 LINE",
"391 0 LINE"
);
},
{
closed = 1;
nodes = (
"256 0 LINE",
"256 692 LINE",
"56 692 LINE",
"56 0 LINE"
);
},
{
closed = 1;
nodes = (
"480 287 LINE",
"480 447 LINE",
"158 447 LINE",
"158 287 LINE"
);
}
);
width = 647;
}
);
userData = {
RMXScaler = {
source = H;
};
};
},
{
glyphname = i.sc;
lastChange = "2018-10-23 01:53:41 +0000";
layers = (
{
anchors = (
{
name = top;
position = "{131, 549}";
}
);
layerId = "44A3F285-AC1C-4A7F-B2BD-0C498DBF5AFB";
paths = (
{
closed = 1;
nodes = (
"174 0 LINE",
"174 549 LINE",
"88 549 LINE",
"88 0 LINE"
);
}
);
userData = {
RMXScaler = {
adjustSpace = 10;
height = 80;
width = 90;
};
};
width = 262;
},
{
anchors = (
{
name = top;
position = "{157, 692}";
}
);
layerId = "2F5B831B-86AF-41A9-958D-3871EE4B7007";
paths = (
{
closed = 1;
nodes = (
"256 0 LINE",
"256 692 LINE",
"56 692 LINE",
"56 0 LINE"
);
}
);
width = 312;
}
);
leftMetricsKey = h.sc;
rightMetricsKey = h.sc;
userData = {
RMXScaler = {
source = I;
};
};
},
{
glyphname = j.sc;
lastChange = "2018-10-23 01:53:41 +0000";
layers = (
{
layerId = "44A3F285-AC1C-4A7F-B2BD-0C498DBF5AFB";
paths = (
{
closed = 1;
nodes = (
"122 -79 OFFCURVE",
"192 -24 OFFCURVE",
"192 82 CURVE SMOOTH",
"192 549 LINE",
"107 549 LINE",
"107 72 LINE SMOOTH",
"107 17 OFFCURVE",
"65 -16 OFFCURVE",
"0 -22 CURVE",
"6 -86 LINE"
);
}
);
userData = {
RMXScaler = {
adjustSpace = 10;
height = 80;
width = 90;
};
};
width = 280;
},
{
layerId = "2F5B831B-86AF-41A9-958D-3871EE4B7007";
paths = (
{
closed = 1;
nodes = (
"152 -148 OFFCURVE",
"245 -68 OFFCURVE",
"245 88 CURVE SMOOTH",
"245 692 LINE",
"55 692 LINE",
"55 66 LINE SMOOTH",
"55 17 OFFCURVE",
"33 -21 OFFCURVE",
"-20 -31 CURVE",
"-12 -160 LINE"
);
}
);
width = 301;
}
);
rightMetricsKey = h.sc;
userData = {
RMXScaler = {
source = J;
};
};
},
{
glyphname = k.sc;
lastChange = "2018-10-23 01:53:41 +0000";
layers = (
{
layerId = "44A3F285-AC1C-4A7F-B2BD-0C498DBF5AFB";
paths = (
{
closed = 1;
nodes = (
"496 0 LINE",
"259 296 LINE",
"471 549 LINE",
"374 549 LINE",
"172 302 LINE",
"172 285 LINE",
"391 0 LINE"
);
},
{
closed = 1;
nodes = (
"173 0 LINE",
"173 549 LINE",
"88 549 LINE",
"88 0 LINE"
);
}
);
userData = {
RMXScaler = {
adjustSpace = 10;
height = 80;
width = 90;
};
};
width = 493;
},
{
layerId = "2F5B831B-86AF-41A9-958D-3871EE4B7007";
paths = (
{
closed = 1;
nodes = (
"638 0 LINE",
"405 385 LINE",
"609 692 LINE",
"409 692 LINE",
"242 396 LINE",
"242 364 LINE",
"408 0 LINE"
);
},
{
closed = 1;
nodes = (
"246 0 LINE",
"246 692 LINE",
"56 692 LINE",
"56 0 LINE"
);
}
);
width = 628;
}
);
leftMetricsKey = h.sc;
userData = {
RMXScaler = {
source = K;
};
};
},
{
glyphname = l.sc;
lastChange = "2018-10-23 01:53:41 +0000";
layers = (
{
layerId = "44A3F285-AC1C-4A7F-B2BD-0C498DBF5AFB";
paths = (
{
closed = 1;
nodes = (
"174 0 LINE",
"174 549 LINE",
"88 549 LINE",
"88 0 LINE"
);
},
{
closed = 1;
nodes = (
"411 0 LINE",
"411 72 LINE",
"151 72 LINE",
"151 0 LINE"
);
}
);
userData = {
RMXScaler = {
adjustSpace = 10;
height = 80;
width = 90;
};
};
width = 444;
},
{
layerId = "2F5B831B-86AF-41A9-958D-3871EE4B7007";
paths = (
{
closed = 1;
nodes = (
"256 0 LINE",
"256 692 LINE",
"56 692 LINE",
"56 0 LINE"
);
},
{
closed = 1;
nodes = (
"495 0 LINE",
"495 160 LINE",
"163 160 LINE",
"163 0 LINE"
);
}
);
width = 510;
}
);
leftMetricsKey = h.sc;
userData = {
RMXScaler = {
source = L;
};
};
},
{
glyphname = m.sc;
lastChange = "2018-10-23 01:53:41 +0000";
layers = (
{
layerId = "44A3F285-AC1C-4A7F-B2BD-0C498DBF5AFB";
paths = (
{
closed = 1;
nodes = (
"139 0 LINE",
"165 466 LINE",
"294 6 LINE",
"393 6 LINE",
"528 466 LINE",
"561 0 LINE",
"654 0 LINE",
"600 549 LINE",
"471 549 LINE",
"350 106 LINE",
"231 549 LINE",
"97 549 LINE",
"53 0 LINE"
);
}
);
userData = {
RMXScaler = {
adjustSpace = 10;
height = 80;
width = 90;
};
};
width = 709;
},
{
layerId = "2F5B831B-86AF-41A9-958D-3871EE4B7007";
paths = (
{
closed = 1;
nodes = (
"189 0 LINE",
"209 505 LINE",
"280 38 LINE",
"511 38 LINE",
"580 505 LINE",
"611 0 LINE",
"818 0 LINE",
"726 692 LINE",
"471 692 LINE",
"405 215 LINE",
"328 692 LINE",
"69 692 LINE",
"5 0 LINE"
);
}
);
width = 823;
}
);
userData = {
RMXScaler = {
source = M;
};
};
},
{
glyphname = n.sc;
lastChange = "2018-10-23 01:53:41 +0000";
layers = (
{
anchors = (
{
name = top;
position = "{311, 549}";
}
);
layerId = "44A3F285-AC1C-4A7F-B2BD-0C498DBF5AFB";
paths = (
{
closed = 1;
nodes = (
"172 0 LINE",
"172 319 LINE SMOOTH",
"172 383 OFFCURVE",
"169 428 OFFCURVE",
"165 461 CURVE",
"390 0 LINE",
"514 0 LINE",
"514 549 LINE",
"430 549 LINE",
"430 250 LINE SMOOTH",
"430 184 OFFCURVE",
"433 123 OFFCURVE",
"437 89 CURVE",
"207 549 LINE",
"88 549 LINE",
"88 0 LINE"
);
}
);
userData = {
RMXScaler = {
adjustSpace = 10;
height = 80;
width = 90;
};
};
width = 602;
},
{
anchors = (
{
name = top;
position = "{353, 692}";
}
);
layerId = "2F5B831B-86AF-41A9-958D-3871EE4B7007";
paths = (
{
closed = 1;
nodes = (
"234 0 LINE",
"234 353 LINE SMOOTH",
"234 444 OFFCURVE",
"229 491 OFFCURVE",
"221 541 CURVE",
"355 0 LINE",
"630 0 LINE",
"630 692 LINE",
"452 692 LINE",
"452 364 LINE SMOOTH",
"452 273 OFFCURVE",
"457 211 OFFCURVE",
"465 161 CURVE",
"326 692 LINE",
"56 692 LINE",
"56 0 LINE"
);
}
);
width = 686;
}
);
leftMetricsKey = h.sc;
rightMetricsKey = h.sc;
userData = {
RMXScaler = {
source = N;
};
};
},
{
glyphname = o.sc;
lastChange = "2018-10-23 01:53:41 +0000";
layers = (
{
anchors = (
{
name = top;
position = "{281, 549}";
}
);
layerId = "44A3F285-AC1C-4A7F-B2BD-0C498DBF5AFB";
paths = (
{
closed = 1;
nodes = (
"442 -11 OFFCURVE",
"509 97 OFFCURVE",
"509 274 CURVE SMOOTH",
"509 452 OFFCURVE",
"442 560 OFFCURVE",
"281 560 CURVE SMOOTH",
"121 560 OFFCURVE",
"63 452 OFFCURVE",
"63 274 CURVE SMOOTH",
"63 97 OFFCURVE",
"121 -11 OFFCURVE",
"281 -11 CURVE SMOOTH"
);
},
{
closed = 1;
nodes = (
"183 59 OFFCURVE",
"155 143 OFFCURVE",
"155 274 CURVE SMOOTH",
"155 406 OFFCURVE",
"183 492 OFFCURVE",
"281 492 CURVE SMOOTH",
"380 492 OFFCURVE",
"417 406 OFFCURVE",
"417 274 CURVE SMOOTH",
"417 143 OFFCURVE",
"380 59 OFFCURVE",
"281 59 CURVE SMOOTH"
);
}
);
userData = {
RMXScaler = {
adjustSpace = 10;
height = 80;
width = 90;
};
};
width = 572;
},
{
anchors = (
{
name = top;
position = "{323, 692}";
}
);
layerId = "2F5B831B-86AF-41A9-958D-3871EE4B7007";
paths = (
{
closed = 1;
nodes = (
"531 -18 OFFCURVE",
"616 113 OFFCURVE",
"616 343 CURVE SMOOTH",
"616 573 OFFCURVE",
"531 710 OFFCURVE",
"323 710 CURVE SMOOTH",
"116 710 OFFCURVE",
"42 573 OFFCURVE",
"42 343 CURVE SMOOTH",
"42 113 OFFCURVE",
"116 -18 OFFCURVE",
"323 -18 CURVE SMOOTH"
);
},
{
closed = 1;
nodes = (
"259 123 OFFCURVE",
"251 203 OFFCURVE",
"251 343 CURVE SMOOTH",
"251 483 OFFCURVE",
"259 570 OFFCURVE",
"326 570 CURVE SMOOTH",
"393 570 OFFCURVE",
"407 483 OFFCURVE",
"407 343 CURVE SMOOTH",
"407 203 OFFCURVE",
"393 123 OFFCURVE",
"326 123 CURVE SMOOTH"
);
}
);
width = 658;
}
);
userData = {
RMXScaler = {
source = O;
};
};
},
{
glyphname = p.sc;
lastChange = "2018-10-23 01:53:41 +0000";
layers = (
{
layerId = "44A3F285-AC1C-4A7F-B2BD-0C498DBF5AFB";
paths = (
{
closed = 1;
nodes = (
"261 225 LINE SMOOTH",
"377 225 OFFCURVE",
"440 294 OFFCURVE",
"440 389 CURVE SMOOTH",
"440 481 OFFCURVE",
"379 549 OFFCURVE",
"261 549 CURVE SMOOTH",
"122 549 LINE",
"122 484 LINE",
"240 484 LINE SMOOTH",
"322 484 OFFCURVE",
"345 435 OFFCURVE",
"345 389 CURVE SMOOTH",
"345 345 OFFCURVE",
"323 291 OFFCURVE",
"240 291 CURVE SMOOTH",
"122 291 LINE",
"122 225 LINE"
);
},
{
closed = 1;
nodes = (
"174 0 LINE",
"174 549 LINE",
"88 549 LINE",
"88 0 LINE"
);
}
);
userData = {
RMXScaler = {
adjustSpace = 10;
height = 80;
width = 90;
};
};
width = 490;
},
{
layerId = "2F5B831B-86AF-41A9-958D-3871EE4B7007";
paths = (
{
closed = 1;
nodes = (
"342 254 LINE SMOOTH",
"471 254 OFFCURVE",
"550 357 OFFCURVE",
"550 476 CURVE SMOOTH",
"550 591 OFFCURVE",
"473 692 OFFCURVE",
"342 692 CURVE SMOOTH",
"141 692 LINE",
"141 552 LINE",
"274 552 LINE SMOOTH",
"314 552 OFFCURVE",
"339 520 OFFCURVE",
"339 476 CURVE SMOOTH",
"339 432 OFFCURVE",
"314 392 OFFCURVE",
"274 392 CURVE SMOOTH",
"141 392 LINE",
"141 254 LINE"
);
},
{
closed = 1;
nodes = (
"256 0 LINE",
"256 692 LINE",
"56 692 LINE",
"56 0 LINE"
);
}
);
width = 565;
}
);
leftMetricsKey = h.sc;
userData = {
RMXScaler = {
source = P;
};
};
},
{
glyphname = q.sc;
lastChange = "2018-10-23 01:53:41 +0000";
layers = (
{
layerId = "44A3F285-AC1C-4A7F-B2BD-0C498DBF5AFB";
paths = (
{
closed = 1;
nodes = (
"575 -41 LINE",
"540 -31 OFFCURVE",
"514 -22 OFFCURVE",
"481 -8 CURVE SMOOTH",
"451 5 OFFCURVE",
"409 16 OFFCURVE",
"396 18 CURVE",
"288 -9 LINE",
"346 -9 OFFCURVE",
"368 -22 OFFCURVE",
"433 -64 CURVE SMOOTH",
"469 -88 OFFCURVE",
"503 -109 OFFCURVE",
"543 -126 CURVE"
);
},
{
closed = 1;
nodes = (
"398 18 LINE",
"477 58 OFFCURVE",
"512 150 OFFCURVE",
"512 275 CURVE SMOOTH",
"512 454 OFFCURVE",
"443 560 OFFCURVE",
"283 560 CURVE SMOOTH",
"123 560 OFFCURVE",
"63 454 OFFCURVE",
"63 275 CURVE SMOOTH",
"63 96 OFFCURVE",
"121 -9 OFFCURVE",
"289 -9 CURVE"
);
},
{
closed = 1;
nodes = (
"185 59 OFFCURVE",
"155 140 OFFCURVE",
"155 274 CURVE SMOOTH",
"155 411 OFFCURVE",
"185 492 OFFCURVE",
"283 492 CURVE SMOOTH",
"381 492 OFFCURVE",
"419 410 OFFCURVE",
"419 274 CURVE SMOOTH",
"419 140 OFFCURVE",
"381 59 OFFCURVE",
"283 59 CURVE SMOOTH"
);
}
);
userData = {
RMXScaler = {
adjustSpace = 10;
height = 80;
width = 90;
};
};
width = 593;
},
{
layerId = "2F5B831B-86AF-41A9-958D-3871EE4B7007";
paths = (
{
closed = 1;
nodes = (
"692 -19 LINE",
"655 -8 OFFCURVE",
"632 -1 OFFCURVE",
"596 13 CURVE SMOOTH",
"558 28 OFFCURVE",
"542 33 OFFCURVE",
"527 34 CURVE",
"346 -18 LINE",
"414 -18 OFFCURVE",
"438 -36 OFFCURVE",
"505 -90 CURVE SMOOTH",
"563 -136 OFFCURVE",
"591 -157 OFFCURVE",
"644 -180 CURVE"
);
},
{
closed = 1;
nodes = (
"524 31 LINE",
"608 85 OFFCURVE",
"655 192 OFFCURVE",
"655 345 CURVE SMOOTH",
"655 586 OFFCURVE",
"547 710 OFFCURVE",
"344 710 CURVE SMOOTH",
"141 710 OFFCURVE",
"42 586 OFFCURVE",
"42 345 CURVE SMOOTH",
"42 106 OFFCURVE",
"142 -18 OFFCURVE",
"348 -18 CURVE"
);
},
{
closed = 1;
nodes = (
"277 121 OFFCURVE",
"257 188 OFFCURVE",
"257 343 CURVE SMOOTH",
"257 500 OFFCURVE",
"277 570 OFFCURVE",
"345 570 CURVE SMOOTH",
"411 570 OFFCURVE",
"437 500 OFFCURVE",
"437 343 CURVE SMOOTH",
"437 188 OFFCURVE",
"411 121 OFFCURVE",
"345 121 CURVE SMOOTH"
);
}
);
width = 692;
}
);
leftMetricsKey = o.sc;
userData = {
RMXScaler = {
source = Q;
};
};
},
{
glyphname = r.sc;
lastChange = "2018-10-23 01:53:41 +0000";
layers = (
{
layerId = "44A3F285-AC1C-4A7F-B2BD-0C498DBF5AFB";
paths = (
{
closed = 1;
nodes = (
"286 238 LINE",
"359 244 OFFCURVE",
"441 299 OFFCURVE",
"441 397 CURVE SMOOTH",
"441 486 OFFCURVE",
"377 549 OFFCURVE",
"261 549 CURVE SMOOTH",
"141 549 LINE",
"141 484 LINE",
"240 484 LINE SMOOTH",
"320 484 OFFCURVE",
"346 440 OFFCURVE",
"346 397 CURVE SMOOTH",
"346 351 OFFCURVE",
"320 302 OFFCURVE",
"240 302 CURVE SMOOTH",
"141 302 LINE",
"141 238 LINE"
);
},
{
closed = 1;
nodes = (
"174 0 LINE",
"174 549 LINE",
"88 549 LINE",
"88 0 LINE"
);
},
{
closed = 1;
nodes = (
"478 0 LINE",
"478 4 LINE",
"293 253 LINE",
"208 249 LINE",
"374 0 LINE"
);
}
);
userData = {
RMXScaler = {
adjustSpace = 10;
height = 80;
width = 90;
};
};
width = 508;
},
{
layerId = "2F5B831B-86AF-41A9-958D-3871EE4B7007";
paths = (
{
closed = 1;
nodes = (
"342 262 LINE SMOOTH",
"471 262 OFFCURVE",
"550 358 OFFCURVE",
"550 477 CURVE SMOOTH",
"550 592 OFFCURVE",
"473 692 OFFCURVE",
"342 692 CURVE SMOOTH",
"141 692 LINE",
"141 552 LINE",
"274 552 LINE SMOOTH",
"314 552 OFFCURVE",
"339 521 OFFCURVE",
"339 477 CURVE SMOOTH",
"339 433 OFFCURVE",
"314 394 OFFCURVE",
"274 394 CURVE SMOOTH",
"141 394 LINE",
"141 262 LINE"
);
},
{
closed = 1;
nodes = (
"256 0 LINE",
"256 692 LINE",
"56 692 LINE",
"56 0 LINE"
);
},
{
closed = 1;
nodes = (
"604 0 LINE",
"604 5 LINE",
"422 294 LINE",
"245 294 LINE",
"377 0 LINE"
);
}
);
width = 589;
}
);
leftMetricsKey = h.sc;
userData = {
RMXScaler = {
source = R;
};
};
},
{
glyphname = s.sc;
lastChange = "2018-10-23 01:53:41 +0000";
layers = (
{
annotations = (
{
position = "{106.069, 597.031}";
type = Minus;
}
);
layerId = "44A3F285-AC1C-4A7F-B2BD-0C498DBF5AFB";
paths = (
{
closed = 1;
nodes = (
"344 -11 OFFCURVE",
"416 57 OFFCURVE",
"416 151 CURVE SMOOTH",
"416 233 OFFCURVE",
"358 274 OFFCURVE",
"260 317 CURVE SMOOTH",
"165 359 OFFCURVE",
"139 383 OFFCURVE",
"139 419 CURVE SMOOTH",
"139 461 OFFCURVE",
"171 491 OFFCURVE",
"239 491 CURVE SMOOTH",
"273 491 OFFCURVE",
"314 483 OFFCURVE",
"357 459 CURVE",
"383 523 LINE",
"339 544 OFFCURVE",
"294 560 OFFCURVE",
"232 560 CURVE SMOOTH",
"118 560 OFFCURVE",
"49 504 OFFCURVE",
"49 419 CURVE SMOOTH",
"49 363 OFFCURVE",
"78 310 OFFCURVE",
"194 259 CURVE SMOOTH",
"287 218 OFFCURVE",
"325 196 OFFCURVE",
"325 150 CURVE SMOOTH",
"325 106 OFFCURVE",
"292 62 OFFCURVE",
"210 62 CURVE SMOOTH",
"154 62 OFFCURVE",
"106 85 OFFCURVE",
"67 116 CURVE",
"31 51 LINE",
"80 13 OFFCURVE",
"143 -11 OFFCURVE",
"217 -11 CURVE SMOOTH"
);
}
);
userData = {
RMXScaler = {
adjustSpace = 10;
height = 80;
width = 90;
};
};
width = 473;
},
{
layerId = "2F5B831B-86AF-41A9-958D-3871EE4B7007";
paths = (
{
closed = 1;
nodes = (
"392 -18 OFFCURVE",
"525 48 OFFCURVE",
"525 194 CURVE SMOOTH",
"525 310 OFFCURVE",
"426 368 OFFCURVE",
"325 419 CURVE SMOOTH",
"232 466 OFFCURVE",
"225 484 OFFCURVE",
"225 507 CURVE SMOOTH",
"225 542 OFFCURVE",
"249 559 OFFCURVE",
"299 559 CURVE SMOOTH",
"343 559 OFFCURVE",
"378 547 OFFCURVE",
"425 520 CURVE",
"478 663 LINE",
"423 689 OFFCURVE",
"368 710 OFFCURVE",
"257 710 CURVE SMOOTH",
"126 710 OFFCURVE",
"22 636 OFFCURVE",
"22 507 CURVE SMOOTH",
"22 417 OFFCURVE",
"74 352 OFFCURVE",
"188 297 CURVE SMOOTH",
"286 250 OFFCURVE",
"316 234 OFFCURVE",
"316 196 CURVE SMOOTH",
"316 155 OFFCURVE",
"281 142 OFFCURVE",
"233 142 CURVE SMOOTH",
"156 142 OFFCURVE",
"95 177 OFFCURVE",
"53 211 CURVE",
"-15 69 LINE",
"53 16 OFFCURVE",
"138 -18 OFFCURVE",
"252 -18 CURVE SMOOTH"
);
}
);
width = 525;
}
);
userData = {
RMXScaler = {
source = S;
};
};
},
{
glyphname = t.sc;
lastChange = "2018-10-23 01:53:41 +0000";
layers = (
{
layerId = "44A3F285-AC1C-4A7F-B2BD-0C498DBF5AFB";
paths = (
{
closed = 1;
nodes = (
"258 0 LINE",
"258 549 LINE",
"172 549 LINE",
"172 0 LINE"
);
},
{
closed = 1;
nodes = (
"418 480 LINE",
"418 549 LINE",
"11 549 LINE",
"11 480 LINE"
);
}
);
userData = {
RMXScaler = {
adjustSpace = 10;
height = 80;
width = 90;
};
};
width = 429;
},
{
layerId = "2F5B831B-86AF-41A9-958D-3871EE4B7007";
paths = (
{
closed = 1;
nodes = (
"351 0 LINE",
"351 692 LINE",
"151 692 LINE",
"151 0 LINE"
);
},
{
closed = 1;
nodes = (
"490 549 LINE",
"490 692 LINE",
"12 692 LINE",
"12 549 LINE"
);
}
);
width = 502;
}
);
userData = {
RMXScaler = {
source = T;
};
};
},
{
glyphname = u.sc;
lastChange = "2018-10-23 01:53:41 +0000";
layers = (
{
anchors = (
{
name = top;
position = "{285, 549}";
}
);
layerId = "44A3F285-AC1C-4A7F-B2BD-0C498DBF5AFB";
paths = (
{
closed = 1;
nodes = (
"452 -10 OFFCURVE",
"485 87 OFFCURVE",
"485 198 CURVE SMOOTH",
"485 549 LINE",
"400 549 LINE",
"400 219 LINE SMOOTH",
"400 127 OFFCURVE",
"376 62 OFFCURVE",
"284 62 CURVE SMOOTH",
"192 62 OFFCURVE",
"170 127 OFFCURVE",
"170 215 CURVE SMOOTH",
"170 549 LINE",
"84 549 LINE",
"84 198 LINE SMOOTH",
"84 78 OFFCURVE",
"128 -10 OFFCURVE",
"285 -10 CURVE SMOOTH"
);
}
);
userData = {
RMXScaler = {
adjustSpace = 10;
height = 80;
width = 90;
};
};
width = 570;
},
{
anchors = (
{
name = top;
position = "{294, 692}";
}
);
layerId = "2F5B831B-86AF-41A9-958D-3871EE4B7007";
paths = (
{
closed = 1;
nodes = (
"475 -12 OFFCURVE",
"561 73 OFFCURVE",
"561 247 CURVE SMOOTH",
"561 692 LINE",
"361 692 LINE",
"361 321 LINE SMOOTH",
"361 194 OFFCURVE",
"359 142 OFFCURVE",
"293 142 CURVE SMOOTH",
"227 142 OFFCURVE",
"225 194 OFFCURVE",
"225 321 CURVE SMOOTH",
"225 692 LINE",
"24 692 LINE",
"24 247 LINE SMOOTH",
"24 73 OFFCURVE",
"116 -12 OFFCURVE",
"294 -12 CURVE SMOOTH"
);
}
);
width = 600;
}
);
userData = {
RMXScaler = {
source = U;
};
};
},
{
glyphname = v.sc;
lastChange = "2018-10-23 01:53:41 +0000";
layers = (
{
layerId = "44A3F285-AC1C-4A7F-B2BD-0C498DBF5AFB";
paths = (
{
closed = 1;
nodes = (
"312 0 LINE",
"496 549 LINE",
"405 549 LINE",
"265 89 LINE",
"131 549 LINE",
"33 549 LINE",
"214 0 LINE"
);
}
);
userData = {
RMXScaler = {
adjustSpace = 10;
height = 80;
width = 90;
};
};
width = 529;
},
{
layerId = "2F5B831B-86AF-41A9-958D-3871EE4B7007";
paths = (
{
closed = 1;
nodes = (
"436 0 LINE",
"627 692 LINE",
"431 692 LINE",
"324 154 LINE",
"226 692 LINE",
"8 692 LINE",
"208 0 LINE"
);
}
);
width = 635;
}
);
userData = {
RMXScaler = {
source = V;
};
};
},
{
glyphname = w.sc;
lastChange = "2018-10-23 01:53:41 +0000";
layers = (
{
layerId = "44A3F285-AC1C-4A7F-B2BD-0C498DBF5AFB";
paths = (
{
closed = 1;
nodes = (
"263 0 LINE",
"373 453 LINE",
"480 0 LINE",
"592 0 LINE",
"717 549 LINE",
"626 549 LINE",
"540 93 LINE",
"432 549 LINE",
"325 549 LINE",
"214 92 LINE",
"131 549 LINE",
"33 549 LINE",
"156 0 LINE"
);
}
);
userData = {
RMXScaler = {
adjustSpace = 10;
height = 80;
width = 90;
};
};
width = 750;
},
{
layerId = "2F5B831B-86AF-41A9-958D-3871EE4B7007";
paths = (
{
closed = 1;
nodes = (
"381 0 LINE",
"440 512 LINE",
"500 0 LINE",
"758 0 LINE",
"868 692 LINE",
"672 692 LINE",
"623 188 LINE",
"569 692 LINE",
"331 692 LINE",
"270 188 LINE",
"222 692 LINE",
"8 692 LINE",
"123 0 LINE"
);
}
);
width = 876;
}
);
userData = {
RMXScaler = {
source = W;
};
};
},
{
glyphname = x.sc;
lastChange = "2018-10-23 01:53:41 +0000";
layers = (
{
annotations = (
{
position = "{237.531, 332.563}";
type = Plus;
},
{
position = "{236.682, 417.202}";
type = Plus;
},
{
position = "{306.864, 423.012}";
type = Plus;
},
{
position = "{301.145, 335.123}";
type = Plus;
}
);
layerId = "44A3F285-AC1C-4A7F-B2BD-0C498DBF5AFB";
paths = (
{
closed = 1;
nodes = (
"503 0 LINE",
"323 289 LINE",
"274 348 LINE",
"150 549 LINE",
"51 549 LINE",
"222 289 LINE",
"273 225 LINE",
"403 0 LINE"
);
},
{
closed = 1;
nodes = (
"136 0 LINE",
"273 225 LINE",
"323 289 LINE",
"493 549 LINE",
"398 549 LINE",
"274 348 LINE",
"222 289 LINE",
"41 0 LINE"
);
}
);
userData = {
RMXScaler = {
adjustSpace = 10;
height = 80;
width = 90;
};
};
width = 544;
},
{
layerId = "2F5B831B-86AF-41A9-958D-3871EE4B7007";
paths = (
{
closed = 1;
nodes = (
"607 0 LINE",
"418 372 LINE",
"306 487 LINE",
"234 692 LINE",
"16 692 LINE",
"190 372 LINE",
"304 237 LINE",
"388 0 LINE"
);
},
{
closed = 1;
nodes = (
"205 0 LINE",
"304 237 LINE",
"418 372 LINE",
"597 692 LINE",
"400 692 LINE",
"306 487 LINE",
"190 372 LINE",
"8 0 LINE"
);
}
);
width = 615;
}
);
userData = {
RMXScaler = {
source = X;
};
};
},
{
glyphname = y.sc;
lastChange = "2018-10-23 01:53:41 +0000";
layers = (
{
layerId = "44A3F285-AC1C-4A7F-B2BD-0C498DBF5AFB";
paths = (
{
closed = 1;
nodes = (
"297 0 LINE",
"297 246 LINE",
"476 549 LINE",
"385 549 LINE",
"257 315 LINE",
"130 549 LINE",
"32 549 LINE",
"211 246 LINE",
"211 0 LINE"
);
}
);
userData = {
RMXScaler = {
adjustSpace = 10;
height = 80;
width = 90;
};
};
width = 508;
},
{
layerId = "2F5B831B-86AF-41A9-958D-3871EE4B7007";
paths = (
{
closed = 1;
nodes = (
"401 0 LINE",
"401 286 LINE",
"595 692 LINE",
"399 692 LINE",
"306 435 LINE",
"218 692 LINE",
"0 692 LINE",
"201 286 LINE",
"201 0 LINE"
);
}
);
width = 595;
}
);
userData = {
RMXScaler = {
source = Y;
};
};
},
{
glyphname = z.sc;
lastChange = "2018-10-23 01:53:41 +0000";
layers = (
{
layerId = "44A3F285-AC1C-4A7F-B2BD-0C498DBF5AFB";
paths = (
{
closed = 1;
nodes = (
"453 0 LINE",
"442 72 LINE",
"142 72 LINE",
"444 492 LINE",
"444 549 LINE",
"60 549 LINE",
"60 478 LINE",
"338 478 LINE",
"33 58 LINE",
"33 0 LINE"
);
}
);
userData = {
RMXScaler = {
adjustSpace = 10;
height = 80;
width = 90;
};
};
width = 490;
},
{
layerId = "2F5B831B-86AF-41A9-958D-3871EE4B7007";
paths = (
{
closed = 1;
nodes = (
"507 0 LINE",
"493 150 LINE",
"226 150 LINE",
"491 559 LINE",
"491 692 LINE",
"27 692 LINE",
"27 541 LINE",
"274 541 LINE",
"5 132 LINE",
"5 0 LINE"
);
}
);
width = 512;
}
);
userData = {
RMXScaler = {
source = Z;
};
};
},
{
glyphname = zero;
lastChange = "2018-10-07 14:05:28 +0000";
layers = (
{
layerId = "44A3F285-AC1C-4A7F-B2BD-0C498DBF5AFB";
paths = (
{
closed = 1;
nodes = (
"447 -12 OFFCURVE",
"514 121 OFFCURVE",
"514 333 CURVE SMOOTH",
"514 545 OFFCURVE",
"447 677 OFFCURVE",
"287 677 CURVE SMOOTH",
"130 677 OFFCURVE",
"70 545 OFFCURVE",
"70 333 CURVE SMOOTH",
"70 121 OFFCURVE",
"130 -12 OFFCURVE",
"287 -12 CURVE SMOOTH"
);
},
{
closed = 1;
nodes = (
"186 60 OFFCURVE",
"160 171 OFFCURVE",
"160 333 CURVE SMOOTH",
"160 495 OFFCURVE",
"186 607 OFFCURVE",
"287 607 CURVE SMOOTH",
"389 607 OFFCURVE",
"424 495 OFFCURVE",
"424 333 CURVE SMOOTH",
"424 171 OFFCURVE",
"389 60 OFFCURVE",
"287 60 CURVE SMOOTH"
);
}
);
width = 584;
},
{
layerId = "2F5B831B-86AF-41A9-958D-3871EE4B7007";
width = 600;
}
);
unicode = 0030;
},
{
glyphname = one;
lastChange = "2018-09-10 18:13:07 +0000";
layers = (
{
layerId = "44A3F285-AC1C-4A7F-B2BD-0C498DBF5AFB";
paths = (
{
closed = 1;
nodes = (
"283 0 LINE",
"283 665 LINE",
"206 665 LINE",
"166 597 OFFCURVE",
"112 562 OFFCURVE",
"40 528 CURVE",
"76 448 LINE",
"130 473 OFFCURVE",
"168 507 OFFCURVE",
"201 545 CURVE",
"198 523 OFFCURVE",
"197 505 OFFCURVE",
"197 486 CURVE SMOOTH",
"197 0 LINE"
);
}
);
width = 378;
},
{
layerId = "2F5B831B-86AF-41A9-958D-3871EE4B7007";
width = 600;
}
);
unicode = 0031;
},
{
glyphname = two;
lastChange = "2018-10-07 15:30:48 +0000";
layers = (
{
layerId = "44A3F285-AC1C-4A7F-B2BD-0C498DBF5AFB";
paths = (
{
closed = 1;
nodes = (
"474 0 LINE",
"460 74 LINE",
"222 74 LINE SMOOTH",
"199 74 OFFCURVE",
"173 72 OFFCURVE",
"144 66 CURVE",
"348 260 OFFCURVE",
"443 375 OFFCURVE",
"443 496 CURVE SMOOTH",
"443 616 OFFCURVE",
"359 677 OFFCURVE",
"248 677 CURVE SMOOTH",
"164 677 OFFCURVE",
"105 647 OFFCURVE",
"45 595 CURVE",
"90 523 LINE",
"140 571 OFFCURVE",
"187 604 OFFCURVE",
"245 604 CURVE SMOOTH",
"315 604 OFFCURVE",
"351 555 OFFCURVE",
"351 497 CURVE SMOOTH",
"351 436 OFFCURVE",
"313 310 OFFCURVE",
"40 71 CURVE",
"40 0 LINE"
);
}
);
width = 524;
},
{
layerId = "2F5B831B-86AF-41A9-958D-3871EE4B7007";
width = 600;
}
);
unicode = 0032;
},
{
glyphname = three;
lastChange = "2018-09-10 18:14:31 +0000";
layers = (
{
layerId = "44A3F285-AC1C-4A7F-B2BD-0C498DBF5AFB";
paths = (
{
closed = 1;
nodes = (
"372 -12 OFFCURVE",
"453 81 OFFCURVE",
"453 194 CURVE SMOOTH",
"453 309 OFFCURVE",
"366 352 OFFCURVE",
"299 365 CURVE",
"362 389 OFFCURVE",
"427 423 OFFCURVE",
"427 517 CURVE SMOOTH",
"427 614 OFFCURVE",
"358 677 OFFCURVE",
"240 677 CURVE SMOOTH",
"164 677 OFFCURVE",
"100 653 OFFCURVE",
"36 608 CURVE",
"77 539 LINE",
"122 577 OFFCURVE",
"174 607 OFFCURVE",
"227 607 CURVE SMOOTH",
"284 607 OFFCURVE",
"335 572 OFFCURVE",
"335 510 CURVE SMOOTH",
"335 428 OFFCURVE",
"255 393 OFFCURVE",
"161 393 CURVE",
"161 324 LINE",
"264 324 OFFCURVE",
"359 295 OFFCURVE",
"359 194 CURVE SMOOTH",
"359 110 OFFCURVE",
"297 61 OFFCURVE",
"210 61 CURVE SMOOTH",
"165 61 OFFCURVE",
"116 75 OFFCURVE",
"68 105 CURVE",
"35 32 LINE",
"93 2 OFFCURVE",
"155 -12 OFFCURVE",
"216 -12 CURVE SMOOTH"
);
}
);
width = 523;
},
{
layerId = "2F5B831B-86AF-41A9-958D-3871EE4B7007";
width = 600;
}
);
unicode = 0033;
},
{
glyphname = four;
lastChange = "2018-09-10 18:14:41 +0000";
layers = (
{
layerId = "44A3F285-AC1C-4A7F-B2BD-0C498DBF5AFB";
paths = (
{
closed = 1;
nodes = (
"495 166 LINE",
"485 239 LINE",
"118 239 LINE",
"204 385 OFFCURVE",
"262 491 OFFCURVE",
"278 665 CURVE",
"188 665 LINE",
"172 495 OFFCURVE",
"121 385 OFFCURVE",
"25 230 CURVE",
"60 166 LINE"
);
},
{
closed = 1;
nodes = (
"409 0 LINE",
"409 470 LINE",
"323 470 LINE",
"323 0 LINE"
);
}
);
width = 530;
},
{
layerId = "2F5B831B-86AF-41A9-958D-3871EE4B7007";
width = 600;
}
);
unicode = 0034;
},
{
glyphname = five;
lastChange = "2018-09-10 18:15:02 +0000";
layers = (
{
guideLines = (
{
position = "{456, 437}";
},
{
position = "{454, 368}";
}
);
layerId = "44A3F285-AC1C-4A7F-B2BD-0C498DBF5AFB";
paths = (
{
closed = 1;
nodes = (
"375 -12 OFFCURVE",
"455 95 OFFCURVE",
"455 216 CURVE SMOOTH",
"455 329 OFFCURVE",
"390 417 OFFCURVE",
"262 417 CURVE SMOOTH",
"219 417 OFFCURVE",
"183 406 OFFCURVE",
"152 389 CURVE",
"180 591 LINE",
"407 591 LINE",
"417 665 LINE",
"103 665 LINE",
"67 345 LINE",
"111 298 LINE",
"154 328 OFFCURVE",
"196 348 OFFCURVE",
"242 348 CURVE SMOOTH",
"322 348 OFFCURVE",
"363 298 OFFCURVE",
"363 216 CURVE SMOOTH",
"363 134 OFFCURVE",
"317 58 OFFCURVE",
"212 58 CURVE SMOOTH",
"159 58 OFFCURVE",
"119 80 OFFCURVE",
"81 105 CURVE",
"50 32 LINE",
"95 4 OFFCURVE",
"154 -12 OFFCURVE",
"214 -12 CURVE SMOOTH"
);
}
);
width = 510;
},
{
layerId = "2F5B831B-86AF-41A9-958D-3871EE4B7007";
width = 600;
}
);
unicode = 0035;
},
{
glyphname = six;
lastChange = "2018-09-10 18:16:54 +0000";
layers = (
{
layerId = "44A3F285-AC1C-4A7F-B2BD-0C498DBF5AFB";
paths = (
{
closed = 1;
nodes = (
"423 -12 OFFCURVE",
"489 94 OFFCURVE",
"489 211 CURVE SMOOTH",
"489 328 OFFCURVE",
"410 423 OFFCURVE",
"298 423 CURVE SMOOTH",
"232 423 OFFCURVE",
"180 394 OFFCURVE",
"154 340 CURVE",
"155 470 OFFCURVE",
"179 607 OFFCURVE",
"301 607 CURVE SMOOTH",
"348 607 OFFCURVE",
"390 587 OFFCURVE",
"419 559 CURVE",
"462 628 LINE",
"413 659 OFFCURVE",
"363 677 OFFCURVE",
"300 677 CURVE SMOOTH",
"118 677 OFFCURVE",
"65 535 OFFCURVE",
"65 320 CURVE SMOOTH",
"65 132 OFFCURVE",
"108 -12 OFFCURVE",
"278 -12 CURVE SMOOTH"
);
},
{
closed = 1;
nodes = (
"200 57 OFFCURVE",
"165 132 OFFCURVE",
"165 207 CURVE SMOOTH",
"165 287 OFFCURVE",
"205 352 OFFCURVE",
"280 352 CURVE SMOOTH",
"355 352 OFFCURVE",
"397 286 OFFCURVE",
"397 207 CURVE SMOOTH",
"397 131 OFFCURVE",
"360 57 OFFCURVE",
"280 57 CURVE SMOOTH"
);
}
);
width = 544;
},
{
layerId = "2F5B831B-86AF-41A9-958D-3871EE4B7007";
width = 600;
}
);
unicode = 0036;
},
{
glyphname = seven;
lastChange = "2018-09-10 18:17:05 +0000";
layers = (
{
layerId = "44A3F285-AC1C-4A7F-B2BD-0C498DBF5AFB";
paths = (
{
closed = 1;
nodes = (
"231 0 LINE",
"231 289 OFFCURVE",
"329 467 OFFCURVE",
"420 588 CURVE",
"420 665 LINE",
"20 665 LINE",
"20 591 LINE",
"335 591 LINE",
"248 474 OFFCURVE",
"141 254 OFFCURVE",
"141 0 CURVE"
);
}
);
width = 450;
},
{
layerId = "2F5B831B-86AF-41A9-958D-3871EE4B7007";
width = 600;
}
);
unicode = 0037;
},
{
glyphname = eight;
lastChange = "2018-09-10 18:17:17 +0000";
layers = (
{
layerId = "44A3F285-AC1C-4A7F-B2BD-0C498DBF5AFB";
paths = (
{
closed = 1;
nodes = (
"393 -12 OFFCURVE",
"483 54 OFFCURVE",
"483 168 CURVE SMOOTH",
"483 245 OFFCURVE",
"437 290 OFFCURVE",
"294 382 CURVE SMOOTH",
"202 441 OFFCURVE",
"172 473 OFFCURVE",
"172 519 CURVE SMOOTH",
"172 572 OFFCURVE",
"217 612 OFFCURVE",
"272 612 CURVE SMOOTH",
"327 612 OFFCURVE",
"369 569 OFFCURVE",
"369 514 CURVE SMOOTH",
"369 469 OFFCURVE",
"341 428 OFFCURVE",
"278 389 CURVE",
"324 359 LINE",
"393 394 OFFCURVE",
"454 454 OFFCURVE",
"454 525 CURVE SMOOTH",
"454 596 OFFCURVE",
"398 677 OFFCURVE",
"272 677 CURVE SMOOTH",
"145 677 OFFCURVE",
"90 596 OFFCURVE",
"90 516 CURVE SMOOTH",
"90 439 OFFCURVE",
"141 393 OFFCURVE",
"250 324 CURVE SMOOTH",
"361 253 OFFCURVE",
"393 216 OFFCURVE",
"393 167 CURVE SMOOTH",
"393 100 OFFCURVE",
"336 55 OFFCURVE",
"270 55 CURVE SMOOTH",
"200 55 OFFCURVE",
"151 107 OFFCURVE",
"151 174 CURVE SMOOTH",
"151 245 OFFCURVE",
"207 293 OFFCURVE",
"256 322 CURVE",
"210 353 LINE",
"152 329 OFFCURVE",
"61 275 OFFCURVE",
"61 168 CURVE SMOOTH",
"61 54 OFFCURVE",
"148 -12 OFFCURVE",
"270 -12 CURVE SMOOTH"
);
}
);
width = 544;
},
{
layerId = "2F5B831B-86AF-41A9-958D-3871EE4B7007";
width = 600;
}
);
unicode = 0038;
},
{
glyphname = nine;
lastChange = "2018-09-10 18:18:57 +0000";
layers = (
{
layerId = "44A3F285-AC1C-4A7F-B2BD-0C498DBF5AFB";
paths = (
{
closed = 1;
nodes = (
"119 677 OFFCURVE",
"55 565 OFFCURVE",
"55 448 CURVE SMOOTH",
"55 331 OFFCURVE",
"134 242 OFFCURVE",
"246 242 CURVE SMOOTH",
"312 242 OFFCURVE",
"364 270 OFFCURVE",
"390 324 CURVE",
"389 211 OFFCURVE",
"365 58 OFFCURVE",
"243 58 CURVE SMOOTH",
"196 58 OFFCURVE",
"154 78 OFFCURVE",
"125 106 CURVE",
"82 37 LINE",
"131 6 OFFCURVE",
"181 -12 OFFCURVE",
"244 -12 CURVE SMOOTH",
"429 -12 OFFCURVE",
"479 155 OFFCURVE",
"479 369 CURVE SMOOTH",
"479 547 OFFCURVE",
"422 677 OFFCURVE",
"264 677 CURVE SMOOTH"
);
},
{
closed = 1;
nodes = (
"344 608 OFFCURVE",
"379 527 OFFCURVE",
"379 452 CURVE SMOOTH",
"379 372 OFFCURVE",
"339 313 OFFCURVE",
"266 313 CURVE SMOOTH",
"189 313 OFFCURVE",
"147 378 OFFCURVE",
"147 457 CURVE SMOOTH",
"147 533 OFFCURVE",
"184 608 OFFCURVE",
"262 608 CURVE SMOOTH"
);
}
);
width = 544;
},
{
layerId = "2F5B831B-86AF-41A9-958D-3871EE4B7007";
width = 600;
}
);
unicode = 0039;
},
{
glyphname = zero.001;
lastChange = "2018-09-10 18:12:48 +0000";
layers = (
{
layerId = "44A3F285-AC1C-4A7F-B2BD-0C498DBF5AFB";
paths = (
{
closed = 1;
nodes = (
"450 -12 OFFCURVE",
"519 131 OFFCURVE",
"519 343 CURVE SMOOTH",
"519 555 OFFCURVE",
"450 697 OFFCURVE",
"287 697 CURVE SMOOTH",
"126 697 OFFCURVE",
"65 555 OFFCURVE",
"65 343 CURVE SMOOTH",
"65 131 OFFCURVE",
"126 -12 OFFCURVE",
"287 -12 CURVE SMOOTH"
);
},
{
closed = 1;
nodes = (
"184 60 OFFCURVE",
"157 181 OFFCURVE",
"157 343 CURVE SMOOTH",
"157 505 OFFCURVE",
"184 627 OFFCURVE",
"287 627 CURVE SMOOTH",
"391 627 OFFCURVE",
"427 505 OFFCURVE",
"427 343 CURVE SMOOTH",
"427 181 OFFCURVE",
"391 60 OFFCURVE",
"287 60 CURVE SMOOTH"
);
}
);
width = 584;
},
{
layerId = "2F5B831B-86AF-41A9-958D-3871EE4B7007";
width = 600;
}
);
},
{
glyphname = one.001;
lastChange = "2018-09-10 18:12:48 +0000";
layers = (
{
layerId = "44A3F285-AC1C-4A7F-B2BD-0C498DBF5AFB";
paths = (
{
closed = 1;
nodes = (
"283 0 LINE",
"283 685 LINE",
"206 685 LINE",
"166 617 OFFCURVE",
"112 582 OFFCURVE",
"40 548 CURVE",
"76 468 LINE",
"130 493 OFFCURVE",
"168 527 OFFCURVE",
"201 565 CURVE",
"198 543 OFFCURVE",
"197 525 OFFCURVE",
"197 506 CURVE SMOOTH",
"197 0 LINE"
);
}
);
width = 378;
},
{
layerId = "2F5B831B-86AF-41A9-958D-3871EE4B7007";
width = 600;
}
);
},
{
glyphname = two.001;
lastChange = "2018-09-10 18:12:48 +0000";
layers = (
{
layerId = "44A3F285-AC1C-4A7F-B2BD-0C498DBF5AFB";
paths = (
{
closed = 1;
nodes = (
"474 0 LINE",
"460 74 LINE",
"220 74 LINE SMOOTH",
"197 74 OFFCURVE",
"171 72 OFFCURVE",
"142 66 CURVE",
"346 280 OFFCURVE",
"442 395 OFFCURVE",
"442 516 CURVE SMOOTH",
"442 636 OFFCURVE",
"359 697 OFFCURVE",
"248 697 CURVE SMOOTH",
"164 697 OFFCURVE",
"105 667 OFFCURVE",
"45 615 CURVE",
"90 543 LINE",
"140 591 OFFCURVE",
"187 624 OFFCURVE",
"245 624 CURVE SMOOTH",
"315 624 OFFCURVE",
"351 575 OFFCURVE",
"351 517 CURVE SMOOTH",
"351 456 OFFCURVE",
"313 330 OFFCURVE",
"40 71 CURVE",
"40 0 LINE"
);
}
);
width = 524;
},
{
layerId = "2F5B831B-86AF-41A9-958D-3871EE4B7007";
width = 600;
}
);
},
{
glyphname = three.001;
lastChange = "2018-09-10 18:12:48 +0000";
layers = (
{
layerId = "44A3F285-AC1C-4A7F-B2BD-0C498DBF5AFB";
paths = (
{
closed = 1;
nodes = (
"372 -12 OFFCURVE",
"453 82 OFFCURVE",
"453 195 CURVE SMOOTH",
"453 310 OFFCURVE",
"366 362 OFFCURVE",
"299 375 CURVE",
"362 399 OFFCURVE",
"427 439 OFFCURVE",
"427 533 CURVE SMOOTH",
"427 630 OFFCURVE",
"358 697 OFFCURVE",
"240 697 CURVE SMOOTH",
"164 697 OFFCURVE",
"100 673 OFFCURVE",
"36 628 CURVE",
"77 559 LINE",
"122 597 OFFCURVE",
"174 627 OFFCURVE",
"227 627 CURVE SMOOTH",
"284 627 OFFCURVE",
"335 588 OFFCURVE",
"335 526 CURVE SMOOTH",
"335 444 OFFCURVE",
"255 403 OFFCURVE",
"161 403 CURVE",
"161 334 LINE",
"264 334 OFFCURVE",
"359 296 OFFCURVE",
"359 195 CURVE SMOOTH",
"359 111 OFFCURVE",
"297 61 OFFCURVE",
"210 61 CURVE SMOOTH",
"165 61 OFFCURVE",
"116 75 OFFCURVE",
"68 105 CURVE",
"35 32 LINE",
"93 2 OFFCURVE",
"155 -12 OFFCURVE",
"216 -12 CURVE SMOOTH"
);
}
);
width = 523;
},
{
layerId = "2F5B831B-86AF-41A9-958D-3871EE4B7007";
width = 600;
}
);
},
{
glyphname = four.001;
lastChange = "2018-09-10 18:12:48 +0000";
layers = (
{
layerId = "44A3F285-AC1C-4A7F-B2BD-0C498DBF5AFB";
paths = (
{
closed = 1;
nodes = (
"495 166 LINE",
"485 239 LINE",
"118 239 LINE",
"204 385 OFFCURVE",
"262 511 OFFCURVE",
"278 685 CURVE",
"188 685 LINE",
"172 515 OFFCURVE",
"121 385 OFFCURVE",
"25 230 CURVE",
"60 166 LINE"
);
},
{
closed = 1;
nodes = (
"409 0 LINE",
"409 470 LINE",
"323 470 LINE",
"323 0 LINE"
);
}
);
width = 530;
},
{
layerId = "2F5B831B-86AF-41A9-958D-3871EE4B7007";
width = 600;
}
);
},
{
glyphname = five.001;
lastChange = "2018-09-10 18:12:48 +0000";
layers = (
{
guideLines = (
{
position = "{456, 437}";
},
{
position = "{454, 368}";
}
);
layerId = "44A3F285-AC1C-4A7F-B2BD-0C498DBF5AFB";
paths = (
{
closed = 1;
nodes = (
"375 -12 OFFCURVE",
"455 105 OFFCURVE",
"455 226 CURVE SMOOTH",
"455 339 OFFCURVE",
"390 437 OFFCURVE",
"262 437 CURVE SMOOTH",
"219 437 OFFCURVE",
"183 426 OFFCURVE",
"152 409 CURVE",
"180 611 LINE",
"407 611 LINE",
"417 685 LINE",
"103 685 LINE",
"67 365 LINE",
"111 318 LINE",
"154 348 OFFCURVE",
"196 368 OFFCURVE",
"242 368 CURVE SMOOTH",
"322 368 OFFCURVE",
"363 308 OFFCURVE",
"363 226 CURVE SMOOTH",
"363 144 OFFCURVE",
"317 58 OFFCURVE",
"212 58 CURVE SMOOTH",
"159 58 OFFCURVE",
"119 80 OFFCURVE",
"81 105 CURVE",
"50 32 LINE",
"95 4 OFFCURVE",
"154 -12 OFFCURVE",
"214 -12 CURVE SMOOTH"
);
}
);
width = 510;
},
{
layerId = "2F5B831B-86AF-41A9-958D-3871EE4B7007";
width = 600;
}
);
},
{
glyphname = six.001;
lastChange = "2018-09-10 18:12:48 +0000";
layers = (
{
layerId = "44A3F285-AC1C-4A7F-B2BD-0C498DBF5AFB";
paths = (
{
closed = 1;
nodes = (
"423 -12 OFFCURVE",
"489 100 OFFCURVE",
"489 227 CURVE SMOOTH",
"489 354 OFFCURVE",
"410 443 OFFCURVE",
"298 443 CURVE SMOOTH",
"232 443 OFFCURVE",
"180 415 OFFCURVE",
"154 361 CURVE",
"155 491 OFFCURVE",
"179 627 OFFCURVE",
"301 627 CURVE SMOOTH",
"348 627 OFFCURVE",
"390 607 OFFCURVE",
"419 579 CURVE",
"462 648 LINE",
"413 679 OFFCURVE",
"363 697 OFFCURVE",
"300 697 CURVE SMOOTH",
"118 697 OFFCURVE",
"65 545 OFFCURVE",
"65 330 CURVE SMOOTH",
"65 132 OFFCURVE",
"108 -12 OFFCURVE",
"278 -12 CURVE SMOOTH"
);
},
{
closed = 1;
nodes = (
"200 57 OFFCURVE",
"165 138 OFFCURVE",
"165 223 CURVE SMOOTH",
"165 313 OFFCURVE",
"205 372 OFFCURVE",
"280 372 CURVE SMOOTH",
"355 372 OFFCURVE",
"397 312 OFFCURVE",
"397 223 CURVE SMOOTH",
"397 137 OFFCURVE",
"360 57 OFFCURVE",
"280 57 CURVE SMOOTH"
);
}
);
width = 544;
},
{
layerId = "2F5B831B-86AF-41A9-958D-3871EE4B7007";
width = 600;
}
);
},
{
glyphname = seven.001;
lastChange = "2018-09-10 18:12:48 +0000";
layers = (
{
layerId = "44A3F285-AC1C-4A7F-B2BD-0C498DBF5AFB";
paths = (
{
closed = 1;
nodes = (
"231 0 LINE",
"231 289 OFFCURVE",
"329 487 OFFCURVE",
"420 608 CURVE",
"420 685 LINE",
"20 685 LINE",
"20 611 LINE",
"335 611 LINE",
"248 494 OFFCURVE",
"141 254 OFFCURVE",
"141 0 CURVE"
);
}
);
width = 450;
},
{
layerId = "2F5B831B-86AF-41A9-958D-3871EE4B7007";
width = 600;
}
);
},
{
glyphname = eight.001;
lastChange = "2018-09-10 18:12:48 +0000";
layers = (
{
layerId = "44A3F285-AC1C-4A7F-B2BD-0C498DBF5AFB";
paths = (
{
closed = 1;
nodes = (
"396 -12 OFFCURVE",
"489 56 OFFCURVE",
"489 173 CURVE SMOOTH",
"489 252 OFFCURVE",
"442 299 OFFCURVE",
"295 393 CURVE SMOOTH",
"200 454 OFFCURVE",
"169 487 OFFCURVE",
"169 534 CURVE SMOOTH",
"169 589 OFFCURVE",
"215 630 OFFCURVE",
"272 630 CURVE SMOOTH",
"329 630 OFFCURVE",
"372 586 OFFCURVE",
"372 529 CURVE SMOOTH",
"372 483 OFFCURVE",
"343 441 OFFCURVE",
"278 401 CURVE",
"326 370 LINE",
"397 406 OFFCURVE",
"459 468 OFFCURVE",
"459 541 CURVE SMOOTH",
"459 614 OFFCURVE",
"402 697 OFFCURVE",
"272 697 CURVE SMOOTH",
"141 697 OFFCURVE",
"85 614 OFFCURVE",
"85 531 CURVE SMOOTH",
"85 452 OFFCURVE",
"137 405 OFFCURVE",
"249 334 CURVE SMOOTH",
"364 261 OFFCURVE",
"397 223 OFFCURVE",
"397 172 CURVE SMOOTH",
"397 103 OFFCURVE",
"338 57 OFFCURVE",
"270 57 CURVE SMOOTH",
"198 57 OFFCURVE",
"147 110 OFFCURVE",
"147 179 CURVE SMOOTH",
"147 252 OFFCURVE",
"205 302 OFFCURVE",
"256 332 CURVE",
"208 364 LINE",
"149 339 OFFCURVE",
"55 283 OFFCURVE",
"55 173 CURVE SMOOTH",
"55 56 OFFCURVE",
"144 -12 OFFCURVE",
"270 -12 CURVE SMOOTH"
);
}
);
width = 544;
},
{
layerId = "2F5B831B-86AF-41A9-958D-3871EE4B7007";
width = 600;
}
);
},
{
glyphname = nine.002;
lastChange = "2018-09-10 18:12:48 +0000";
layers = (
{
layerId = "44A3F285-AC1C-4A7F-B2BD-0C498DBF5AFB";
paths = (
{
closed = 1;
nodes = (
"121 697 OFFCURVE",
"55 585 OFFCURVE",
"55 458 CURVE SMOOTH",
"55 331 OFFCURVE",
"134 242 OFFCURVE",
"246 242 CURVE SMOOTH",
"312 242 OFFCURVE",
"364 270 OFFCURVE",
"390 324 CURVE",
"389 194 OFFCURVE",
"365 58 OFFCURVE",
"243 58 CURVE SMOOTH",
"196 58 OFFCURVE",
"154 78 OFFCURVE",
"125 106 CURVE",
"82 37 LINE",
"131 6 OFFCURVE",
"181 -12 OFFCURVE",
"244 -12 CURVE SMOOTH",
"429 -12 OFFCURVE",
"479 148 OFFCURVE",
"479 379 CURVE SMOOTH",
"479 567 OFFCURVE",
"424 697 OFFCURVE",
"266 697 CURVE SMOOTH"
);
},
{
closed = 1;
nodes = (
"344 628 OFFCURVE",
"379 547 OFFCURVE",
"379 462 CURVE SMOOTH",
"379 372 OFFCURVE",
"339 313 OFFCURVE",
"264 313 CURVE SMOOTH",
"189 313 OFFCURVE",
"147 373 OFFCURVE",
"147 462 CURVE SMOOTH",
"147 548 OFFCURVE",
"184 628 OFFCURVE",
"264 628 CURVE SMOOTH"
);
}
);
width = 544;
},
{
layerId = "2F5B831B-86AF-41A9-958D-3871EE4B7007";
width = 600;
}
);
},
{
glyphname = zero.osf;
lastChange = "2018-04-19 10:52:48 +0000";
layers = (
{
layerId = "44A3F285-AC1C-4A7F-B2BD-0C498DBF5AFB";
paths = (
{
closed = 1;
nodes = (
"434 -12 OFFCURVE",
"534 94 OFFCURVE",
"534 271 CURVE SMOOTH",
"534 446 OFFCURVE",
"434 552 OFFCURVE",
"293 552 CURVE SMOOTH",
"150 552 OFFCURVE",
"50 446 OFFCURVE",
"50 271 CURVE SMOOTH",
"50 94 OFFCURVE",
"150 -12 OFFCURVE",
"293 -12 CURVE SMOOTH"
);
},
{
closed = 1;
nodes = (
"206 63 OFFCURVE",
"144 133 OFFCURVE",
"144 271 CURVE SMOOTH",
"144 408 OFFCURVE",
"206 477 OFFCURVE",
"293 477 CURVE SMOOTH",
"379 477 OFFCURVE",
"440 408 OFFCURVE",
"440 271 CURVE SMOOTH",
"440 133 OFFCURVE",
"379 63 OFFCURVE",
"293 63 CURVE SMOOTH"
);
}
);
width = 584;
},
{
layerId = "2F5B831B-86AF-41A9-958D-3871EE4B7007";
width = 600;
}
);
},
{
glyphname = one.osf;
lastChange = "2018-04-19 10:52:48 +0000";
layers = (
{
layerId = "44A3F285-AC1C-4A7F-B2BD-0C498DBF5AFB";
paths = (
{
closed = 1;
nodes = (
"252 0 LINE",
"252 540 LINE",
"176 540 LINE",
"141 472 OFFCURVE",
"92 429 OFFCURVE",
"20 395 CURVE",
"46 323 LINE",
"100 348 OFFCURVE",
"138 382 OFFCURVE",
"171 420 CURVE",
"168 398 OFFCURVE",
"167 380 OFFCURVE",
"167 361 CURVE SMOOTH",
"167 0 LINE"
);
}
);
width = 342;
},
{
layerId = "2F5B831B-86AF-41A9-958D-3871EE4B7007";
width = 600;
}
);
},
{
glyphname = two.osf;
lastChange = "2018-04-19 10:52:48 +0000";
layers = (
{
layerId = "44A3F285-AC1C-4A7F-B2BD-0C498DBF5AFB";
paths = (
{
closed = 1;
nodes = (
"405 0 LINE",
"393 75 LINE",
"207 75 LINE SMOOTH",
"187 75 OFFCURVE",
"165 74 OFFCURVE",
"140 69 CURVE",
"315 234 OFFCURVE",
"382 317 OFFCURVE",
"382 407 CURVE SMOOTH",
"382 503 OFFCURVE",
"307 552 OFFCURVE",
"212 552 CURVE SMOOTH",
"141 552 OFFCURVE",
"90 524 OFFCURVE",
"39 483 CURVE",
"79 420 LINE",
"122 458 OFFCURVE",
"165 478 OFFCURVE",
"209 478 CURVE SMOOTH",
"258 478 OFFCURVE",
"290 452 OFFCURVE",
"290 404 CURVE SMOOTH",
"290 364 OFFCURVE",
"267 284 OFFCURVE",
"35 73 CURVE",
"35 0 LINE"
);
}
);
width = 453;
},
{
layerId = "2F5B831B-86AF-41A9-958D-3871EE4B7007";
width = 600;
}
);
},
{
glyphname = three.osf;
lastChange = "2018-04-19 10:52:48 +0000";
layers = (
{
layerId = "44A3F285-AC1C-4A7F-B2BD-0C498DBF5AFB";
paths = (
{
closed = 1;
nodes = (
"302 -88 OFFCURVE",
"379 -3 OFFCURVE",
"379 99 CURVE SMOOTH",
"379 203 OFFCURVE",
"297 250 OFFCURVE",
"238 261 CURVE",
"293 283 OFFCURVE",
"352 321 OFFCURVE",
"352 406 CURVE SMOOTH",
"352 493 OFFCURVE",
"290 552 OFFCURVE",
"186 552 CURVE SMOOTH",
"119 552 OFFCURVE",
"71 528 OFFCURVE",
"15 485 CURVE",
"51 423 LINE",
"91 459 OFFCURVE",
"128 478 OFFCURVE",
"174 478 CURVE SMOOTH",
"225 478 OFFCURVE",
"261 454 OFFCURVE",
"261 398 CURVE SMOOTH",
"261 324 OFFCURVE",
"199 289 OFFCURVE",
"116 289 CURVE",
"116 220 LINE",
"207 220 OFFCURVE",
"287 190 OFFCURVE",
"287 99 CURVE SMOOTH",
"287 23 OFFCURVE",
"233 -17 OFFCURVE",
"156 -17 CURVE SMOOTH",
"116 -17 OFFCURVE",
"76 -6 OFFCURVE",
"33 15 CURVE",
"5 -48 LINE",
"56 -75 OFFCURVE",
"111 -88 OFFCURVE",
"165 -88 CURVE SMOOTH"
);
}
);
width = 424;
},
{
layerId = "2F5B831B-86AF-41A9-958D-3871EE4B7007";
width = 600;
}
);
},
{
glyphname = four.osf;
lastChange = "2018-04-19 10:52:48 +0000";
layers = (
{
layerId = "44A3F285-AC1C-4A7F-B2BD-0C498DBF5AFB";
paths = (
{
closed = 1;
nodes = (
"448 77 LINE",
"438 143 LINE",
"117 143 LINE",
"214 276 OFFCURVE",
"258 395 OFFCURVE",
"282 540 CURVE",
"194 540 LINE",
"170 395 OFFCURVE",
"125 275 OFFCURVE",
"20 134 CURVE",
"54 77 LINE"
);
},
{
closed = 1;
nodes = (
"370 -76 LINE",
"370 335 LINE",
"287 335 LINE",
"287 -76 LINE"
);
}
);
width = 473;
},
{
layerId = "2F5B831B-86AF-41A9-958D-3871EE4B7007";
width = 600;
}
);
},
{
glyphname = five.osf;
lastChange = "2018-04-19 10:52:48 +0000";
layers = (
{
layerId = "44A3F285-AC1C-4A7F-B2BD-0C498DBF5AFB";
paths = (
{
closed = 1;
nodes = (
"333 -88 OFFCURVE",
"411 17 OFFCURVE",
"411 126 CURVE SMOOTH",
"411 228 OFFCURVE",
"347 317 OFFCURVE",
"231 317 CURVE SMOOTH",
"196 317 OFFCURVE",
"161 309 OFFCURVE",
"134 296 CURVE",
"161 469 LINE",
"361 469 LINE",
"371 540 LINE",
"88 540 LINE",
"55 252 LINE",
"95 209 LINE",
"134 236 OFFCURVE",
"170 250 OFFCURVE",
"209 250 CURVE SMOOTH",
"285 250 OFFCURVE",
"318 197 OFFCURVE",
"318 126 CURVE SMOOTH",
"318 53 OFFCURVE",
"283 -17 OFFCURVE",
"181 -17 CURVE SMOOTH",
"139 -17 OFFCURVE",
"104 -5 OFFCURVE",
"68 15 CURVE",
"40 -48 LINE",
"81 -74 OFFCURVE",
"130 -88 OFFCURVE",
"184 -88 CURVE SMOOTH"
);
}
);
width = 456;
},
{
layerId = "2F5B831B-86AF-41A9-958D-3871EE4B7007";
width = 600;
}
);
},
{
glyphname = six.osf;
lastChange = "2018-04-19 10:52:48 +0000";
layers = (
{
layerId = "44A3F285-AC1C-4A7F-B2BD-0C498DBF5AFB";
paths = (
{
closed = 1;
nodes = (
"380 -12 OFFCURVE",
"432 88 OFFCURVE",
"432 202 CURVE SMOOTH",
"432 322 OFFCURVE",
"371 403 OFFCURVE",
"262 403 CURVE SMOOTH",
"222 403 OFFCURVE",
"187 392 OFFCURVE",
"153 363 CURVE",
"186 477 OFFCURVE",
"266 527 OFFCURVE",
"390 559 CURVE",
"372 630 LINE",
"184 586 OFFCURVE",
"55 482 OFFCURVE",
"55 227 CURVE SMOOTH",
"55 86 OFFCURVE",
"102 -12 OFFCURVE",
"241 -12 CURVE SMOOTH"
);
},
{
closed = 1;
nodes = (
"183 53 OFFCURVE",
"142 107 OFFCURVE",
"142 197 CURVE SMOOTH",
"142 286 OFFCURVE",
"183 336 OFFCURVE",
"242 336 CURVE SMOOTH",
"302 336 OFFCURVE",
"342 286 OFFCURVE",
"342 197 CURVE SMOOTH",
"342 107 OFFCURVE",
"302 53 OFFCURVE",
"242 53 CURVE SMOOTH"
);
}
);
width = 482;
},
{
layerId = "2F5B831B-86AF-41A9-958D-3871EE4B7007";
width = 600;
}
);
},
{
glyphname = seven.osf;
lastChange = "2018-04-19 10:52:48 +0000";
layers = (
{
layerId = "44A3F285-AC1C-4A7F-B2BD-0C498DBF5AFB";
paths = (
{
closed = 1;
nodes = (
"209 -76 LINE",
"209 175 OFFCURVE",
"292 363 OFFCURVE",
"373 472 CURVE",
"373 540 LINE",
"15 540 LINE",
"15 465 LINE",
"281 465 LINE",
"203 360 OFFCURVE",
"121 143 OFFCURVE",
"121 -76 CURVE"
);
}
);
width = 408;
},
{
layerId = "2F5B831B-86AF-41A9-958D-3871EE4B7007";
width = 600;
}
);
},
{
glyphname = eight.osf;
lastChange = "2018-04-19 10:52:48 +0000";
layers = (
{
layerId = "44A3F285-AC1C-4A7F-B2BD-0C498DBF5AFB";
paths = (
{
closed = 1;
nodes = (
"327 -12 OFFCURVE",
"419 48 OFFCURVE",
"419 155 CURVE SMOOTH",
"419 222 OFFCURVE",
"382 270 OFFCURVE",
"255 353 CURVE SMOOTH",
"173 407 OFFCURVE",
"153 444 OFFCURVE",
"153 476 CURVE SMOOTH",
"153 518 OFFCURVE",
"185 551 OFFCURVE",
"235 551 CURVE SMOOTH",
"283 551 OFFCURVE",
"310 521 OFFCURVE",
"310 476 CURVE SMOOTH",
"310 434 OFFCURVE",
"287 386 OFFCURVE",
"241 360 CURVE",
"289 329 LINE",
"350 361 OFFCURVE",
"396 421 OFFCURVE",
"396 482 CURVE SMOOTH",
"396 551 OFFCURVE",
"336 616 OFFCURVE",
"233 616 CURVE SMOOTH",
"129 616 OFFCURVE",
"69 551 OFFCURVE",
"69 469 CURVE SMOOTH",
"69 399 OFFCURVE",
"113 361 OFFCURVE",
"209 295 CURVE SMOOTH",
"308 227 OFFCURVE",
"331 196 OFFCURVE",
"331 152 CURVE SMOOTH",
"331 90 OFFCURVE",
"289 53 OFFCURVE",
"229 53 CURVE SMOOTH",
"169 53 OFFCURVE",
"133 96 OFFCURVE",
"133 158 CURVE SMOOTH",
"133 222 OFFCURVE",
"171 267 OFFCURVE",
"215 294 CURVE",
"168 325 LINE",
"117 302 OFFCURVE",
"45 249 OFFCURVE",
"45 155 CURVE SMOOTH",
"45 41 OFFCURVE",
"127 -12 OFFCURVE",
"227 -12 CURVE SMOOTH"
);
}
);
width = 464;
},
{
layerId = "2F5B831B-86AF-41A9-958D-3871EE4B7007";
width = 600;
}
);
},
{
glyphname = nine.osf;
lastChange = "2018-04-19 10:52:48 +0000";
layers = (
{
layerId = "44A3F285-AC1C-4A7F-B2BD-0C498DBF5AFB";
paths = (
{
closed = 1;
nodes = (
"286 -49 OFFCURVE",
"427 54 OFFCURVE",
"427 313 CURVE SMOOTH",
"427 454 OFFCURVE",
"380 552 OFFCURVE",
"241 552 CURVE SMOOTH",
"102 552 OFFCURVE",
"50 452 OFFCURVE",
"50 338 CURVE SMOOTH",
"50 218 OFFCURVE",
"111 137 OFFCURVE",
"220 137 CURVE SMOOTH",
"260 137 OFFCURVE",
"295 148 OFFCURVE",
"329 177 CURVE",
"296 63 OFFCURVE",
"216 13 OFFCURVE",
"92 -19 CURVE",
"110 -90 LINE"
);
},
{
closed = 1;
nodes = (
"180 204 OFFCURVE",
"140 254 OFFCURVE",
"140 343 CURVE SMOOTH",
"140 433 OFFCURVE",
"180 487 OFFCURVE",
"240 487 CURVE SMOOTH",
"299 487 OFFCURVE",
"340 433 OFFCURVE",
"340 343 CURVE SMOOTH",
"340 254 OFFCURVE",
"299 204 OFFCURVE",
"240 204 CURVE SMOOTH"
);
}
);
width = 482;
},
{
layerId = "2F5B831B-86AF-41A9-958D-3871EE4B7007";
width = 600;
}
);
},
{
export = 0;
glyphname = nine.001;
lastChange = "2018-04-19 10:52:48 +0000";
layers = (
{
layerId = "44A3F285-AC1C-4A7F-B2BD-0C498DBF5AFB";
paths = (
{
closed = 1;
nodes = (
"305 39 OFFCURVE",
"442 171 OFFCURVE",
"442 455 CURVE SMOOTH",
"442 596 OFFCURVE",
"379 697 OFFCURVE",
"238 697 CURVE SMOOTH",
"87 697 OFFCURVE",
"34 580 OFFCURVE",
"34 465 CURVE SMOOTH",
"34 350 OFFCURVE",
"100 246 OFFCURVE",
"218 246 CURVE SMOOTH",
"262 246 OFFCURVE",
"310 260 OFFCURVE",
"346 301 CURVE",
"310 177 OFFCURVE",
"224 100 OFFCURVE",
"80 67 CURVE",
"99 -12 LINE"
);
},
{
closed = 1;
nodes = (
"175 317 OFFCURVE",
"126 373 OFFCURVE",
"126 470 CURVE SMOOTH",
"126 568 OFFCURVE",
"175 627 OFFCURVE",
"240 627 CURVE SMOOTH",
"304 627 OFFCURVE",
"350 568 OFFCURVE",
"350 470 CURVE SMOOTH",
"350 373 OFFCURVE",
"304 317 OFFCURVE",
"240 317 CURVE SMOOTH"
);
}
);
width = 482;
},
{
layerId = "2F5B831B-86AF-41A9-958D-3871EE4B7007";
width = 600;
}
);
},
{
color = 0;
export = 0;
glyphname = six.alt;
lastChange = "2018-04-19 10:52:48 +0000";
layers = (
{
layerId = "44A3F285-AC1C-4A7F-B2BD-0C498DBF5AFB";
paths = (
{
closed = 1;
nodes = (
"371 -12 OFFCURVE",
"425 100 OFFCURVE",
"425 212 CURVE SMOOTH",
"425 358 OFFCURVE",
"344 411 OFFCURVE",
"259 411 CURVE SMOOTH",
"205 411 OFFCURVE",
"164 389 OFFCURVE",
"135 351 CURVE",
"136 427 OFFCURVE",
"153 546 OFFCURVE",
"268 546 CURVE SMOOTH",
"306 546 OFFCURVE",
"338 533 OFFCURVE",
"370 512 CURVE",
"404 571 LINE",
"372 593 OFFCURVE",
"325 616 OFFCURVE",
"262 616 CURVE SMOOTH",
"97 616 OFFCURVE",
"50 485 OFFCURVE",
"50 277 CURVE SMOOTH",
"50 119 OFFCURVE",
"89 -12 OFFCURVE",
"239 -12 CURVE SMOOTH"
);
},
{
closed = 1;
nodes = (
"179 58 OFFCURVE",
"145 125 OFFCURVE",
"145 206 CURVE SMOOTH",
"145 293 OFFCURVE",
"181 344 OFFCURVE",
"239 344 CURVE SMOOTH",
"305 344 OFFCURVE",
"333 281 OFFCURVE",
"333 206 CURVE SMOOTH",
"333 131 OFFCURVE",
"305 58 OFFCURVE",
"241 58 CURVE SMOOTH"
);
}
);
width = 453;
},
{
layerId = "2F5B831B-86AF-41A9-958D-3871EE4B7007";
width = 600;
}
);
},
{
color = 0;
export = 0;
glyphname = nine.alt;
lastChange = "2018-04-19 10:52:48 +0000";
layers = (
{
layerId = "44A3F285-AC1C-4A7F-B2BD-0C498DBF5AFB";
paths = (
{
closed = 1;
nodes = (
"367 -88 OFFCURVE",
"411 66 OFFCURVE",
"411 252 CURVE SMOOTH",
"411 449 OFFCURVE",
"374 552 OFFCURVE",
"225 552 CURVE SMOOTH",
"84 552 OFFCURVE",
"37 440 OFFCURVE",
"37 326 CURVE SMOOTH",
"37 177 OFFCURVE",
"119 121 OFFCURVE",
"207 121 CURVE SMOOTH",
"258 121 OFFCURVE",
"295 138 OFFCURVE",
"324 178 CURVE",
"324 112 OFFCURVE",
"310 -15 OFFCURVE",
"192 -15 CURVE SMOOTH",
"154 -15 OFFCURVE",
"121 -1 OFFCURVE",
"88 20 CURVE",
"54 -42 LINE",
"86 -65 OFFCURVE",
"134 -88 OFFCURVE",
"199 -88 CURVE SMOOTH"
);
},
{
closed = 1;
nodes = (
"157 190 OFFCURVE",
"129 255 OFFCURVE",
"129 332 CURVE SMOOTH",
"129 413 OFFCURVE",
"157 481 OFFCURVE",
"223 481 CURVE SMOOTH",
"285 481 OFFCURVE",
"317 419 OFFCURVE",
"317 332 CURVE SMOOTH",
"317 240 OFFCURVE",
"283 190 OFFCURVE",
"224 190 CURVE SMOOTH"
);
}
);
width = 458;
},
{
layerId = "2F5B831B-86AF-41A9-958D-3871EE4B7007";
width = 600;
}
);
},
{
glyphname = period;
lastChange = "2018-04-19 10:52:48 +0000";
layers = (
{
layerId = "44A3F285-AC1C-4A7F-B2BD-0C498DBF5AFB";
paths = (
{
closed = 1;
nodes = (
"141 -12 OFFCURVE",
"169 14 OFFCURVE",
"169 49 CURVE SMOOTH",
"169 85 OFFCURVE",
"141 108 OFFCURVE",
"107 108 CURVE SMOOTH",
"73 108 OFFCURVE",
"45 85 OFFCURVE",
"45 49 CURVE SMOOTH",
"45 14 OFFCURVE",
"73 -12 OFFCURVE",
"107 -12 CURVE SMOOTH"
);
}
);
width = 214;
},
{
layerId = "2F5B831B-86AF-41A9-958D-3871EE4B7007";
paths = (
{
closed = 1;
nodes = (
"191 -18 OFFCURVE",
"235 22 OFFCURVE",
"235 81 CURVE SMOOTH",
"235 134 OFFCURVE",
"191 174 OFFCURVE",
"135 174 CURVE SMOOTH",
"78 174 OFFCURVE",
"35 134 OFFCURVE",
"35 81 CURVE SMOOTH",
"35 22 OFFCURVE",
"78 -18 OFFCURVE",
"135 -18 CURVE SMOOTH"
);
}
);
width = 270;
}
);
unicode = 002E;
},
{
glyphname = comma;
lastChange = "2018-10-21 13:15:26 +0000";
layers = (
{
layerId = "44A3F285-AC1C-4A7F-B2BD-0C498DBF5AFB";
paths = (
{
closed = 1;
nodes = (
"133 -82 OFFCURVE",
"168 -26 OFFCURVE",
"168 38 CURVE SMOOTH",
"168 85 OFFCURVE",
"140 108 OFFCURVE",
"106 108 CURVE SMOOTH",
"72 108 OFFCURVE",
"45 86 OFFCURVE",
"45 49 CURVE SMOOTH",
"45 7 OFFCURVE",
"80 0 OFFCURVE",
"87 -16 CURVE SMOOTH",
"95 -34 OFFCURVE",
"72 -80 OFFCURVE",
"39 -114 CURVE",
"76 -139 LINE"
);
}
);
width = 213;
},
{
layerId = "2F5B831B-86AF-41A9-958D-3871EE4B7007";
width = 600;
}
);
unicode = 002C;
},
{
glyphname = exclam;
lastChange = "2018-04-19 10:52:48 +0000";
layers = (
{
layerId = "44A3F285-AC1C-4A7F-B2BD-0C498DBF5AFB";
paths = (
{
closed = 1;
nodes = (
"177 219 LINE",
"186 685 LINE",
"94 685 LINE",
"103 219 LINE"
);
},
{
closed = 1;
nodes = (
"176 -12 OFFCURVE",
"205 14 OFFCURVE",
"205 52 CURVE SMOOTH",
"205 90 OFFCURVE",
"176 113 OFFCURVE",
"140 113 CURVE SMOOTH",
"104 113 OFFCURVE",
"75 90 OFFCURVE",
"75 52 CURVE SMOOTH",
"75 14 OFFCURVE",
"104 -12 OFFCURVE",
"140 -12 CURVE SMOOTH"
);
}
);
width = 280;
},
{
layerId = "2F5B831B-86AF-41A9-958D-3871EE4B7007";
width = 600;
}
);
unicode = 0021;
},
{
glyphname = exclamdown;
lastChange = "2018-04-19 10:52:48 +0000";
layers = (
{
layerId = "44A3F285-AC1C-4A7F-B2BD-0C498DBF5AFB";
paths = (
{
closed = 1;
nodes = (
"186 -145 LINE",
"177 321 LINE",
"103 321 LINE",
"94 -145 LINE"
);
},
{
closed = 1;
nodes = (
"176 427 OFFCURVE",
"205 450 OFFCURVE",
"205 488 CURVE SMOOTH",
"205 526 OFFCURVE",
"176 552 OFFCURVE",
"140 552 CURVE SMOOTH",
"104 552 OFFCURVE",
"75 526 OFFCURVE",
"75 488 CURVE SMOOTH",
"75 450 OFFCURVE",
"104 427 OFFCURVE",
"140 427 CURVE SMOOTH"
);
}
);
width = 280;
},
{
layerId = "2F5B831B-86AF-41A9-958D-3871EE4B7007";
width = 600;
}
);
unicode = 00A1;
},
{
glyphname = question;
lastChange = "2018-04-19 10:52:48 +0000";
layers = (
{
layerId = "44A3F285-AC1C-4A7F-B2BD-0C498DBF5AFB";
paths = (
{
closed = 1;
nodes = (
"208 216 LINE",
"208 236 LINE SMOOTH",
"208 299 OFFCURVE",
"233 323 OFFCURVE",
"280 365 CURVE SMOOTH",
"328 407 OFFCURVE",
"367 458 OFFCURVE",
"367 534 CURVE SMOOTH",
"367 637 OFFCURVE",
"294 697 OFFCURVE",
"176 697 CURVE SMOOTH",
"104 697 OFFCURVE",
"47 675 OFFCURVE",
"-10 634 CURVE",
"26 570 LINE",
"76 606 OFFCURVE",
"115 625 OFFCURVE",
"166 625 CURVE SMOOTH",
"235 625 OFFCURVE",
"276 591 OFFCURVE",
"276 524 CURVE SMOOTH",
"276 478 OFFCURVE",
"258 443 OFFCURVE",
"211 401 CURVE SMOOTH",
"150 346 OFFCURVE",
"122 298 OFFCURVE",
"122 240 CURVE SMOOTH",
"122 216 LINE"
);
},
{
closed = 1;
nodes = (
"206 -12 OFFCURVE",
"235 14 OFFCURVE",
"235 52 CURVE SMOOTH",
"235 90 OFFCURVE",
"206 113 OFFCURVE",
"170 113 CURVE SMOOTH",
"134 113 OFFCURVE",
"105 90 OFFCURVE",
"105 52 CURVE SMOOTH",
"105 14 OFFCURVE",
"134 -12 OFFCURVE",
"170 -12 CURVE SMOOTH"
);
}
);
width = 397;
},
{
layerId = "2F5B831B-86AF-41A9-958D-3871EE4B7007";
width = 600;
}
);
unicode = 003F;
},
{
glyphname = questiondown;
lastChange = "2018-04-19 10:52:48 +0000";
layers = (
{
layerId = "44A3F285-AC1C-4A7F-B2BD-0C498DBF5AFB";
paths = (
{
closed = 1;
nodes = (
"293 -197 OFFCURVE",
"350 -175 OFFCURVE",
"407 -134 CURVE",
"371 -70 LINE",
"321 -106 OFFCURVE",
"282 -125 OFFCURVE",
"231 -125 CURVE SMOOTH",
"162 -125 OFFCURVE",
"121 -91 OFFCURVE",
"121 -24 CURVE SMOOTH",
"121 22 OFFCURVE",
"139 57 OFFCURVE",
"186 99 CURVE SMOOTH",
"247 154 OFFCURVE",
"275 202 OFFCURVE",
"275 260 CURVE SMOOTH",
"275 284 LINE",
"189 284 LINE",
"189 264 LINE SMOOTH",
"189 201 OFFCURVE",
"164 177 OFFCURVE",
"117 135 CURVE SMOOTH",
"69 93 OFFCURVE",
"30 42 OFFCURVE",
"30 -34 CURVE SMOOTH",
"30 -137 OFFCURVE",
"103 -197 OFFCURVE",
"221 -197 CURVE SMOOTH"
);
},
{
closed = 1;
nodes = (
"263 387 OFFCURVE",
"292 410 OFFCURVE",
"292 448 CURVE SMOOTH",
"292 486 OFFCURVE",
"263 512 OFFCURVE",
"227 512 CURVE SMOOTH",
"191 512 OFFCURVE",
"162 486 OFFCURVE",
"162 448 CURVE SMOOTH",
"162 410 OFFCURVE",
"191 387 OFFCURVE",
"227 387 CURVE SMOOTH"
);
}
);
width = 397;
},
{
layerId = "2F5B831B-86AF-41A9-958D-3871EE4B7007";
width = 600;
}
);
unicode = 00BF;
},
{
glyphname = periodcentered;
lastChange = "2018-04-19 10:52:48 +0000";
layers = (
{
layerId = "44A3F285-AC1C-4A7F-B2BD-0C498DBF5AFB";
paths = (
{
closed = 1;
nodes = (
"167 210 OFFCURVE",
"197 235 OFFCURVE",
"197 273 CURVE SMOOTH",
"197 310 OFFCURVE",
"167 335 OFFCURVE",
"132 333 CURVE SMOOTH",
"94 332 OFFCURVE",
"67 310 OFFCURVE",
"67 273 CURVE SMOOTH",
"67 235 OFFCURVE",
"94 210 OFFCURVE",
"132 210 CURVE SMOOTH"
);
}
);
width = 264;
},
{
layerId = "2F5B831B-86AF-41A9-958D-3871EE4B7007";
width = 600;
}
);
unicode = 00B7;
},
{
glyphname = bullet;
lastChange = "2018-10-15 02:56:50 +0000";
layers = (
{
layerId = "44A3F285-AC1C-4A7F-B2BD-0C498DBF5AFB";
paths = (
{
closed = 1;
nodes = (
"214 230 OFFCURVE",
"258 267 OFFCURVE",
"258 323 CURVE SMOOTH",
"258 377 OFFCURVE",
"214 414 OFFCURVE",
"162 414 CURVE SMOOTH",
"107 414 OFFCURVE",
"66 377 OFFCURVE",
"66 323 CURVE SMOOTH",
"66 267 OFFCURVE",
"107 230 OFFCURVE",
"162 230 CURVE SMOOTH"
);
}
);
width = 324;
},
{
layerId = "2F5B831B-86AF-41A9-958D-3871EE4B7007";
width = 600;
}
);
unicode = 2022;
},
{
glyphname = asterisk;
lastChange = "2018-04-19 10:52:48 +0000";
layers = (
{
layerId = "44A3F285-AC1C-4A7F-B2BD-0C498DBF5AFB";
paths = (
{
closed = 1;
nodes = (
"309 455 LINE",
"281 492 OFFCURVE",
"251 523 OFFCURVE",
"211 561 CURVE",
"188 544 LINE",
"212 494 OFFCURVE",
"232 458 OFFCURVE",
"259 418 CURVE"
);
},
{
closed = 1;
nodes = (
"143 458 OFFCURVE",
"163 494 OFFCURVE",
"187 544 CURVE",
"164 561 LINE",
"124 523 OFFCURVE",
"95 492 OFFCURVE",
"67 455 CURVE",
"116 418 LINE"
);
},
{
closed = 1;
nodes = (
"171 591 LINE",
"123 617 OFFCURVE",
"84 635 OFFCURVE",
"39 650 CURVE",
"20 593 LINE",
"66 578 OFFCURVE",
"107 570 OFFCURVE",
"163 563 CURVE"
);
},
{
closed = 1;
nodes = (
"191 543 LINE",
"211 560 LINE",
"214 564 LINE",
"206 591 LINE",
"202 594 LINE",
"173 594 LINE",
"170 591 LINE",
"163 563 LINE",
"164 559 LINE",
"186 543 LINE"
);
},
{
closed = 1;
nodes = (
"203 593 LINE",
"213 647 OFFCURVE",
"219 688 OFFCURVE",
"219 736 CURVE",
"158 736 LINE",
"158 688 OFFCURVE",
"163 647 OFFCURVE",
"172 593 CURVE"
);
},
{
closed = 1;
nodes = (
"267 570 OFFCURVE",
"310 578 OFFCURVE",
"355 593 CURVE",
"336 650 LINE",
"291 635 OFFCURVE",
"253 617 OFFCURVE",
"204 591 CURVE",
"213 563 LINE"
);
}
);
width = 375;
},
{
layerId = "2F5B831B-86AF-41A9-958D-3871EE4B7007";
width = 600;
}
);
unicode = 002A;
},
{
glyphname = numbersign;
lastChange = "2018-10-22 23:54:01 +0000";
layers = (
{
layerId = "44A3F285-AC1C-4A7F-B2BD-0C498DBF5AFB";
paths = (
{
closed = 1;
nodes = (
"183 685 LINE",
"83 0 LINE",
"144 0 LINE",
"244 685 LINE"
);
},
{
closed = 1;
nodes = (
"400 685 LINE",
"300 0 LINE",
"361 0 LINE",
"461 685 LINE"
);
},
{
closed = 1;
nodes = (
"26 429 LINE",
"554 429 LINE",
"554 500 LINE",
"26 500 LINE"
);
},
{
closed = 1;
nodes = (
"-7 209 LINE",
"521 209 LINE",
"521 280 LINE",
"-7 280 LINE"
);
}
);
width = 549;
},
{
layerId = "2F5B831B-86AF-41A9-958D-3871EE4B7007";
width = 600;
}
);
unicode = 0023;
},
{
glyphname = slash;
lastChange = "2018-10-07 15:28:27 +0000";
layers = (
{
layerId = "44A3F285-AC1C-4A7F-B2BD-0C498DBF5AFB";
paths = (
{
closed = 1;
nodes = (
"285 736 LINE",
"40 -88 LINE",
"114 -88 LINE",
"359 736 LINE"
);
}
);
width = 399;
},
{
layerId = "2F5B831B-86AF-41A9-958D-3871EE4B7007";
width = 600;
}
);
unicode = 002F;
},
{
glyphname = comma.001;
lastChange = "2018-04-19 10:52:48 +0000";
layers = (
{
layerId = "44A3F285-AC1C-4A7F-B2BD-0C498DBF5AFB";
paths = (
{
closed = 1;
nodes = (
"139 -82 OFFCURVE",
"176 -26 OFFCURVE",
"176 33 CURVE SMOOTH",
"176 86 OFFCURVE",
"145 108 OFFCURVE",
"112 108 CURVE SMOOTH",
"78 108 OFFCURVE",
"51 86 OFFCURVE",
"51 49 CURVE SMOOTH",
"51 12 OFFCURVE",
"79 -15 OFFCURVE",
"125 -12 CURVE",
"118 -47 OFFCURVE",
"86 -82 OFFCURVE",
"52 -115 CURVE",
"82 -139 LINE"
);
}
);
width = 227;
},
{
layerId = "2F5B831B-86AF-41A9-958D-3871EE4B7007";
width = 600;
}
);
},
{
glyphname = asterisk.002;
lastChange = "2018-04-19 10:52:48 +0000";
layers = (
{
layerId = "44A3F285-AC1C-4A7F-B2BD-0C498DBF5AFB";
paths = (
{
closed = 1;
nodes = (
"96 540 OFFCURVE",
"130 534 OFFCURVE",
"188 527 CURVE",
"188 526 LINE",
"145 485 OFFCURVE",
"120 462 OFFCURVE",
"90 420 CURVE",
"138 384 LINE",
"169 427 OFFCURVE",
"185 457 OFFCURVE",
"210 510 CURVE",
"236 456 OFFCURVE",
"251 425 OFFCURVE",
"281 383 CURVE",
"330 418 LINE",
"299 461 OFFCURVE",
"276 485 OFFCURVE",
"233 526 CURVE",
"234 527 LINE",
"293 535 OFFCURVE",
"326 539 OFFCURVE",
"375 555 CURVE",
"357 612 LINE",
"308 596 OFFCURVE",
"277 581 OFFCURVE",
"226 553 CURVE",
"224 554 LINE",
"235 612 OFFCURVE",
"241 645 OFFCURVE",
"241 697 CURVE",
"181 697 LINE",
"181 645 OFFCURVE",
"186 611 OFFCURVE",
"197 553 CURVE",
"196 553 LINE",
"144 580 OFFCURVE",
"114 597 OFFCURVE",
"65 613 CURVE",
"45 556 LINE"
);
}
);
width = 420;
},
{
layerId = "2F5B831B-86AF-41A9-958D-3871EE4B7007";
width = 600;
}
);
},
{
glyphname = parenleft;
lastChange = "2018-10-15 03:44:47 +0000";
layers = (
{
layerId = "44A3F285-AC1C-4A7F-B2BD-0C498DBF5AFB";
paths = (
{
closed = 1;
nodes = (
"172 769 LINE",
"87 646 OFFCURVE",
"30 491 OFFCURVE",
"30 326 CURVE SMOOTH",
"30 151 OFFCURVE",
"87 3 OFFCURVE",
"172 -121 CURVE",
"221 -90 LINE",
"145 47 OFFCURVE",
"115 198 OFFCURVE",
"115 326 CURVE SMOOTH",
"115 454 OFFCURVE",
"142 608 OFFCURVE",
"221 738 CURVE"
);
}
);
width = 251;
},
{
layerId = "2F5B831B-86AF-41A9-958D-3871EE4B7007";
width = 600;
}
);
unicode = 0028;
},
{
glyphname = braceleft;
lastChange = "2018-10-07 22:19:18 +0000";
layers = (
{
layerId = "44A3F285-AC1C-4A7F-B2BD-0C498DBF5AFB";
paths = (
{
closed = 1;
nodes = (
"116 299 OFFCURVE",
"130 274 OFFCURVE",
"130 218 CURVE SMOOTH",
"130 11 LINE SMOOTH",
"130 -75 OFFCURVE",
"161 -130 OFFCURVE",
"258 -130 CURVE SMOOTH",
"284 -130 OFFCURVE",
"313 -126 OFFCURVE",
"348 -112 CURVE",
"328 -44 LINE",
"305 -55 OFFCURVE",
"288 -59 OFFCURVE",
"269 -59 CURVE SMOOTH",
"226 -59 OFFCURVE",
"206 -39 OFFCURVE",
"206 9 CURVE SMOOTH",
"206 208 LINE SMOOTH",
"206 280 OFFCURVE",
"186 332 OFFCURVE",
"115 332 CURVE",
"115 337 LINE",
"186 337 OFFCURVE",
"206 389 OFFCURVE",
"206 461 CURVE SMOOTH",
"206 652 LINE SMOOTH",
"206 700 OFFCURVE",
"226 720 OFFCURVE",
"269 720 CURVE SMOOTH",
"288 720 OFFCURVE",
"305 716 OFFCURVE",
"328 705 CURVE",
"348 770 LINE",
"313 784 OFFCURVE",
"285 788 OFFCURVE",
"259 788 CURVE SMOOTH",
"162 788 OFFCURVE",
"130 733 OFFCURVE",
"130 647 CURVE SMOOTH",
"130 451 LINE SMOOTH",
"130 395 OFFCURVE",
"116 371 OFFCURVE",
"45 371 CURVE",
"45 298 LINE"
);
}
);
width = 393;
},
{
layerId = "2F5B831B-86AF-41A9-958D-3871EE4B7007";
width = 600;
}
);
unicode = 007B;
},
{
glyphname = bracketleft;
lastChange = "2018-04-19 10:52:48 +0000";
layers = (
{
layerId = "44A3F285-AC1C-4A7F-B2BD-0C498DBF5AFB";
paths = (
{
closed = 1;
nodes = (
"126 759 LINE",
"50 759 LINE",
"50 -101 LINE",
"126 -101 LINE"
);
},
{
closed = 1;
nodes = (
"245 759 LINE",
"87 759 LINE",
"87 686 LINE",
"245 686 LINE"
);
},
{
closed = 1;
nodes = (
"245 -29 LINE",
"87 -29 LINE",
"87 -101 LINE",
"245 -101 LINE"
);
}
);
width = 295;
},
{
layerId = "2F5B831B-86AF-41A9-958D-3871EE4B7007";
width = 600;
}
);
unicode = 005B;
},
{
glyphname = bracketright;
lastChange = "2018-04-19 10:52:48 +0000";
layers = (
{
layerId = "44A3F285-AC1C-4A7F-B2BD-0C498DBF5AFB";
paths = (
{
closed = 1;
nodes = (
"246 -101 LINE",
"246 759 LINE",
"170 759 LINE",
"170 -101 LINE"
);
},
{
closed = 1;
nodes = (
"209 686 LINE",
"209 759 LINE",
"51 759 LINE",
"51 686 LINE"
);
},
{
closed = 1;
nodes = (
"209 -101 LINE",
"209 -29 LINE",
"51 -29 LINE",
"51 -101 LINE"
);
}
);
width = 295;
},
{
layerId = "2F5B831B-86AF-41A9-958D-3871EE4B7007";
width = 600;
}
);
unicode = 005D;
},
{
glyphname = hyphen;
lastChange = "2018-10-11 05:45:38 +0000";
layers = (
{
layerId = "44A3F285-AC1C-4A7F-B2BD-0C498DBF5AFB";
paths = (
{
closed = 1;
nodes = (
"270 259 LINE",
"270 334 LINE",
"30 334 LINE",
"30 259 LINE"
);
}
);
width = 300;
},
{
layerId = "2F5B831B-86AF-41A9-958D-3871EE4B7007";
width = 600;
}
);
unicode = 002D;
},
{
glyphname = endash;
lastChange = "2018-10-11 05:45:40 +0000";
layers = (
{
layerId = "44A3F285-AC1C-4A7F-B2BD-0C498DBF5AFB";
paths = (
{
closed = 1;
nodes = (
"504 260 LINE",
"504 335 LINE",
"30 335 LINE",
"30 260 LINE"
);
}
);
width = 534;
},
{
layerId = "2F5B831B-86AF-41A9-958D-3871EE4B7007";
width = 600;
}
);
unicode = 2013;
},
{
glyphname = emdash;
lastChange = "2018-10-11 05:45:31 +0000";
layers = (
{
layerId = "44A3F285-AC1C-4A7F-B2BD-0C498DBF5AFB";
paths = (
{
closed = 1;
nodes = (
"662 260 LINE",
"662 335 LINE",
"30 335 LINE",
"30 260 LINE"
);
}
);
width = 692;
},
{
layerId = "2F5B831B-86AF-41A9-958D-3871EE4B7007";
width = 600;
}
);
unicode = 2014;
},
{
glyphname = underscore;
lastChange = "2018-04-19 10:52:48 +0000";
layers = (
{
layerId = "44A3F285-AC1C-4A7F-B2BD-0C498DBF5AFB";
paths = (
{
closed = 1;
nodes = (
"514 -115 LINE",
"514 -40 LINE",
"40 -40 LINE",
"40 -115 LINE"
);
}
);
width = 554;
},
{
layerId = "2F5B831B-86AF-41A9-958D-3871EE4B7007";
width = 600;
}
);
unicode = 005F;
},
{
glyphname = quotesinglbase;
lastChange = "2018-04-19 10:52:48 +0000";
layers = (
{
layerId = "44A3F285-AC1C-4A7F-B2BD-0C498DBF5AFB";
paths = (
{
closed = 1;
nodes = (
"133 -82 OFFCURVE",
"168 -26 OFFCURVE",
"168 38 CURVE SMOOTH",
"168 85 OFFCURVE",
"140 108 OFFCURVE",
"106 108 CURVE SMOOTH",
"72 108 OFFCURVE",
"45 86 OFFCURVE",
"45 49 CURVE SMOOTH",
"45 7 OFFCURVE",
"80 -2 OFFCURVE",
"89 -12 CURVE SMOOTH",
"109 -34 OFFCURVE",
"79 -81 OFFCURVE",
"46 -115 CURVE",
"76 -139 LINE"
);
}
);
width = 213;
},
{
layerId = "2F5B831B-86AF-41A9-958D-3871EE4B7007";
width = 600;
}
);
unicode = 201A;
},
{
glyphname = guilsinglright;
lastChange = "2018-04-19 10:52:48 +0000";
layers = (
{
layerId = "44A3F285-AC1C-4A7F-B2BD-0C498DBF5AFB";
paths = (
{
closed = 1;
nodes = (
"166 281 LINE",
"45 105 LINE",
"91 65 LINE",
"251 246 LINE",
"251 316 LINE",
"91 497 LINE",
"45 457 LINE"
);
}
);
width = 306;
},
{
layerId = "2F5B831B-86AF-41A9-958D-3871EE4B7007";
width = 600;
}
);
unicode = 203A;
},
{
glyphname = quotesingle;
lastChange = "2018-08-28 03:01:10 +0000";
layers = (
{
layerId = "44A3F285-AC1C-4A7F-B2BD-0C498DBF5AFB";
paths = (
{
closed = 1;
nodes = (
"48 636 OFFCURVE",
"50 575 OFFCURVE",
"62 477 CURVE",
"106 477 LINE",
"118 575 OFFCURVE",
"122 636 OFFCURVE",
"122 724 CURVE",
"48 724 LINE"
);
}
);
width = 170;
},
{
layerId = "2F5B831B-86AF-41A9-958D-3871EE4B7007";
width = 600;
}
);
unicode = 0027;
},
{
glyphname = cent;
lastChange = "2018-10-07 16:38:31 +0000";
layers = (
{
components = (
{
name = c;
}
);
layerId = "44A3F285-AC1C-4A7F-B2BD-0C498DBF5AFB";
paths = (
{
closed = 1;
nodes = (
"234 501 LINE",
"236 470 LINE",
"206 39 LINE",
"199 3 LINE",
"190 -117 LINE",
"245 -121 LINE",
"253 -1 LINE",
"251 36 LINE",
"281 466 LINE",
"288 497 LINE",
"297 617 LINE",
"242 621 LINE"
);
}
);
width = 423;
},
{
layerId = "2F5B831B-86AF-41A9-958D-3871EE4B7007";
width = 600;
}
);
unicode = 00A2;
},
{
glyphname = currency;
lastChange = "2018-10-11 03:01:38 +0000";
layers = (
{
layerId = "44A3F285-AC1C-4A7F-B2BD-0C498DBF5AFB";
paths = (
{
closed = 1;
nodes = (
"357 161 OFFCURVE",
"421 231 OFFCURVE",
"421 336 CURVE SMOOTH",
"421 441 OFFCURVE",
"357 509 OFFCURVE",
"255 509 CURVE SMOOTH",
"153 509 OFFCURVE",
"89 441 OFFCURVE",
"89 336 CURVE SMOOTH",
"89 231 OFFCURVE",
"153 161 OFFCURVE",
"255 161 CURVE SMOOTH"
);
},
{
closed = 1;
nodes = (
"200 219 OFFCURVE",
"170 260 OFFCURVE",
"170 335 CURVE SMOOTH",
"170 410 OFFCURVE",
"200 451 OFFCURVE",
"255 451 CURVE SMOOTH",
"310 451 OFFCURVE",
"340 410 OFFCURVE",
"340 335 CURVE SMOOTH",
"340 260 OFFCURVE",
"310 219 OFFCURVE",
"255 219 CURVE SMOOTH"
);
},
{
closed = 1;
nodes = (
"470 496 LINE",
"417 552 LINE",
"330 457 LINE",
"370 415 LINE"
);
},
{
closed = 1;
nodes = (
"180 457 LINE",
"93 552 LINE",
"40 496 LINE",
"140 415 LINE"
);
},
{
closed = 1;
nodes = (
"330 213 LINE",
"417 118 LINE",
"470 174 LINE",
"370 255 LINE"
);
},
{
closed = 1;
nodes = (
"40 174 LINE",
"93 118 LINE",
"180 213 LINE",
"140 255 LINE"
);
}
);
width = 510;
},
{
layerId = "2F5B831B-86AF-41A9-958D-3871EE4B7007";
width = 600;
}
);
unicode = 00A4;
},
{
glyphname = dollar;
lastChange = "2018-10-13 15:27:19 +0000";
layers = (
{
layerId = "44A3F285-AC1C-4A7F-B2BD-0C498DBF5AFB";
paths = (
{
closed = 1;
nodes = (
"369 -12 OFFCURVE",
"445 76 OFFCURVE",
"445 188 CURVE SMOOTH",
"445 287 OFFCURVE",
"383 336 OFFCURVE",
"274 391 CURVE SMOOTH",
"168 446 OFFCURVE",
"136 476 OFFCURVE",
"136 527 CURVE SMOOTH",
"136 585 OFFCURVE",
"173 627 OFFCURVE",
"249 627 CURVE SMOOTH",
"294 627 OFFCURVE",
"340 613 OFFCURVE",
"382 587 CURVE",
"409 652 LINE",
"359 677 OFFCURVE",
"312 697 OFFCURVE",
"245 697 CURVE SMOOTH",
"121 697 OFFCURVE",
"46 628 OFFCURVE",
"46 527 CURVE SMOOTH",
"46 462 OFFCURVE",
"76 397 OFFCURVE",
"205 330 CURVE SMOOTH",
"309 276 OFFCURVE",
"352 248 OFFCURVE",
"352 186 CURVE SMOOTH",
"352 128 OFFCURVE",
"316 63 OFFCURVE",
"221 63 CURVE SMOOTH",
"163 63 OFFCURVE",
"111 88 OFFCURVE",
"64 131 CURVE",
"27 63 LINE",
"81 17 OFFCURVE",
"149 -12 OFFCURVE",
"228 -12 CURVE SMOOTH"
);
},
{
closed = 1;
nodes = (
"230 674 LINE",
"232 644 LINE",
"189 34 LINE",
"183 -2 LINE",
"175 -108 LINE",
"234 -112 LINE",
"241 -6 LINE",
"239 29 LINE",
"282 639 LINE",
"288 670 LINE",
"296 775 LINE",
"237 779 LINE"
);
}
);
width = 502;
},
{
layerId = "2F5B831B-86AF-41A9-958D-3871EE4B7007";
width = 600;
}
);
leftMetricsKey = S;
rightMetricsKey = S;
unicode = 0024;
},
{
glyphname = euro;
lastChange = "2018-10-13 15:28:19 +0000";
layers = (
{
layerId = "44A3F285-AC1C-4A7F-B2BD-0C498DBF5AFB";
paths = (
{
closed = 1;
nodes = (
"464 377 LINE",
"464 437 LINE",
"40 437 LINE",
"40 377 LINE"
);
},
{
closed = 1;
nodes = (
"464 233 LINE",
"464 293 LINE",
"40 293 LINE",
"40 233 LINE"
);
},
{
closed = 1;
nodes = (
"424 -10 OFFCURVE",
"479 12 OFFCURVE",
"525 52 CURVE",
"473 111 LINE",
"441 81 OFFCURVE",
"402 62 OFFCURVE",
"356 62 CURVE SMOOTH",
"243 62 OFFCURVE",
"209 172 OFFCURVE",
"209 343 CURVE SMOOTH",
"209 516 OFFCURVE",
"245 625 OFFCURVE",
"361 625 CURVE SMOOTH",
"408 625 OFFCURVE",
"437 607 OFFCURVE",
"473 574 CURVE",
"525 633 LINE",
"484 668 OFFCURVE",
"444 697 OFFCURVE",
"356 697 CURVE SMOOTH",
"180 697 OFFCURVE",
"117 563 OFFCURVE",
"117 343 CURVE SMOOTH",
"117 123 OFFCURVE",
"176 -10 OFFCURVE",
"352 -10 CURVE SMOOTH"
);
}
);
width = 565;
},
{
layerId = "2F5B831B-86AF-41A9-958D-3871EE4B7007";
width = 600;
}
);
unicode = 20AC;
},
{
glyphname = sterling;
lastChange = "2018-10-13 15:28:36 +0000";
layers = (
{
layerId = "44A3F285-AC1C-4A7F-B2BD-0C498DBF5AFB";
paths = (
{
closed = 1;
nodes = (
"135 0 LINE",
"191 68 LINE",
"269 107 OFFCURVE",
"289 158 OFFCURVE",
"289 226 CURVE SMOOTH",
"289 277 OFFCURVE",
"270 322 OFFCURVE",
"232 382 CURVE SMOOTH",
"204 426 OFFCURVE",
"179 475 OFFCURVE",
"179 524 CURVE SMOOTH",
"179 591 OFFCURVE",
"220 625 OFFCURVE",
"289 625 CURVE SMOOTH",
"340 625 OFFCURVE",
"379 606 OFFCURVE",
"429 570 CURVE",
"465 634 LINE",
"408 675 OFFCURVE",
"351 697 OFFCURVE",
"279 697 CURVE SMOOTH",
"161 697 OFFCURVE",
"88 637 OFFCURVE",
"88 534 CURVE SMOOTH",
"88 471 OFFCURVE",
"113 415 OFFCURVE",
"152 358 CURVE SMOOTH",
"191 301 OFFCURVE",
"206 273 OFFCURVE",
"206 209 CURVE SMOOTH",
"206 127 OFFCURVE",
"129 74 OFFCURVE",
"49 60 CURVE",
"49 0 LINE"
);
},
{
closed = 1;
nodes = (
"486 0 LINE",
"486 76 LINE",
"271 76 LINE SMOOTH",
"248 76 OFFCURVE",
"221 74 OFFCURVE",
"191 68 CURVE",
"115 0 LINE"
);
},
{
closed = 1;
nodes = (
"444 313 LINE",
"444 373 LINE",
"40 373 LINE",
"40 313 LINE"
);
}
);
width = 513;
},
{
layerId = "2F5B831B-86AF-41A9-958D-3871EE4B7007";
width = 600;
}
);
unicode = 00A3;
},
{
glyphname = yen;
lastChange = "2018-10-11 03:11:58 +0000";
layers = (
{
components = (
{
name = Y;
}
);
layerId = "44A3F285-AC1C-4A7F-B2BD-0C498DBF5AFB";
paths = (
{
closed = 1;
nodes = (
"483 289 LINE",
"483 349 LINE",
"59 349 LINE",
"59 289 LINE"
);
},
{
closed = 1;
nodes = (
"483 145 LINE",
"483 205 LINE",
"59 205 LINE",
"59 145 LINE"
);
}
);
width = 538;
},
{
layerId = "2F5B831B-86AF-41A9-958D-3871EE4B7007";
width = 600;
}
);
unicode = 00A5;
},
{
glyphname = plus;
lastChange = "2018-10-11 05:39:12 +0000";
layers = (
{
layerId = "44A3F285-AC1C-4A7F-B2BD-0C498DBF5AFB";
paths = (
{
closed = 1;
nodes = (
"414 283 LINE",
"414 353 LINE",
"40 353 LINE",
"40 283 LINE"
);
},
{
closed = 1;
nodes = (
"187 126 LINE",
"267 126 LINE",
"267 500 LINE",
"187 500 LINE"
);
}
);
width = 454;
},
{
layerId = "2F5B831B-86AF-41A9-958D-3871EE4B7007";
width = 600;
}
);
unicode = 002B;
},
{
glyphname = minus;
lastChange = "2018-10-11 04:13:49 +0000";
layers = (
{
layerId = "44A3F285-AC1C-4A7F-B2BD-0C498DBF5AFB";
paths = (
{
closed = 1;
nodes = (
"434 287 LINE",
"434 360 LINE",
"50 360 LINE",
"50 287 LINE"
);
}
);
width = 484;
},
{
layerId = "2F5B831B-86AF-41A9-958D-3871EE4B7007";
width = 600;
}
);
unicode = 2212;
},
{
glyphname = multiply;
lastChange = "2018-10-11 04:12:27 +0000";
layers = (
{
layerId = "44A3F285-AC1C-4A7F-B2BD-0C498DBF5AFB";
paths = (
{
closed = 1;
nodes = (
"359 173 LINE",
"409 224 LINE",
"100 533 LINE",
"50 482 LINE"
);
},
{
closed = 1;
nodes = (
"50 224 LINE",
"101 173 LINE",
"409 482 LINE",
"358 533 LINE"
);
}
);
width = 459;
},
{
layerId = "2F5B831B-86AF-41A9-958D-3871EE4B7007";
width = 600;
}
);
unicode = 00D7;
},
{
glyphname = notequal;
lastChange = "2018-10-11 04:41:18 +0000";
layers = (
{
components = (
{
name = equal;
}
);
layerId = "44A3F285-AC1C-4A7F-B2BD-0C498DBF5AFB";
paths = (
{
closed = 1;
nodes = (
"248 442 LINE",
"243 412 LINE",
"200 249 LINE",
"186 215 LINE",
"150 79 LINE",
"206 64 LINE",
"242 200 LINE",
"248 236 LINE",
"291 398 LINE",
"304 427 LINE",
"340 563 LINE",
"284 578 LINE"
);
}
);
width = 484;
},
{
layerId = "2F5B831B-86AF-41A9-958D-3871EE4B7007";
width = 600;
}
);
unicode = 2260;
},
{
glyphname = less;
lastChange = "2018-10-11 05:59:17 +0000";
layers = (
{
layerId = "44A3F285-AC1C-4A7F-B2BD-0C498DBF5AFB";
paths = (
{
closed = 1;
nodes = (
"401 531 LINE",
"30 355 LINE",
"30 285 LINE",
"401 109 LINE",
"432 179 LINE",
"117 320 LINE",
"432 461 LINE"
);
}
);
width = 462;
},
{
layerId = "2F5B831B-86AF-41A9-958D-3871EE4B7007";
width = 600;
}
);
unicode = 003C;
},
{
glyphname = asciitilde;
lastChange = "2018-10-11 05:12:26 +0000";
layers = (
{
layerId = "44A3F285-AC1C-4A7F-B2BD-0C498DBF5AFB";
paths = (
{
closed = 1;
nodes = (
"384 244 OFFCURVE",
"424 314 OFFCURVE",
"440 358 CURVE",
"392 388 LINE",
"378 350 OFFCURVE",
"351 324 OFFCURVE",
"319 324 CURVE SMOOTH",
"264 324 OFFCURVE",
"241 394 OFFCURVE",
"176 394 CURVE SMOOTH",
"103 394 OFFCURVE",
"61 329 OFFCURVE",
"40 279 CURVE",
"89 249 LINE",
"105 286 OFFCURVE",
"134 313 OFFCURVE",
"167 313 CURVE SMOOTH",
"223 313 OFFCURVE",
"257 244 OFFCURVE",
"313 244 CURVE SMOOTH"
);
}
);
width = 480;
},
{
layerId = "2F5B831B-86AF-41A9-958D-3871EE4B7007";
width = 600;
}
);
unicode = 007E;
},
{
glyphname = logicalnot;
lastChange = "2018-10-11 06:11:07 +0000";
layers = (
{
layerId = "44A3F285-AC1C-4A7F-B2BD-0C498DBF5AFB";
paths = (
{
closed = 1;
nodes = (
"414 260 LINE",
"414 330 LINE",
"50 330 LINE",
"50 260 LINE"
);
},
{
closed = 1;
nodes = (
"332 149 LINE",
"414 149 LINE",
"414 313 LINE",
"332 313 LINE"
);
}
);
width = 464;
},
{
layerId = "2F5B831B-86AF-41A9-958D-3871EE4B7007";
width = 600;
}
);
unicode = 00AC;
},
{
glyphname = asciicircum;
lastChange = "2018-10-15 03:35:43 +0000";
layers = (
{
layerId = "44A3F285-AC1C-4A7F-B2BD-0C498DBF5AFB";
paths = (
{
closed = 1;
nodes = (
"442 405 LINE",
"266 736 LINE",
"196 736 LINE",
"20 405 LINE",
"88 375 LINE",
"231 654 LINE",
"374 375 LINE"
);
}
);
width = 462;
},
{
layerId = "2F5B831B-86AF-41A9-958D-3871EE4B7007";
width = 600;
}
);
unicode = 005E;
},
{
glyphname = emptyset;
lastChange = "2018-10-16 22:40:00 +0000";
layers = (
{
layerId = "44A3F285-AC1C-4A7F-B2BD-0C498DBF5AFB";
paths = (
{
closed = 1;
nodes = (
"553 -13 OFFCURVE",
"677 117 OFFCURVE",
"677 306 CURVE SMOOTH",
"677 496 OFFCURVE",
"553 625 OFFCURVE",
"359 625 CURVE SMOOTH",
"166 625 OFFCURVE",
"40 496 OFFCURVE",
"40 306 CURVE SMOOTH",
"40 117 OFFCURVE",
"166 -13 OFFCURVE",
"359 -13 CURVE SMOOTH"
);
},
{
closed = 1;
nodes = (
"214 52 OFFCURVE",
"121 153 OFFCURVE",
"121 306 CURVE SMOOTH",
"121 459 OFFCURVE",
"214 560 OFFCURVE",
"360 560 CURVE SMOOTH",
"504 560 OFFCURVE",
"596 459 OFFCURVE",
"596 306 CURVE SMOOTH",
"596 153 OFFCURVE",
"504 52 OFFCURVE",
"360 52 CURVE SMOOTH"
);
},
{
closed = 1;
nodes = (
"454 592 LINE",
"443 557 LINE",
"224 87 LINE",
"201 51 LINE",
"139 -80 LINE",
"203 -110 LINE",
"264 20 LINE",
"279 63 LINE",
"496 530 LINE",
"517 561 LINE",
"579 692 LINE",
"515 722 LINE"
);
}
);
width = 717;
},
{
layerId = "2F5B831B-86AF-41A9-958D-3871EE4B7007";
width = 600;
}
);
unicode = 2205;
},
{
glyphname = percent;
lastChange = "2018-10-15 02:57:46 +0000";
layers = (
{
layerId = "44A3F285-AC1C-4A7F-B2BD-0C498DBF5AFB";
paths = (
{
closed = 1;
nodes = (
"550 685 LINE",
"180 0 LINE",
"258 0 LINE",
"628 685 LINE"
);
},
{
closed = 1;
nodes = (
"699 -12 OFFCURVE",
"755 47 OFFCURVE",
"755 164 CURVE SMOOTH",
"755 281 OFFCURVE",
"699 338 OFFCURVE",
"610 338 CURVE SMOOTH",
"520 338 OFFCURVE",
"464 281 OFFCURVE",
"464 164 CURVE SMOOTH",
"464 47 OFFCURVE",
"520 -12 OFFCURVE",
"610 -12 CURVE SMOOTH"
);
},
{
closed = 1;
nodes = (
"561 36 OFFCURVE",
"537 80 OFFCURVE",
"537 163 CURVE SMOOTH",
"537 245 OFFCURVE",
"561 290 OFFCURVE",
"610 290 CURVE SMOOTH",
"658 290 OFFCURVE",
"682 245 OFFCURVE",
"682 163 CURVE SMOOTH",
"682 80 OFFCURVE",
"658 36 OFFCURVE",
"610 36 CURVE SMOOTH"
);
},
{
closed = 1;
nodes = (
"285 347 OFFCURVE",
"341 406 OFFCURVE",
"341 523 CURVE SMOOTH",
"341 640 OFFCURVE",
"285 697 OFFCURVE",
"196 697 CURVE SMOOTH",
"106 697 OFFCURVE",
"50 640 OFFCURVE",
"50 523 CURVE SMOOTH",
"50 406 OFFCURVE",
"106 347 OFFCURVE",
"196 347 CURVE SMOOTH"
);
},
{
closed = 1;
nodes = (
"147 395 OFFCURVE",
"123 439 OFFCURVE",
"123 522 CURVE SMOOTH",
"123 604 OFFCURVE",
"147 649 OFFCURVE",
"196 649 CURVE SMOOTH",
"244 649 OFFCURVE",
"268 604 OFFCURVE",
"268 522 CURVE SMOOTH",
"268 439 OFFCURVE",
"244 395 OFFCURVE",
"196 395 CURVE SMOOTH"
);
}
);
width = 805;
},
{
layerId = "2F5B831B-86AF-41A9-958D-3871EE4B7007";
width = 600;
}
);
unicode = 0025;
},
{
glyphname = perthousand;
lastChange = "2018-10-15 03:10:26 +0000";
layers = (
{
layerId = "44A3F285-AC1C-4A7F-B2BD-0C498DBF5AFB";
paths = (
{
closed = 1;
nodes = (
"1040 -12 OFFCURVE",
"1096 47 OFFCURVE",
"1096 164 CURVE SMOOTH",
"1096 281 OFFCURVE",
"1040 338 OFFCURVE",
"951 338 CURVE SMOOTH",
"861 338 OFFCURVE",
"805 281 OFFCURVE",
"805 164 CURVE SMOOTH",
"805 47 OFFCURVE",
"861 -12 OFFCURVE",
"951 -12 CURVE SMOOTH"
);
},
{
closed = 1;
nodes = (
"902 36 OFFCURVE",
"878 80 OFFCURVE",
"878 163 CURVE SMOOTH",
"878 245 OFFCURVE",
"902 290 OFFCURVE",
"951 290 CURVE SMOOTH",
"999 290 OFFCURVE",
"1023 245 OFFCURVE",
"1023 163 CURVE SMOOTH",
"1023 80 OFFCURVE",
"999 36 OFFCURVE",
"951 36 CURVE SMOOTH"
);
},
{
closed = 1;
nodes = (
"550 685 LINE",
"180 0 LINE",
"258 0 LINE",
"628 685 LINE"
);
},
{
closed = 1;
nodes = (
"699 -12 OFFCURVE",
"755 47 OFFCURVE",
"755 164 CURVE SMOOTH",
"755 281 OFFCURVE",
"699 338 OFFCURVE",
"610 338 CURVE SMOOTH",
"520 338 OFFCURVE",
"464 281 OFFCURVE",
"464 164 CURVE SMOOTH",
"464 47 OFFCURVE",
"520 -12 OFFCURVE",
"610 -12 CURVE SMOOTH"
);
},
{
closed = 1;
nodes = (
"561 36 OFFCURVE",
"537 80 OFFCURVE",
"537 163 CURVE SMOOTH",
"537 245 OFFCURVE",
"561 290 OFFCURVE",
"610 290 CURVE SMOOTH",
"658 290 OFFCURVE",
"682 245 OFFCURVE",
"682 163 CURVE SMOOTH",
"682 80 OFFCURVE",
"658 36 OFFCURVE",
"610 36 CURVE SMOOTH"
);
},
{
closed = 1;
nodes = (
"285 347 OFFCURVE",
"341 406 OFFCURVE",
"341 523 CURVE SMOOTH",
"341 640 OFFCURVE",
"285 697 OFFCURVE",
"196 697 CURVE SMOOTH",
"106 697 OFFCURVE",
"50 640 OFFCURVE",
"50 523 CURVE SMOOTH",
"50 406 OFFCURVE",
"106 347 OFFCURVE",
"196 347 CURVE SMOOTH"
);
},
{
closed = 1;
nodes = (
"147 395 OFFCURVE",
"123 439 OFFCURVE",
"123 522 CURVE SMOOTH",
"123 604 OFFCURVE",
"147 649 OFFCURVE",
"196 649 CURVE SMOOTH",
"244 649 OFFCURVE",
"268 604 OFFCURVE",
"268 522 CURVE SMOOTH",
"268 439 OFFCURVE",
"244 395 OFFCURVE",
"196 395 CURVE SMOOTH"
);
}
);
width = 1135;
},
{
layerId = "2F5B831B-86AF-41A9-958D-3871EE4B7007";
width = 600;
}
);
unicode = 2030;
},
{
glyphname = greater.001;
lastChange = "2018-10-11 00:24:48 +0000";
layers = (
{
layerId = "44A3F285-AC1C-4A7F-B2BD-0C498DBF5AFB";
paths = (
{
closed = 1;
nodes = (
"327 300 LINE",
"20 178 LINE",
"20 88 LINE",
"402 265 LINE",
"402 335 LINE",
"20 512 LINE",
"20 422 LINE"
);
}
);
width = 408;
},
{
layerId = "2F5B831B-86AF-41A9-958D-3871EE4B7007";
width = 600;
}
);
},
{
glyphname = at;
lastChange = "2018-09-10 17:40:18 +0000";
layers = (
{
layerId = "44A3F285-AC1C-4A7F-B2BD-0C498DBF5AFB";
paths = (
{
closed = 1;
nodes = (
"715 149 OFFCURVE",
"643 149 CURVE SMOOTH",
"602 149 OFFCURVE",
"586 177 OFFCURVE",
"586 216 CURVE SMOOTH",
"586 397 LINE SMOOTH",
"586 479 OFFCURVE",
"532 527 OFFCURVE",
"436 527 CURVE",
"388 527 OFFCURVE",
"352 515 OFFCURVE",
"310 492 CURVE",
"332 440 LINE",
"367 459 OFFCURVE",
"395 465 OFFCURVE",
"424 465 CURVE SMOOTH",
"479 465 OFFCURVE",
"509 436 OFFCURVE",
"509 396 CURVE SMOOTH",
"509 225 LINE",
"513 186 LINE",
"513 134 OFFCURVE",
"558 88 OFFCURVE",
"643 88 CURVE SMOOTH",
"760 88 OFFCURVE",
"830 205 OFFCURVE",
"830 359 CURVE SMOOTH",
"830 543 OFFCURVE",
"689 697 OFFCURVE",
"439 697 CURVE SMOOTH",
"189 697 OFFCURVE",
"57 513 OFFCURVE",
"57 293 CURVE SMOOTH",
"57 73 OFFCURVE",
"168 -125 OFFCURVE",
"464 -125 CURVE SMOOTH",
"562 -125 OFFCURVE",
"666 -104 OFFCURVE",
"760 -69 CURVE",
"734 0 LINE",
"659 -32 OFFCURVE",
"557 -59 OFFCURVE",
"464 -59 CURVE SMOOTH",
"252 -59 OFFCURVE",
"131 108 OFFCURVE",
"131 293 CURVE SMOOTH",
"131 478 OFFCURVE",
"243 632 OFFCURVE",
"439 632 CURVE SMOOTH",
"635 632 OFFCURVE",
"756 536 OFFCURVE",
"756 354 CURVE SMOOTH",
"756 248 OFFCURVE"
);
},
{
closed = 1;
nodes = (
"476 86 OFFCURVE",
"536 146 OFFCURVE",
"536 249 CURVE",
"509 271 LINE",
"509 191 OFFCURVE",
"471 156 OFFCURVE",
"426 156 CURVE SMOOTH",
"388 156 OFFCURVE",
"368 181 OFFCURVE",
"368 217 CURVE SMOOTH",
"368 263 OFFCURVE",
"401 296 OFFCURVE",
"477 307 CURVE SMOOTH",
"513 312 LINE",
"513 362 LINE",
"437 352 LINE SMOOTH",
"358 342 OFFCURVE",
"283 300 OFFCURVE",
"283 216 CURVE SMOOTH",
"283 144 OFFCURVE",
"338 86 OFFCURVE",
"408 86 CURVE SMOOTH"
);
}
);
width = 877;
},
{
layerId = "2F5B831B-86AF-41A9-958D-3871EE4B7007";
width = 600;
}
);
unicode = 0040;
},
{
glyphname = ampersand;
lastChange = "2018-10-07 15:55:38 +0000";
layers = (
{
layerId = "44A3F285-AC1C-4A7F-B2BD-0C498DBF5AFB";
paths = (
{
closed = 1;
nodes = (
"564 0 LINE",
"306 308 OFFCURVE",
"194 461 OFFCURVE",
"194 549 CURVE SMOOTH",
"194 603 OFFCURVE",
"228 626 OFFCURVE",
"271 626 CURVE SMOOTH",
"311 626 OFFCURVE",
"339 607 OFFCURVE",
"367 580 CURVE",
"403 641 LINE",
"366 674 OFFCURVE",
"329 697 OFFCURVE",
"268 697 CURVE SMOOTH",
"169 697 OFFCURVE",
"112 637 OFFCURVE",
"112 556 CURVE SMOOTH",
"112 428 OFFCURVE",
"268 238 OFFCURVE",
"464 0 CURVE"
);
},
{
closed = 1;
nodes = (
"339 -12 OFFCURVE",
"391 60 OFFCURVE",
"419 108 CURVE",
"369 158 LINE",
"346 113 OFFCURVE",
"314 64 OFFCURVE",
"244 64 CURVE SMOOTH",
"170 64 OFFCURVE",
"112 118 OFFCURVE",
"112 195 CURVE SMOOTH",
"112 261 OFFCURVE",
"159 316 OFFCURVE",
"230 355 CURVE",
"199 409 LINE",
"131 374 OFFCURVE",
"17 315 OFFCURVE",
"17 185 CURVE SMOOTH",
"17 71 OFFCURVE",
"109 -12 OFFCURVE",
"228 -12 CURVE SMOOTH"
);
},
{
closed = 1;
nodes = (
"467 224 OFFCURVE",
"482 315 OFFCURVE",
"487 422 CURVE",
"411 422 LINE",
"411 360 OFFCURVE",
"406 265 OFFCURVE",
"388 207 CURVE",
"435 150 LINE"
);
}
);
width = 588;
},
{
layerId = "2F5B831B-86AF-41A9-958D-3871EE4B7007";
width = 600;
}
);
unicode = 0026;
},
{
glyphname = copyright;
lastChange = "2018-10-16 23:52:40 +0000";
layers = (
{
anchors = (
{
name = bottom;
position = "{309, 249}";
}
);
layerId = "44A3F285-AC1C-4A7F-B2BD-0C498DBF5AFB";
paths = (
{
closed = 1;
nodes = (
"511 107 OFFCURVE",
"629 231 OFFCURVE",
"629 402 CURVE SMOOTH",
"629 573 OFFCURVE",
"511 697 OFFCURVE",
"335 697 CURVE SMOOTH",
"159 697 OFFCURVE",
"40 573 OFFCURVE",
"40 402 CURVE SMOOTH",
"40 231 OFFCURVE",
"159 107 OFFCURVE",
"335 107 CURVE SMOOTH"
);
},
{
closed = 1;
nodes = (
"196 159 OFFCURVE",
"102 256 OFFCURVE",
"102 402 CURVE SMOOTH",
"102 548 OFFCURVE",
"196 645 OFFCURVE",
"336 645 CURVE SMOOTH",
"474 645 OFFCURVE",
"567 548 OFFCURVE",
"567 402 CURVE SMOOTH",
"567 256 OFFCURVE",
"474 159 OFFCURVE",
"336 159 CURVE SMOOTH"
);
},
{
closed = 1;
nodes = (
"373 235 OFFCURVE",
"405 247 OFFCURVE",
"427 261 CURVE",
"410 301 LINE",
"387 285 OFFCURVE",
"377 280 OFFCURVE",
"344 280 CURVE SMOOTH",
"296 280 OFFCURVE",
"269 322 OFFCURVE",
"269 403 CURVE SMOOTH",
"269 485 OFFCURVE",
"296 528 OFFCURVE",
"344 526 CURVE SMOOTH",
"373 525 OFFCURVE",
"388 520 OFFCURVE",
"410 504 CURVE",
"427 544 LINE",
"405 558 OFFCURVE",
"375 572 OFFCURVE",
"344 572 CURVE SMOOTH",
"262 572 OFFCURVE",
"205 518 OFFCURVE",
"205 403 CURVE SMOOTH",
"205 288 OFFCURVE",
"262 235 OFFCURVE",
"344 235 CURVE SMOOTH"
);
}
);
width = 669;
},
{
layerId = "2F5B831B-86AF-41A9-958D-3871EE4B7007";
width = 600;
}
);
unicode = 00A9;
},
{
glyphname = registered;
lastChange = "2018-10-17 00:26:54 +0000";
layers = (
{
layerId = "44A3F285-AC1C-4A7F-B2BD-0C498DBF5AFB";
paths = (
{
closed = 1;
nodes = (
"371 296 OFFCURVE",
"459 389 OFFCURVE",
"459 516 CURVE SMOOTH",
"459 643 OFFCURVE",
"371 736 OFFCURVE",
"240 736 CURVE SMOOTH",
"108 736 OFFCURVE",
"20 643 OFFCURVE",
"20 516 CURVE SMOOTH",
"20 389 OFFCURVE",
"108 296 OFFCURVE",
"240 296 CURVE SMOOTH"
);
},
{
closed = 1;
nodes = (
"138 340 OFFCURVE",
"70 409 OFFCURVE",
"70 516 CURVE SMOOTH",
"70 623 OFFCURVE",
"138 692 OFFCURVE",
"240 692 CURVE SMOOTH",
"342 692 OFFCURVE",
"409 623 OFFCURVE",
"409 516 CURVE SMOOTH",
"409 409 OFFCURVE",
"342 340 OFFCURVE",
"240 340 CURVE SMOOTH"
);
},
{
closed = 1;
nodes = (
"258 505 LINE",
"266 507 LINE",
"291 514 OFFCURVE",
"317 533 OFFCURVE",
"317 572 CURVE SMOOTH",
"317 610 OFFCURVE",
"284 634 OFFCURVE",
"248 634 CURVE SMOOTH",
"205 634 LINE",
"205 601 LINE",
"236 601 LINE SMOOTH",
"261 601 OFFCURVE",
"273 589 OFFCURVE",
"273 571 CURVE SMOOTH",
"273 553 OFFCURVE",
"261 540 OFFCURVE",
"236 540 CURVE SMOOTH",
"205 540 LINE",
"205 505 LINE"
);
},
{
closed = 1;
nodes = (
"213 414 LINE",
"213 634 LINE",
"171 634 LINE",
"171 414 LINE"
);
},
{
closed = 1;
nodes = (
"331 414 LINE",
"331 416 LINE",
"266 516 LINE",
"224 516 LINE",
"280 414 LINE"
);
}
);
width = 479;
},
{
layerId = "2F5B831B-86AF-41A9-958D-3871EE4B7007";
width = 600;
}
);
unicode = 00AE;
},
{
glyphname = trademark;
lastChange = "2018-10-18 15:06:19 +0000";
layers = (
{
layerId = "44A3F285-AC1C-4A7F-B2BD-0C498DBF5AFB";
paths = (
{
closed = 1;
nodes = (
"158 415 LINE",
"158 685 LINE",
"105 685 LINE",
"105 415 LINE"
);
},
{
closed = 1;
nodes = (
"241 645 LINE",
"241 685 LINE",
"20 685 LINE",
"20 645 LINE"
);
},
{
closed = 1;
nodes = (
"305 415 LINE",
"317 635 LINE",
"372 415 LINE",
"432 415 LINE",
"483 635 LINE",
"497 415 LINE",
"548 415 LINE",
"524 685 LINE",
"453 685 LINE",
"407 469 LINE",
"354 685 LINE",
"281 685 LINE",
"262 415 LINE"
);
}
);
width = 564;
},
{
components = (
{
name = T;
},
{
name = M;
transform = "{1, 0, 0, 1, 502, 0}";
}
);
layerId = "2F5B831B-86AF-41A9-958D-3871EE4B7007";
width = 1325;
}
);
unicode = 2122;
},
{
glyphname = at.001;
lastChange = "2018-09-03 19:21:29 +0000";
layers = (
{
layerId = "44A3F285-AC1C-4A7F-B2BD-0C498DBF5AFB";
paths = (
{
closed = 1;
nodes = (
"699 169 OFFCURVE",
"641 169 CURVE SMOOTH",
"600 169 OFFCURVE",
"584 197 OFFCURVE",
"584 236 CURVE SMOOTH",
"584 417 LINE SMOOTH",
"584 499 OFFCURVE",
"530 547 OFFCURVE",
"434 547 CURVE",
"386 547 OFFCURVE",
"350 535 OFFCURVE",
"308 512 CURVE",
"330 460 LINE",
"365 479 OFFCURVE",
"393 485 OFFCURVE",
"422 485 CURVE SMOOTH",
"477 485 OFFCURVE",
"507 456 OFFCURVE",
"507 416 CURVE SMOOTH",
"507 245 LINE",
"511 206 LINE",
"511 154 OFFCURVE",
"556 108 OFFCURVE",
"641 108 CURVE SMOOTH",
"748 108 OFFCURVE",
"825 185 OFFCURVE",
"825 339 CURVE SMOOTH",
"825 543 OFFCURVE",
"693 704 OFFCURVE",
"441 704 CURVE SMOOTH",
"199 704 OFFCURVE",
"48 539 OFFCURVE",
"48 320 CURVE SMOOTH",
"48 104 OFFCURVE",
"179 -75 OFFCURVE",
"465 -75 CURVE SMOOTH",
"563 -75 OFFCURVE",
"664 -54 OFFCURVE",
"758 -19 CURVE",
"733 55 LINE",
"659 23 OFFCURVE",
"557 -4 OFFCURVE",
"465 -4 CURVE SMOOTH",
"269 -4 OFFCURVE",
"130 122 OFFCURVE",
"130 313 CURVE SMOOTH",
"130 504 OFFCURVE",
"245 635 OFFCURVE",
"441 635 CURVE SMOOTH",
"637 635 OFFCURVE",
"746 508 OFFCURVE",
"746 339 CURVE SMOOTH",
"746 227 OFFCURVE"
);
},
{
closed = 1;
nodes = (
"474 106 OFFCURVE",
"534 166 OFFCURVE",
"534 269 CURVE",
"507 291 LINE",
"507 211 OFFCURVE",
"469 176 OFFCURVE",
"424 176 CURVE SMOOTH",
"386 176 OFFCURVE",
"366 201 OFFCURVE",
"366 237 CURVE SMOOTH",
"366 283 OFFCURVE",
"399 316 OFFCURVE",
"475 327 CURVE SMOOTH",
"511 332 LINE",
"511 382 LINE",
"435 372 LINE SMOOTH",
"356 362 OFFCURVE",
"281 320 OFFCURVE",
"281 236 CURVE SMOOTH",
"281 164 OFFCURVE",
"336 106 OFFCURVE",
"406 106 CURVE SMOOTH"
);
}
);
width = 892;
},
{
layerId = "2F5B831B-86AF-41A9-958D-3871EE4B7007";
width = 600;
}
);
},
{
glyphname = trademark.001;
layers = (
{
layerId = "44A3F285-AC1C-4A7F-B2BD-0C498DBF5AFB";
paths = (
{
closed = 1;
nodes = (
"164 415 LINE",
"164 685 LINE",
"109 685 LINE",
"109 415 LINE"
);
},
{
closed = 1;
nodes = (
"246 645 LINE",
"246 685 LINE",
"25 685 LINE",
"25 645 LINE"
);
},
{
closed = 1;
nodes = (
"312 415 LINE",
"335 645 LINE",
"388 415 LINE",
"450 415 LINE",
"502 645 LINE",
"527 415 LINE",
"584 415 LINE",
"545 685 LINE",
"471 685 LINE",
"423 468 LINE",
"377 685 LINE",
"295 685 LINE",
"264 415 LINE"
);
}
);
width = 604;
},
{
components = (
{
name = T;
},
{
name = M;
transform = "{1, 0, 0, 1, 502, 0}";
}
);
layerId = "2F5B831B-86AF-41A9-958D-3871EE4B7007";
width = 1325;
}
);
},
{
glyphname = dieresiscomb;
lastChange = "2018-04-19 10:55:25 +0000";
layers = (
{
anchors = (
{
name = _top;
position = "{207, 500}";
}
);
layerId = "44A3F285-AC1C-4A7F-B2BD-0C498DBF5AFB";
paths = (
{
closed = 1;
nodes = (
"139 602 OFFCURVE",
"164 624 OFFCURVE",
"164 658 CURVE SMOOTH",
"164 689 OFFCURVE",
"139 712 OFFCURVE",
"107 712 CURVE SMOOTH",
"74 712 OFFCURVE",
"50 689 OFFCURVE",
"50 658 CURVE SMOOTH",
"50 624 OFFCURVE",
"74 602 OFFCURVE",
"107 602 CURVE SMOOTH"
);
},
{
closed = 1;
nodes = (
"339 602 OFFCURVE",
"364 624 OFFCURVE",
"364 658 CURVE SMOOTH",
"364 689 OFFCURVE",
"339 712 OFFCURVE",
"307 712 CURVE SMOOTH",
"274 712 OFFCURVE",
"250 689 OFFCURVE",
"250 658 CURVE SMOOTH",
"250 624 OFFCURVE",
"274 602 OFFCURVE",
"307 602 CURVE SMOOTH"
);
}
);
width = 414;
},
{
layerId = "2F5B831B-86AF-41A9-958D-3871EE4B7007";
width = 600;
}
);
unicode = 0308;
},
{
glyphname = dotaccentcomb;
lastChange = "2018-04-19 10:55:25 +0000";
layers = (
{
anchors = (
{
name = _top;
position = "{80, 500}";
}
);
layerId = "44A3F285-AC1C-4A7F-B2BD-0C498DBF5AFB";
paths = (
{
closed = 1;
nodes = (
"113 604 OFFCURVE",
"139 627 OFFCURVE",
"139 662 CURVE SMOOTH",
"139 694 OFFCURVE",
"113 717 OFFCURVE",
"80 717 CURVE SMOOTH",
"46 717 OFFCURVE",
"21 694 OFFCURVE",
"21 662 CURVE SMOOTH",
"21 627 OFFCURVE",
"46 604 OFFCURVE",
"80 604 CURVE SMOOTH"
);
}
);
width = 160;
},
{
anchors = (
{
name = _top;
position = "{143, 506}";
}
);
layerId = "2F5B831B-86AF-41A9-958D-3871EE4B7007";
paths = (
{
closed = 1;
nodes = (
"201 578 OFFCURVE",
"248 619 OFFCURVE",
"248 681 CURVE SMOOTH",
"248 737 OFFCURVE",
"201 778 OFFCURVE",
"143 778 CURVE SMOOTH",
"83 778 OFFCURVE",
"37 737 OFFCURVE",
"37 681 CURVE SMOOTH",
"37 619 OFFCURVE",
"83 578 OFFCURVE",
"143 578 CURVE SMOOTH"
);
}
);
width = 287;
}
);
unicode = 0307;
},
{
glyphname = gravecomb;
lastChange = "2018-04-19 10:55:25 +0000";
layers = (
{
anchors = (
{
name = _top;
position = "{175, 500}";
},
{
name = top;
position = "{167, 670}";
}
);
layerId = "44A3F285-AC1C-4A7F-B2BD-0C498DBF5AFB";
paths = (
{
closed = 1;
nodes = (
"215 595 LINE",
"93 744 LINE",
"27 690 LINE",
"174 559 LINE"
);
}
);
width = 242;
},
{
layerId = "2F5B831B-86AF-41A9-958D-3871EE4B7007";
width = 600;
}
);
unicode = 0300;
},
{
glyphname = acutecomb;
lastChange = "2018-07-27 15:29:33 +0000";
layers = (
{
anchors = (
{
name = _top;
position = "{67, 500}";
}
);
layerId = "44A3F285-AC1C-4A7F-B2BD-0C498DBF5AFB";
paths = (
{
closed = 1;
nodes = (
"215 690 LINE",
"149 744 LINE",
"27 595 LINE",
"68 559 LINE"
);
}
);
width = 242;
},
{
anchors = (
{
name = _top;
position = "{126, 506}";
}
);
layerId = "2F5B831B-86AF-41A9-958D-3871EE4B7007";
paths = (
{
closed = 1;
nodes = (
"259 643 LINE",
"184 755 LINE",
"28 638 LINE",
"76 560 LINE"
);
}
);
width = 288;
}
);
unicode = 0301;
},
{
color = 3;
glyphname = circumflexcomb;
lastChange = "2018-04-19 10:55:25 +0000";
layers = (
{
anchors = (
{
name = _top;
position = "{176, 500}";
}
);
layerId = "44A3F285-AC1C-4A7F-B2BD-0C498DBF5AFB";
paths = (
{
closed = 1;
nodes = (
"176 660 LINE",
"281 578 LINE",
"322 614 LINE",
"201 738 LINE",
"151 738 LINE",
"30 614 LINE",
"71 578 LINE"
);
}
);
width = 352;
},
{
layerId = "2F5B831B-86AF-41A9-958D-3871EE4B7007";
width = 600;
}
);
unicode = 0302;
},
{
glyphname = tildecomb;
lastChange = "2018-04-19 10:55:25 +0000";
layers = (
{
anchors = (
{
name = _top;
position = "{181, 486}";
},
{
name = top;
position = "{183, 682}";
}
);
layerId = "44A3F285-AC1C-4A7F-B2BD-0C498DBF5AFB";
paths = (
{
closed = 1;
nodes = (
"289 577 OFFCURVE",
"321 633 OFFCURVE",
"333 657 CURVE",
"295 689 LINE",
"285 667 OFFCURVE",
"264 653 OFFCURVE",
"239 653 CURVE SMOOTH",
"197 653 OFFCURVE",
"181 693 OFFCURVE",
"131 693 CURVE SMOOTH",
"77 693 OFFCURVE",
"44 645 OFFCURVE",
"27 618 CURVE",
"66 584 LINE",
"78 605 OFFCURVE",
"100 620 OFFCURVE",
"125 620 CURVE SMOOTH",
"167 620 OFFCURVE",
"185 577 OFFCURVE",
"234 577 CURVE SMOOTH"
);
}
);
width = 360;
},
{
layerId = "2F5B831B-86AF-41A9-958D-3871EE4B7007";
width = 600;
}
);
unicode = 0303;
},
{
glyphname = cedillacomb;
lastChange = "2018-04-19 10:55:25 +0000";
layers = (
{
anchors = (
{
name = _bottom;
position = "{98, 0}";
},
{
name = bottom;
position = "{105, -216}";
}
);
layerId = "44A3F285-AC1C-4A7F-B2BD-0C498DBF5AFB";
paths = (
{
closed = 1;
nodes = (
"129 -216 OFFCURVE",
"183 -185 OFFCURVE",
"183 -126 CURVE SMOOTH",
"183 -72 OFFCURVE",
"138 -52 OFFCURVE",
"113 -46 CURVE",
"130 11 LINE",
"81 11 LINE",
"48 -76 LINE",
"49 -78 LINE",
"94 -78 OFFCURVE",
"116 -99 OFFCURVE",
"116 -127 CURVE SMOOTH",
"116 -156 OFFCURVE",
"92 -171 OFFCURVE",
"65 -171 CURVE SMOOTH",
"55 -171 OFFCURVE",
"46 -169 OFFCURVE",
"37 -165 CURVE",
"29 -207 LINE",
"42 -213 OFFCURVE",
"60 -216 OFFCURVE",
"78 -216 CURVE SMOOTH"
);
}
);
width = 213;
},
{
layerId = "2F5B831B-86AF-41A9-958D-3871EE4B7007";
width = 600;
}
);
unicode = 0327;
},
{
glyphname = acute;
lastChange = "2018-04-19 10:52:48 +0000";
layers = (
{
layerId = "44A3F285-AC1C-4A7F-B2BD-0C498DBF5AFB";
paths = (
{
closed = 1;
nodes = (
"215 690 LINE",
"149 744 LINE",
"27 595 LINE",
"68 559 LINE"
);
}
);
width = 242;
},
{
layerId = "2F5B831B-86AF-41A9-958D-3871EE4B7007";
width = 600;
}
);
unicode = 00B4;
},
{
glyphname = cedilla;
lastChange = "2018-04-19 10:55:25 +0000";
layers = (
{
anchors = (
{
name = _bottom;
position = "{118, 0}";
},
{
name = bottom;
position = "{101, -216}";
}
);
layerId = "44A3F285-AC1C-4A7F-B2BD-0C498DBF5AFB";
paths = (
{
closed = 1;
nodes = (
"139 -216 OFFCURVE",
"186 -177 OFFCURVE",
"186 -122 CURVE SMOOTH",
"186 -70 OFFCURVE",
"143 -56 OFFCURVE",
"120 -50 CURVE",
"142 11 LINE",
"104 11 LINE",
"64 -76 LINE",
"110 -76 OFFCURVE",
"126 -100 OFFCURVE",
"126 -126 CURVE SMOOTH",
"126 -156 OFFCURVE",
"105 -178 OFFCURVE",
"74 -178 CURVE SMOOTH",
"67 -178 OFFCURVE",
"61 -177 OFFCURVE",
"51 -173 CURVE",
"47 -209 LINE",
"60 -214 OFFCURVE",
"72 -216 OFFCURVE",
"84 -216 CURVE SMOOTH"
);
}
);
width = 233;
},
{
layerId = "2F5B831B-86AF-41A9-958D-3871EE4B7007";
width = 600;
}
);
unicode = 00B8;
},
{
glyphname = circumflex;
lastChange = "2018-04-19 10:55:25 +0000";
layers = (
{
anchors = (
{
name = _top;
position = "{173, 500}";
}
);
layerId = "44A3F285-AC1C-4A7F-B2BD-0C498DBF5AFB";
paths = (
{
closed = 1;
nodes = (
"173 646 LINE",
"278 554 LINE",
"319 590 LINE",
"200 724 LINE",
"146 724 LINE",
"27 590 LINE",
"68 554 LINE"
);
}
);
width = 346;
},
{
layerId = "2F5B831B-86AF-41A9-958D-3871EE4B7007";
width = 600;
}
);
unicode = 02C6;
},
{
glyphname = grave;
lastChange = "2018-04-19 10:52:48 +0000";
layers = (
{
layerId = "44A3F285-AC1C-4A7F-B2BD-0C498DBF5AFB";
paths = (
{
closed = 1;
nodes = (
"215 595 LINE",
"93 744 LINE",
"27 690 LINE",
"174 559 LINE"
);
}
);
width = 242;
},
{
layerId = "2F5B831B-86AF-41A9-958D-3871EE4B7007";
width = 600;
}
);
unicode = 0060;
},
{
glyphname = gravecomb.case;
lastChange = "2018-04-19 10:55:25 +0000";
layers = (
{
anchors = (
{
name = _top;
position = "{171, 685}";
},
{
name = top;
position = "{172, 846}";
}
);
layerId = "44A3F285-AC1C-4A7F-B2BD-0C498DBF5AFB";
paths = (
{
closed = 1;
nodes = (
"228 768 LINE",
"72 877 LINE",
"27 807 LINE",
"199 722 LINE"
);
}
);
width = 255;
},
{
layerId = "2F5B831B-86AF-41A9-958D-3871EE4B7007";
width = 600;
}
);
},
{
glyphname = acutecomb.case;
lastChange = "2018-04-19 10:55:25 +0000";
layers = (
{
anchors = (
{
name = _top;
position = "{94, 685}";
},
{
name = top;
position = "{93, 846}";
}
);
layerId = "44A3F285-AC1C-4A7F-B2BD-0C498DBF5AFB";
paths = (
{
closed = 1;
nodes = (
"228 827 LINE",
"183 897 LINE",
"27 788 LINE",
"56 742 LINE"
);
}
);
width = 255;
},
{
layerId = "2F5B831B-86AF-41A9-958D-3871EE4B7007";
width = 600;
}
);
},
